<svg xmlns="http://www.w3.org/2000/svg" viewBox="0 0 500 484"><defs><style>.cls-1{fill:none;}.cls-2{fill:#291886;}.cls-3{fill:#281686;}</style></defs><g id="Layer_2" data-name="Layer 2"><g id="Layer_1-2" data-name="Layer 1"><rect class="cls-1" width="500" height="484"/><path class="cls-2" d="M250,379.3c-75.71,0-137.3-61.59-137.3-137.29s61.59-137.3,137.3-137.3S387.29,166.3,387.29,242,325.7,379.3,250,379.3Zm0-272.19c-74.38,0-134.89,60.52-134.89,134.9S175.62,376.89,250,376.89,384.89,316.38,384.89,242,324.37,107.11,250,107.11Z"/><path class="cls-2" d="M61,242.49a11.29,11.29,0,0,0-2.92,1.06,11.26,11.26,0,0,1-2.86,1.2,2.54,2.54,0,0,1-1.81-.3,1.77,1.77,0,0,1-.79-1.26,1.55,1.55,0,0,1,.42-1.27,2.6,2.6,0,0,1,1.64-.75,9.66,9.66,0,0,1,2.83.18,14.36,14.36,0,0,0,3.36.24,9.93,9.93,0,0,0-2.18-1.9,11.44,11.44,0,0,1-2.48-1.91,2.88,2.88,0,0,1-.63-1.42,1.73,1.73,0,0,1,1.42-2,1.87,1.87,0,0,1,1.55.52,9.33,9.33,0,0,1,1.81,3.43,16.3,16.3,0,0,0,1.27,2.69,10.87,10.87,0,0,0,.5-2.92,8,8,0,0,1,.69-3.65,2.12,2.12,0,0,1,1.47-1.06,1.58,1.58,0,0,1,1.21.33,1.62,1.62,0,0,1,.66,1.08,3.18,3.18,0,0,1-.25,1.53,10.06,10.06,0,0,1-1.75,2.47,11,11,0,0,0-1.7,2.54,10.37,10.37,0,0,0,2.64-.91,15.23,15.23,0,0,1,3.41-1.3,2.26,2.26,0,0,1,1.59.3,1.56,1.56,0,0,1,.76,1,2.1,2.1,0,0,1-.42,1.57,2,2,0,0,1-1.41.67,8.06,8.06,0,0,1-2.61-.14c-1-.19-1.75-.3-2.14-.34a13.84,13.84,0,0,0-1.7,0,12.2,12.2,0,0,0,2.25,2,13.08,13.08,0,0,1,2.64,2.09,2.21,2.21,0,0,1,.52,1.13,1.79,1.79,0,0,1-.32,1.35,1.54,1.54,0,0,1-1,.69,2,2,0,0,1-1.21-.28,3.31,3.31,0,0,1-1.2-1.21,17.07,17.07,0,0,1-1.1-2.59,13.89,13.89,0,0,0-1.22-2.55,11.08,11.08,0,0,0-.5,3,11.42,11.42,0,0,1-.56,3.49,2.16,2.16,0,0,1-1.61,1.24,1.51,1.51,0,0,1-1.16-.33,1.58,1.58,0,0,1-.66-1.09,3.15,3.15,0,0,1,.23-1.6,8.87,8.87,0,0,1,1.57-2.29,10.9,10.9,0,0,0,1.8-2.78"/><path class="cls-2" d="M440.35,242.49a11,11,0,0,1,2.92,1.06,11.43,11.43,0,0,0,2.87,1.2,2.5,2.5,0,0,0,1.8-.3,1.71,1.71,0,0,0,.79-1.26,1.54,1.54,0,0,0-.41-1.27,2.63,2.63,0,0,0-1.64-.75,9.66,9.66,0,0,0-2.83.18,14.44,14.44,0,0,1-3.37.24,10,10,0,0,1,2.19-1.9,11.72,11.72,0,0,0,2.48-1.91,3,3,0,0,0,.63-1.42,1.66,1.66,0,0,0-.32-1.27,1.63,1.63,0,0,0-1.1-.68,1.88,1.88,0,0,0-1.56.52,9.37,9.37,0,0,0-1.8,3.43,16.3,16.3,0,0,1-1.27,2.69,10.16,10.16,0,0,1-.49-2.92,8,8,0,0,0-.71-3.65,2.08,2.08,0,0,0-1.46-1.06,1.69,1.69,0,0,0-1.87,1.41,3,3,0,0,0,.25,1.53,10.06,10.06,0,0,0,1.75,2.47,11.36,11.36,0,0,1,1.7,2.54,10.43,10.43,0,0,1-2.65-.91,15.4,15.4,0,0,0-3.4-1.3,2.26,2.26,0,0,0-1.59.3,1.56,1.56,0,0,0-.76,1,2.1,2.1,0,0,0,.42,1.57,2,2,0,0,0,1.41.67,8.06,8.06,0,0,0,2.61-.14c1-.19,1.75-.3,2.14-.34a13.68,13.68,0,0,1,1.69,0,12.48,12.48,0,0,1-2.24,2,12.78,12.78,0,0,0-2.64,2.09,2.23,2.23,0,0,0-.53,1.13,1.79,1.79,0,0,0,.33,1.35,1.53,1.53,0,0,0,1,.69,2,2,0,0,0,1.22-.28,3.21,3.21,0,0,0,1.19-1.21,17.07,17.07,0,0,0,1.1-2.59,13.94,13.94,0,0,1,1.23-2.55,11.08,11.08,0,0,1,.5,3,11.21,11.21,0,0,0,.55,3.49,2.17,2.17,0,0,0,1.62,1.24,1.48,1.48,0,0,0,1.15-.33,1.63,1.63,0,0,0,.67-1.09,3.16,3.16,0,0,0-.24-1.6,8.78,8.78,0,0,0-1.56-2.29,11,11,0,0,1-1.81-2.78"/><path class="cls-2" d="M91.07,242.49a11.29,11.29,0,0,0-2.92,1.06,11.26,11.26,0,0,1-2.86,1.2,2.53,2.53,0,0,1-1.81-.3,1.77,1.77,0,0,1-.79-1.26,1.55,1.55,0,0,1,.42-1.27,2.58,2.58,0,0,1,1.64-.75,9.58,9.58,0,0,1,2.82.18,14.47,14.47,0,0,0,3.37.24,9.93,9.93,0,0,0-2.18-1.9,11.44,11.44,0,0,1-2.48-1.91,2.88,2.88,0,0,1-.63-1.42,1.73,1.73,0,0,1,1.42-2,1.87,1.87,0,0,1,1.55.52,9.49,9.49,0,0,1,1.81,3.43,16.3,16.3,0,0,0,1.27,2.69,10.16,10.16,0,0,0,.49-2.92,7.89,7.89,0,0,1,.71-3.65,2.08,2.08,0,0,1,1.46-1.06,1.58,1.58,0,0,1,1.21.33,1.62,1.62,0,0,1,.66,1.08,3.18,3.18,0,0,1-.25,1.53,10.06,10.06,0,0,1-1.75,2.47,11,11,0,0,0-1.7,2.54,10.43,10.43,0,0,0,2.65-.91,15,15,0,0,1,3.4-1.3,2.22,2.22,0,0,1,1.58.3,1.55,1.55,0,0,1,.77,1,2.1,2.1,0,0,1-.42,1.57,2,2,0,0,1-1.41.67,8.05,8.05,0,0,1-2.61-.14c-1-.19-1.75-.3-2.14-.34a13.68,13.68,0,0,0-1.69,0,11.83,11.83,0,0,0,2.24,2,12.78,12.78,0,0,1,2.64,2.09,2.21,2.21,0,0,1,.52,1.13,1.79,1.79,0,0,1-.32,1.35,1.54,1.54,0,0,1-1,.69,2,2,0,0,1-1.21-.28,3.23,3.23,0,0,1-1.2-1.21,17.07,17.07,0,0,1-1.1-2.59A13.89,13.89,0,0,0,92,242.88a11.08,11.08,0,0,0-.5,3,11.42,11.42,0,0,1-.56,3.49,2.16,2.16,0,0,1-1.61,1.24,1.51,1.51,0,0,1-1.16-.33,1.58,1.58,0,0,1-.66-1.09,3.15,3.15,0,0,1,.23-1.6,9.14,9.14,0,0,1,1.57-2.29,10.9,10.9,0,0,0,1.8-2.78"/><path class="cls-2" d="M410.3,242.49a11,11,0,0,1,2.92,1.06,11.56,11.56,0,0,0,2.86,1.2,2.52,2.52,0,0,0,1.81-.3,1.71,1.71,0,0,0,.79-1.26,1.51,1.51,0,0,0-.42-1.27,2.57,2.57,0,0,0-1.63-.75,9.64,9.64,0,0,0-2.83.18,14.44,14.44,0,0,1-3.37.24,10,10,0,0,1,2.19-1.9,11.44,11.44,0,0,0,2.48-1.91,2.88,2.88,0,0,0,.63-1.42,1.66,1.66,0,0,0-.32-1.27,1.61,1.61,0,0,0-1.1-.68,1.89,1.89,0,0,0-1.56.52,9.37,9.37,0,0,0-1.8,3.43,16.3,16.3,0,0,1-1.27,2.69,10.49,10.49,0,0,1-.5-2.92,7.79,7.79,0,0,0-.7-3.65,2.08,2.08,0,0,0-1.46-1.06,1.6,1.6,0,0,0-1.22.33,1.65,1.65,0,0,0-.65,1.08,3.06,3.06,0,0,0,.25,1.53,10.06,10.06,0,0,0,1.75,2.47,11,11,0,0,1,1.7,2.54,10.43,10.43,0,0,1-2.65-.91,15.4,15.4,0,0,0-3.4-1.3,2.25,2.25,0,0,0-1.59.3,1.56,1.56,0,0,0-.76,1,2.14,2.14,0,0,0,.41,1.57,2.09,2.09,0,0,0,1.42.67,8.06,8.06,0,0,0,2.61-.14c1-.19,1.75-.3,2.14-.34a13.67,13.67,0,0,1,1.69,0,11.83,11.83,0,0,1-2.24,2,12.78,12.78,0,0,0-2.64,2.09,2.13,2.13,0,0,0-.52,1.13,1.75,1.75,0,0,0,.32,1.35,1.55,1.55,0,0,0,1,.69,2,2,0,0,0,1.22-.28,3.29,3.29,0,0,0,1.19-1.21,16.06,16.06,0,0,0,1.1-2.59,14.58,14.58,0,0,1,1.22-2.55,11.06,11.06,0,0,1,.51,3,11.11,11.11,0,0,0,.56,3.49,2.12,2.12,0,0,0,1.61,1.24,1.51,1.51,0,0,0,1.16-.33,1.62,1.62,0,0,0,.66-1.09,3.15,3.15,0,0,0-.23-1.6,9.14,9.14,0,0,0-1.57-2.29,10.69,10.69,0,0,1-1.81-2.78"/><path class="cls-2" d="M262.4,22.11a5.87,5.87,0,0,1-.82-.06l-6.63-1c-2.14-.31-4.87-1.14-6.08-2.51l-13.12-15a1.93,1.93,0,0,1-.5-2.16c.28-.62,1.06-1.35,3.2-1.35l7.79,0c2.39,0,5.2,1.16,6.27,2.58l12,15.9a2.14,2.14,0,0,1,.3,2.42A2.59,2.59,0,0,1,262.4,22.11ZM237.23,2.27l0,0,13.12,15c.67.76,2.71,1.54,4.86,1.85l6.62,1A2.1,2.1,0,0,0,263,20a1.73,1.73,0,0,1-.15-.19l-12-15.91a7,7,0,0,0-4.66-1.78h-7.79A4,4,0,0,0,237.23,2.27Z"/><path class="cls-2" d="M276.26,23.21a5.86,5.86,0,0,1-1.05-.11l-6.56-1.3c-2.14-.42-4.82-1.39-5.95-2.82L250.36,3.38A1.94,1.94,0,0,1,250,1.19c.31-.6,1.1-1.29,3.26-1.18L261,.42c2.39.13,5.14,1.43,6.13,2.9l11.13,16.49a2.13,2.13,0,0,1,.18,2.43A2.49,2.49,0,0,1,276.26,23.21ZM251.91,2.1l0,0,12.34,15.6c.63.8,2.63,1.68,4.76,2.1l6.57,1.3a2.37,2.37,0,0,0,1.14,0,1.41,1.41,0,0,1-.14-.2L265.48,4.44a7,7,0,0,0-4.57-2L253.13,2A4.07,4.07,0,0,0,251.91,2.1Z"/><path class="cls-2" d="M290,25.13a5.42,5.42,0,0,1-1.27-.17l-6.49-1.63c-2.11-.53-4.74-1.63-5.8-3.13L264.94,4a2,2,0,0,1-.27-2.21c.34-.57,1.18-1.22,3.31-1l7.76.8c2.37.25,5,1.68,6,3.21l10.27,17a2.12,2.12,0,0,1,.06,2.44A2.39,2.39,0,0,1,290,25.13ZM266.55,2.81l0,0L278.11,19c.58.83,2.54,1.81,4.65,2.34l6.5,1.63a2.16,2.16,0,0,0,1.13.07,1,1,0,0,1-.12-.21L280,5.84c-.53-.89-2.6-2.06-4.46-2.25l-7.76-.8A4.1,4.1,0,0,0,266.55,2.81Z"/><path class="cls-2" d="M303.64,27.86a5,5,0,0,1-1.45-.24l-6.4-2c-2-.6-4.64-1.85-5.63-3.4L279.46,5.49a2,2,0,0,1-.17-2.21c.37-.57,1.23-1.17,3.37-.85l7.69,1.2c2.37.36,5,1.93,5.81,3.5l9.41,17.53a2.13,2.13,0,0,1-.07,2.44A2.31,2.31,0,0,1,303.64,27.86ZM281.13,4.38l0,0,10.7,16.77c.54.86,2.45,1.93,4.52,2.57h0l6.39,1.95a2.06,2.06,0,0,0,1.14.13,2.11,2.11,0,0,1-.11-.22L294.39,8.08c-.48-.91-2.49-2.18-4.34-2.47l-7.7-1.19A3.71,3.71,0,0,0,281.13,4.38Z"/><path class="cls-2" d="M317.06,31.41a4.94,4.94,0,0,1-1.63-.32l-6.29-2.28c-2-.74-4.54-2.09-5.45-3.69L293.86,7.83a1.94,1.94,0,0,1-.06-2.22c.4-.54,1.32-1.1,3.41-.66l7.62,1.58c2.33.47,4.85,2.17,5.62,3.79l8.51,18a2.12,2.12,0,0,1-.19,2.43A2.26,2.26,0,0,1,317.06,31.41ZM295.58,6.81s0,0,0,0l9.83,17.29c.5.88,2.35,2.06,4.39,2.79l6.3,2.28a2.13,2.13,0,0,0,1.12.18,1.41,1.41,0,0,1-.1-.21l-8.5-18a7,7,0,0,0-4.21-2.69L296.8,6.91A4.33,4.33,0,0,0,295.58,6.81Z"/><path class="cls-2" d="M329.66,36.3a4.51,4.51,0,0,1-1.89-.48l-6-2.91c-2-.93-4.31-2.53-5.06-4.21l-8.06-18.18a2,2,0,0,1,.17-2.22c.45-.5,1.41-1,3.45-.32l7.43,2.33c2.28.72,4.62,2.66,5.22,4.34l6.66,18.74a2,2,0,0,1-1.88,2.91ZM310.43,9.67s0,0,0,0l8.07,18.18c.41.93,2.13,2.28,4.08,3.22l6,2.9a2.21,2.21,0,0,0,1.11.29s0-.12-.08-.23L323,15.32a7,7,0,0,0-3.93-3.09L311.63,9.9A3.25,3.25,0,0,0,310.43,9.67Z"/><path class="cls-2" d="M342.48,41.52a4.33,4.33,0,0,1-2-.59l-5.89-3.19c-1.91-1-4.18-2.75-4.85-4.46l-7.15-18.56a2,2,0,0,1,.28-2.2c.47-.48,1.45-.9,3.46-.15l7.31,2.69c2.24.83,4.48,2.89,5,4.59l5.74,19.05a2.13,2.13,0,0,1-.55,2.38A2.09,2.09,0,0,1,342.48,41.52ZM335.54,36l5.89,3.2a2.54,2.54,0,0,0,1.08.35s0-.12-.07-.24l-5.73-19a7,7,0,0,0-3.77-3.29l-7.31-2.69a4.2,4.2,0,0,0-1.19-.28v0l7.15,18.56c.37.94,2,2.38,3.94,3.41Z"/><path class="cls-2" d="M354.94,47.5a4.18,4.18,0,0,1-2.11-.69l-5.72-3.49c-1.85-1.12-4-3-4.61-4.68l-6.23-18.9a1.94,1.94,0,0,1,.4-2.19c.71-.65,1.88-.65,3.46,0l7.16,3.05c2.2.94,4.34,3.1,4.76,4.83l4.79,19.31a2.13,2.13,0,0,1-.67,2.35A2,2,0,0,1,354.94,47.5ZM338.17,19.08s0,0,0,0L344.4,38c.32,1,1.9,2.47,3.75,3.6l5.72,3.48a2.32,2.32,0,0,0,1.06.4h0a1.33,1.33,0,0,1-.06-.23l-4.78-19.32a7,7,0,0,0-3.61-3.46l-7.15-3.06A4.07,4.07,0,0,0,338.17,19.08Z"/><path class="cls-2" d="M367.05,54.2a4,4,0,0,1-2.19-.8l-5.55-3.75c-1.8-1.22-3.9-3.14-4.39-4.91l-5.29-19.17a2,2,0,0,1,.5-2.17c.51-.43,1.54-.74,3.46.19l7,3.39c1.88.92,4.14,3.12,4.51,5.07L369,51.57a2.13,2.13,0,0,1-.78,2.31A2.06,2.06,0,0,1,367.05,54.2ZM351.56,25s0,0,0,0l5.29,19.17c.27,1,1.77,2.57,3.58,3.78h0L366,51.74a2.12,2.12,0,0,0,1,.45,2.16,2.16,0,0,1,0-.24l-3.83-19.52a7.05,7.05,0,0,0-3.43-3.64l-6.9-3.35A5.07,5.07,0,0,0,351.56,25Z"/><path class="cls-2" d="M378,62a3.78,3.78,0,0,1-2.33-1l-5.16-4.27c-1.67-1.39-3.57-3.51-3.88-5.32l-3.42-19.59a2,2,0,0,1,.7-2.11c.81-.55,2-.36,3.43.52L374,34.31c2,1.24,3.84,3.69,4,5.47q1,9.9,1.93,19.8a2.13,2.13,0,0,1-1,2.22A1.93,1.93,0,0,1,378,62ZM365.2,31.45v0l3.42,19.59c.17,1,1.51,2.73,3.19,4.11h0L377,59.47a2.27,2.27,0,0,0,1,.55s0-.12,0-.24Q377,49.88,376,40A6.87,6.87,0,0,0,373,36L366.31,32A4.13,4.13,0,0,0,365.2,31.45Z"/><path class="cls-2" d="M389.14,70.21a3.67,3.67,0,0,1-2.38-1.14l-4.94-4.52c-1.61-1.46-3.4-3.67-3.62-5.49l-2.46-19.74a2,2,0,0,1,.8-2.07c.58-.35,1.63-.52,3.41.69l6.43,4.38c2,1.35,3.65,3.88,3.74,5.66q.48,9.95.95,19.88A2.12,2.12,0,0,1,390,70,1.94,1.94,0,0,1,389.14,70.21ZM377.72,39s0,0,0,0l2.46,19.74c.12,1,1.38,2.79,3,4.25l4.94,4.52a2.32,2.32,0,0,0,1,.61s0-.12,0-.24q-.46-9.94-.95-19.88a7,7,0,0,0-2.87-4.1l-6.43-4.38A4.07,4.07,0,0,0,377.72,39Z"/><path class="cls-2" d="M399.79,79a3.62,3.62,0,0,1-2.43-1.24L392.64,73c-1.53-1.54-3.21-3.84-3.35-5.67l-1.51-19.83a2,2,0,0,1,.9-2c.59-.32,1.65-.44,3.36.85L398.26,51c1.91,1.44,3.47,4.05,3.47,5.83v19.9a2.12,2.12,0,0,1-1.21,2.11A1.83,1.83,0,0,1,399.79,79Zm-10-31.68a.07.07,0,0,1,0,0l1.51,19.82c.07,1,1.24,2.86,2.77,4.4h0l4.71,4.75a2.34,2.34,0,0,0,.94.65,1.8,1.8,0,0,1,0-.24V56.87a7,7,0,0,0-2.66-4.23L390.84,48A3.94,3.94,0,0,0,389.77,47.34Z"/><path class="cls-2" d="M409.16,88.66a3.44,3.44,0,0,1-2.49-1.48L402.43,82c-1.39-1.69-2.84-4.13-2.8-6l.4-19.89a1.92,1.92,0,0,1,1.09-1.93c.62-.26,1.68-.27,3.26,1.17l5.74,5.26c1.76,1.6,3.06,4.35,2.89,6.13l-1.89,19.81a2.12,2.12,0,0,1-1.41,2A1.7,1.7,0,0,1,409.16,88.66ZM402,56.16v0l-.39,19.89c0,1,1,3,2.33,4.64l4.25,5.19a2.21,2.21,0,0,0,.88.73,1.43,1.43,0,0,1,0-.24L411,66.59a6.93,6.93,0,0,0-2.24-4.46q-2.86-2.64-5.75-5.26A3.91,3.91,0,0,0,402,56.16Z"/><path class="cls-2" d="M418.58,98.75a3.37,3.37,0,0,1-2.51-1.61l-4-5.38c-1.3-1.74-2.64-4.25-2.51-6.08l1.36-19.85A1.92,1.92,0,0,1,412.12,64c.64-.24,1.7-.19,3.21,1.33l5.48,5.53c1.68,1.7,2.84,4.51,2.59,6.27q-1.44,9.84-2.86,19.69a2.1,2.1,0,0,1-1.5,1.92A1.76,1.76,0,0,1,418.58,98.75Zm-5.64-32.82v0l-1.36,19.84c-.07,1,.82,3,2.11,4.75h0l4,5.37a2.19,2.19,0,0,0,.84.78s0-.12,0-.24l2.85-19.69c.15-1-.71-3.23-2-4.57l-5.48-5.53A4.17,4.17,0,0,0,412.94,65.93Z"/><path class="cls-2" d="M427.41,109.37a3.29,3.29,0,0,1-2.53-1.72l-3.35-5-.37-.55c-1.21-1.81-2.43-4.38-2.21-6.2l2.31-19.75a2,2,0,0,1,1.26-1.83c.64-.21,1.7-.12,3.14,1.48,1.74,1.93,3.47,3.86,5.22,5.79s2.62,4.64,2.27,6.38q-1.87,9.76-3.78,19.54a2.12,2.12,0,0,1-1.6,1.84A1.47,1.47,0,0,1,427.41,109.37Zm-4.16-33.05v0l-2.31,19.76c-.12,1,.67,3,1.89,4.84h0l.37.56,3.35,5a2.18,2.18,0,0,0,.8.81,1.39,1.39,0,0,1,0-.23q1.89-9.78,3.78-19.54c.21-1-.53-3.26-1.79-4.66q-2.62-2.89-5.22-5.79A4,4,0,0,0,423.25,76.32Z"/><path class="cls-2" d="M435.59,120.5a3.23,3.23,0,0,1-2.53-1.84l-3.44-5.75c-1.13-1.85-2.22-4.48-1.92-6.3L431,87a2,2,0,0,1,1.36-1.75c.65-.18,1.71,0,3.07,1.62l4.93,6c1.32,1.62,2.45,4.56,2,6.49l-4.73,19.33a2.1,2.1,0,0,1-1.67,1.76A1.36,1.36,0,0,1,435.59,120.5Zm-2.65-33.22v0l-3.25,19.62c-.17,1,.52,3.08,1.64,4.94l3.45,5.74a2.21,2.21,0,0,0,.77.85,1,1,0,0,1,.06-.24l4.73-19.32a7,7,0,0,0-1.59-4.75l-4.92-6A4.46,4.46,0,0,0,432.94,87.28Z"/><path class="cls-2" d="M442.28,132.15c-1,0-1.88-.75-2.51-2.09l-2.89-6c-.93-2-1.76-4.68-1.29-6.45l5.13-19.21a1.92,1.92,0,0,1,1.51-1.62c.68-.11,1.71.13,2.9,1.9l4.32,6.49c1.33,2,1.93,5,1.35,6.64l-6.57,18.78a2.13,2.13,0,0,1-1.84,1.6Zm.38-33.32a.06.06,0,0,1,0,0q-2.55,9.61-5.13,19.22c-.26,1,.24,3.11,1.17,5.06h0l2.87,6a2.37,2.37,0,0,0,.68.92,2.33,2.33,0,0,1,.09-.23l6.56-18.78a6.93,6.93,0,0,0-1.12-4.87l-4.32-6.48A4,4,0,0,0,442.66,98.83Z"/><path class="cls-2" d="M449,144.22c-1,0-1.91-.81-2.5-2.21l-2.59-6.18c-.3-.7-1.71-4.27-1-6.51l6-18.95a1.94,1.94,0,0,1,1.6-1.53c.7-.07,1.7.22,2.8,2l4,6.68c1.23,2,1.69,5.06,1,6.71l-7.46,18.44a2.13,2.13,0,0,1-1.92,1.51Zm1.9-33.27,0,0-6.05,19c-.31.95.08,3.1.93,5.11l2.59,6.18a2.21,2.21,0,0,0,.62,1,1.1,1.1,0,0,1,.1-.22l7.46-18.45a6.9,6.9,0,0,0-.88-4.91l-4-6.68A4.17,4.17,0,0,0,450.89,111Z"/><path class="cls-2" d="M455,156.66h-.08c-1,0-1.88-.89-2.41-2.33l-2.28-6.3c-.74-2-1.3-4.82-.66-6.54l7-18.63a1.94,1.94,0,0,1,1.67-1.47c.72,0,1.69.31,2.7,2.19l3.67,6.87c1.12,2.11,1.44,5.13.69,6.74l-8.37,18.06A2.12,2.12,0,0,1,455,156.66Zm3.43-33.14v0l-7,18.63c-.36.95-.07,3.12.67,5.16h0l2.28,6.29a2.2,2.2,0,0,0,.58,1,1.11,1.11,0,0,1,.1-.21l8.37-18.06a7,7,0,0,0-.64-5l-3.67-6.86A4,4,0,0,0,458.39,123.52Z"/><path class="cls-2" d="M460.19,169.44H460c-1-.08-1.84-1-2.29-2.44-.67-2.13-1.32-4.27-2-6.4s-1.07-4.89-.34-6.57l7.87-18.26a1.93,1.93,0,0,1,1.74-1.38c.74-.1,1.67.38,2.58,2.3l3.33,7c1,2.15,1.19,5.19.36,6.77q-4.6,8.81-9.23,17.62A2.16,2.16,0,0,1,460.19,169.44Zm5-32.92,0,0-7.87,18.26c-.4.93-.22,3.11.42,5.19h0c.65,2.13,1.31,4.27,2,6.39a2.31,2.31,0,0,0,.53,1s.06-.1.11-.2q4.63-8.82,9.23-17.63a6.91,6.91,0,0,0-.39-5l-3.33-7A3.89,3.89,0,0,0,465.15,136.52Z"/><path class="cls-2" d="M463.75,182.39a2.07,2.07,0,0,1-.35,0c-1-.19-1.73-1.15-2-2.65L460,173.14c-.43-2.13-.57-5,.31-6.58l9.64-17.4a2,2,0,0,1,1.85-1.2c.67.06,1.63.54,2.36,2.56l2.62,7.33c.8,2.24.67,5.28-.31,6.78l-10.93,16.63A2.21,2.21,0,0,1,463.75,182.39Zm8-32.29,0,0-9.64,17.4c-.48.89-.53,3.08-.09,5.21l1.33,6.56a2.31,2.31,0,0,0,.43,1.06,1.26,1.26,0,0,1,.14-.2l10.92-16.63a7,7,0,0,0,.1-5l-2.62-7.33A4.12,4.12,0,0,0,471.75,150.1Z"/><path class="cls-2" d="M467.27,195.72a2.2,2.2,0,0,1-.44-.05c-1-.24-1.67-1.25-1.89-2.76l-1-6.62c-.32-2.16-.33-5,.64-6.55l10.49-16.9a1.9,1.9,0,0,1,1.93-1.1c.66.09,1.59.62,2.2,2.67l2.26,7.45c.7,2.3.4,5.32-.65,6.76l-11.74,16.06A2.24,2.24,0,0,1,467.27,195.72Zm9.51-31.85,0,0-10.49,16.9c-.53.85-.68,3-.35,5.19l1,6.62a2.21,2.21,0,0,0,.38,1.08,1.26,1.26,0,0,1,.14-.2l11.74-16.06a6.93,6.93,0,0,0,.35-5L477.28,165A4.21,4.21,0,0,0,476.78,163.87Z"/><path class="cls-2" d="M470,209.24a1.81,1.81,0,0,1-.52-.07c-1-.29-1.61-1.33-1.76-2.85l-.67-6.67c-.22-2.16-.08-5,1-6.5l11.32-16.35a1.92,1.92,0,0,1,2-1c.66.12,1.56.7,2.08,2.77.63,2.53,1.26,5.05,1.87,7.57.59,2.31.15,5.33-1,6.71l-11.74,14.47-.79,1A2.3,2.3,0,0,1,470,209.24Zm11-31.33,0,0-11.33,16.35c-.58.83-.84,3-.61,5.16h0l.67,6.67a2.13,2.13,0,0,0,.32,1.09,1.09,1.09,0,0,1,.15-.18l.8-1q5.86-7.23,11.73-14.47c.66-.8,1.06-3.14.6-5-.62-2.52-1.25-5-1.87-7.56A4.08,4.08,0,0,0,481,177.91Z"/><path class="cls-2" d="M471.88,222.91a1.81,1.81,0,0,1-.6-.11c-.95-.33-1.54-1.4-1.61-2.93l-.33-6.69c-.12-2.17.17-5,1.28-6.45L482.77,191a1.92,1.92,0,0,1,2-.9c.65.15,1.52.77,1.93,2.87l1.5,7.65c.45,2.34-.14,5.32-1.33,6.65L473.59,222A2.33,2.33,0,0,1,471.88,222.91Zm12.5-30.74,0,0L472.21,208c-.61.8-1,3-.87,5.13h0l.33,6.69a2.35,2.35,0,0,0,.26,1.11,2.08,2.08,0,0,1,.17-.18l13.3-14.8a6.93,6.93,0,0,0,.84-4.93l-1.48-7.64A4.1,4.1,0,0,0,484.38,192.17Z"/><path class="cls-2" d="M472.14,236.31a1.92,1.92,0,0,1-.78-.17c-.91-.43-1.39-1.56-1.31-3.09l.35-6.68c.1-2.06.66-4.94,1.93-6.29L486,205.63a1.93,1.93,0,0,1,2.11-.7c.63.22,1.43.93,1.63,3.06l.71,7.76c.22,2.38-.67,5.29-2,6.48l-14.72,13.38A2.42,2.42,0,0,1,472.14,236.31ZM487.48,207l0,0-13.66,14.45c-.7.74-1.28,2.85-1.39,5h0l-.35,6.68a2.31,2.31,0,0,0,.16,1.14,2,2,0,0,1,.18-.16l14.73-13.39c.76-.69,1.5-2.94,1.33-4.81l-.71-7.76A3.71,3.71,0,0,0,487.48,207Z"/><path class="cls-2" d="M472.28,250.09a1.81,1.81,0,0,1-.87-.22c-.88-.48-1.3-1.62-1.14-3.15.23-2.22.45-4.43.69-6.66s.92-4.91,2.25-6.18l14.38-13.73a2,2,0,0,1,2.14-.59c.63.25,1.39,1,1.47,3.14l.32,7.78c.1,2.38-.94,5.24-2.31,6.37l-15.39,12.62A2.45,2.45,0,0,1,472.28,250.09ZM489,221.58l0,0-14.39,13.73c-.73.7-1.42,2.78-1.64,4.94h0c-.24,2.22-.46,4.44-.69,6.66a2.28,2.28,0,0,0,.1,1.14s.1-.08.19-.16l15.39-12.61a7,7,0,0,0,1.58-4.74l-.32-7.78A4.07,4.07,0,0,0,489,221.58Z"/><path class="cls-2" d="M471.6,263.85a1.75,1.75,0,0,1-.93-.26c-.86-.51-1.23-1.68-1-3.2l1-6.61c.31-2.05,1.17-4.86,2.57-6.06l15.06-13a1.91,1.91,0,0,1,2.16-.48c.62.28,1.34,1.07,1.32,3.21l-.08,7.79c0,2.09-1,5.07-2.64,6.24l-16,11.82A2.5,2.5,0,0,1,471.6,263.85Zm18.07-27.62,0,0-15.07,13c-.78.66-1.58,2.7-1.9,4.84h0l-1,6.62a2.36,2.36,0,0,0,0,1.14l.2-.14,16-11.82a7,7,0,0,0,1.82-4.66l.08-7.78A3.88,3.88,0,0,0,489.67,236.23Z"/><path class="cls-2" d="M470.12,277.56a1.75,1.75,0,0,1-1-.31c-.84-.56-1.14-1.75-.83-3.25l1.36-6.56c.44-2.12,1.42-4.79,2.87-5.91l15.71-12.2a1.94,1.94,0,0,1,2.19-.37c.6.32,1.28,1.14,1.14,3.27-.16,2.67-.32,5.22-.47,7.77-.15,2.39-1.47,5.13-2.95,6.11l-16.6,11A2.57,2.57,0,0,1,470.12,277.56Zm19.35-26.67,0,0-15.7,12.2c-.8.62-1.69,2.61-2.14,4.74l-1.36,6.56a2.12,2.12,0,0,0,0,1.14,1.74,1.74,0,0,1,.2-.13l16.59-11a7,7,0,0,0,2.06-4.56c.15-2.55.31-5.1.46-7.65A4.27,4.27,0,0,0,489.47,250.89Z"/><path class="cls-2" d="M467.23,290.63a1.8,1.8,0,0,1-1.19-.43c-.77-.64-1-1.85-.49-3.31l2-6.39c.66-2.06,1.9-4.62,3.45-5.59l16.87-10.56a1.91,1.91,0,0,1,2.21-.14c.56.37,1.15,1.25.81,3.37l-1.25,7.68c-.4,2.36-2,4.95-3.56,5.78l-17.61,9.25A2.65,2.65,0,0,1,467.23,290.63ZM489,266l0,0-16.86,10.56c-.86.53-1.95,2.43-2.6,4.5h0l-2,6.39a2.08,2.08,0,0,0-.12,1.13s.1-.05.22-.11l17.61-9.26a7,7,0,0,0,2.5-4.33l1.26-7.68A4.13,4.13,0,0,0,489,266Z"/><path class="cls-2" d="M464,304a1.85,1.85,0,0,1-1.28-.48c-.74-.68-.85-1.9-.32-3.34l2.33-6.27c.76-2,2.13-4.53,3.73-5.42l17.38-9.69a1.93,1.93,0,0,1,2.22,0c.54.4,1.08,1.32.64,3.41l-1.65,7.61c-.51,2.33-2.23,4.84-3.84,5.58l-18.06,8.35A2.69,2.69,0,0,1,464,304Zm22.85-23.46,0,0-17.37,9.68c-.88.49-2.07,2.33-2.83,4.36h0l-2.33,6.27a2.33,2.33,0,0,0-.19,1.13s.1,0,.21-.1l18.07-8.36a6.92,6.92,0,0,0,2.71-4.19l1.65-7.6A4.23,4.23,0,0,0,486.89,280.56Z"/><path class="cls-2" d="M460.05,317.21a1.84,1.84,0,0,1-1.36-.55c-.7-.72-.76-1.94-.16-3.34l2.65-6.16c.85-2,2.36-4.41,4-5.22l17.83-8.8a2,2,0,0,1,2.22.07c.75.62.91,1.78.47,3.44l-2,7.52c-.61,2.3-2.46,4.72-4.11,5.39L461.1,317A2.89,2.89,0,0,1,460.05,317.21Zm3-9.25-2.64,6.15a2.16,2.16,0,0,0-.25,1.12,1.11,1.11,0,0,1,.23-.1l18.45-7.43a7,7,0,0,0,2.92-4.05l2-7.52a4.12,4.12,0,0,0,.18-1.21l0,0-17.83,8.8c-.91.45-2.19,2.22-3.05,4.22Z"/><path class="cls-2" d="M455.28,330.15a1.87,1.87,0,0,1-1.44-.62c-.67-.75-.66-2,0-3.35l2.95-6c.95-1.95,2.57-4.29,4.26-5l18.25-7.9a1.94,1.94,0,0,1,2.21.19c.49.45,1,1.42.29,3.45l-2.4,7.41c-.72,2.27-2.69,4.6-4.38,5.18l-18.8,6.5A2.77,2.77,0,0,1,455.28,330.15Zm24.86-21.07h0L461.86,317c-.94.41-2.31,2.11-3.26,4.06h0l-3,6a2.21,2.21,0,0,0-.3,1.09s.11,0,.23-.07l18.8-6.51a7,7,0,0,0,3.12-3.89l2.4-7.41A4.15,4.15,0,0,0,480.14,309.08Z"/><path class="cls-2" d="M449.36,342.15a1.93,1.93,0,0,1-1.63-.78c-.59-.82-.46-2,.35-3.33l3.53-5.69c1.14-1.84,3-4,4.72-4.57l18.94-6.07a2,2,0,0,1,2.19.41c.45.5.8,1.5,0,3.47l-3.11,7.13c-1,2.19-3.14,4.31-4.87,4.72l-19.36,4.62A3,3,0,0,1,449.36,342.15Zm26.56-18.54h0l-18.94,6.07c-1,.3-2.49,1.87-3.63,3.72h0l-3.53,5.69a2.2,2.2,0,0,0-.41,1.07s.12,0,.23-.06L469,335.49a7,7,0,0,0,3.5-3.57l3.12-7.14A4,4,0,0,0,475.92,323.61Z"/><path class="cls-2" d="M443,354.37a2,2,0,0,1-1.72-.85c-.55-.85-.37-2.06.5-3.32l3.81-5.51c1.23-1.78,3.18-3.86,4.94-4.33l19.22-5.14a2,2,0,0,1,2.16.51c.42.52.73,1.54-.22,3.47l-3.46,7c-1.06,2.13-3.34,4.14-5.09,4.47l-19.56,3.67A3,3,0,0,1,443,354.37Zm27.3-17.22h0l-19.22,5.13c-1,.27-2.57,1.75-3.81,3.54l-3.81,5.51a2.3,2.3,0,0,0-.46,1.05,1.24,1.24,0,0,1,.24,0l19.56-3.67a7,7,0,0,0,3.67-3.4l3.46-7A3.9,3.9,0,0,0,470.31,337.15Z"/><path class="cls-2" d="M436,366.21a2,2,0,0,1-1.81-.94c-.51-.87-.27-2.07.66-3.29l4.07-5.32c1.32-1.72,3.36-3.71,5.15-4.09l19.44-4.18a2,2,0,0,1,2.14.62c.39.53.65,1.57-.39,3.44l-3.79,6.8c-1.17,2.08-3.55,4-5.31,4.22l-19.71,2.7A2.42,2.42,0,0,1,436,366.21Zm28-15.87h0l-19.43,4.18c-1,.22-2.67,1.62-4,3.35h0l-4.07,5.32a2.15,2.15,0,0,0-.51,1,.77.77,0,0,1,.23,0l19.72-2.71a7,7,0,0,0,3.83-3.21l3.79-6.8A3.81,3.81,0,0,0,463.92,350.34Z"/><path class="cls-2" d="M428.21,377.62a2,2,0,0,1-1.91-1c-.47-.89-.17-2.08.82-3.25l4.33-5.12c1.39-1.66,3.53-3.53,5.34-3.83l19.62-3.24a1.94,1.94,0,0,1,2.1.72c.37.56.58,1.61-.55,3.43l-4.12,6.6c-1.27,2-3.74,3.8-5.51,4l-19.82,1.75Zm28.57-14.5h0l-19.62,3.24c-1,.16-2.74,1.49-4.13,3.15h0l-4.33,5.12a2.34,2.34,0,0,0-.56,1l.24,0,19.82-1.75a6.94,6.94,0,0,0,4-3l4.12-6.6A4.19,4.19,0,0,0,456.78,363.12Z"/><path class="cls-2" d="M439.49,388h0l-19.9-.17a2.15,2.15,0,0,1-2.11-1.22c-.37-.94,0-2.09,1.13-3.16l4.8-4.68c1.55-1.51,3.86-3.18,5.68-3.3l19.85-1.34a2,2,0,0,1,2,.92c.31.6.42,1.66-.88,3.36l-4.74,6.17C443.88,386.46,441.26,388,439.49,388Zm-20.1-2.18h.19l19.9.16h0a7,7,0,0,0,4.24-2.63l4.74-6.17a4.33,4.33,0,0,0,.63-1.06h0l-19.85,1.34c-1,.07-2.86,1.22-4.42,2.74l-4.8,4.68a2.23,2.23,0,0,0-.65.93Z"/><path class="cls-2" d="M430.36,399.28h-.18l-19.87-1.13a2.11,2.11,0,0,1-2-1.33c-.34-.95.13-2.08,1.28-3.09l5-4.45c1.54-1.37,4-3,5.84-3l19.88-.38a2,2,0,0,1,2,1c.29.6.34,1.67-1,3.3l-5,5.95A8.93,8.93,0,0,1,430.36,399.28Zm-20.15-3.15.21,0,19.87,1.12c1,.11,3.18-1,4.37-2.41l5-5.95a3.77,3.77,0,0,0,.67-1h0l-19.88.38c-1,0-2.92,1.07-4.54,2.51h0l-5,4.44a2.22,2.22,0,0,0-.7.9Z"/><path class="cls-2" d="M420.61,410l-.36,0-19.8-2.07a2.12,2.12,0,0,1-2-1.42c-.29-1,.23-2.07,1.42-3l5.23-4.2c1.69-1.37,4.27-2.81,6-2.74l19.88.57a2,2,0,0,1,1.93,1.11c.26.62.26,1.69-1.2,3.26l-5.31,5.69A9.16,9.16,0,0,1,420.61,410Zm-20.16-4.11.21,0,19.8,2.08a7.24,7.24,0,0,0,4.48-2.21l5.31-5.69a4,4,0,0,0,.72-1h0l-19.88-.58h0c-1,0-2.95,1-4.62,2.3l-5.22,4.2a2.28,2.28,0,0,0-.74.87Z"/><path class="cls-2" d="M410.27,420.18a3.24,3.24,0,0,1-.55,0l-19.67-3a2.11,2.11,0,0,1-1.91-1.51c-.24-1,.34-2.06,1.58-3l5.41-3.94c1.76-1.27,4.25-2.6,6.1-2.45l19.83,1.53a1.94,1.94,0,0,1,1.87,1.2c.23.63.18,1.7-1.35,3.19L416,417.61A9.24,9.24,0,0,1,410.27,420.18Zm-20.14-5.09.23,0,19.66,3a7,7,0,0,0,4.58-2l5.58-5.43a4,4,0,0,0,.77-1h0l-19.83-1.53c-.93-.07-3,.79-4.77,2.07h0l-5.41,3.93a2.27,2.27,0,0,0-.79.84Z"/><path class="cls-2" d="M399.15,429.84a4.6,4.6,0,0,1-1-.11l-19.28-4.89a2.12,2.12,0,0,1-1.75-1.7c-.15-1,.52-2,1.84-2.79l5.77-3.41c1.87-1.1,4.53-2.15,6.31-1.85l19.6,3.42a1.94,1.94,0,0,1,1.74,1.37c.17.65,0,1.7-1.65,3.05l-6.08,4.88A9.61,9.61,0,0,1,399.15,429.84Zm-20-7a1.57,1.57,0,0,1,.23.06l19.29,4.89c1,.26,3.29-.36,4.75-1.54l6.07-4.87a4.33,4.33,0,0,0,.86-.88h0l-19.59-3.42c-1-.18-3.07.5-4.95,1.6L380,422.08a2.14,2.14,0,0,0-.85.75Z"/><path class="cls-2" d="M387.7,438.61a4.58,4.58,0,0,1-1.29-.17l-19-5.82a2.13,2.13,0,0,1-1.67-1.78c-.09-1,.63-2,2-2.69l5.91-3.12c1.92-1,4.63-2,6.4-1.56l19.4,4.37a1.94,1.94,0,0,1,1.68,1.45c.13.66-.06,1.71-1.79,3L393,436.84A9.74,9.74,0,0,1,387.7,438.61Zm-20-8a2.19,2.19,0,0,1,.23.08l19,5.81a7,7,0,0,0,4.81-1.31l6.31-4.57a3.85,3.85,0,0,0,.89-.84h0l-19.4-4.36c-1-.22-3.1.36-5,1.37l-5.92,3.12a2.36,2.36,0,0,0-.9.71Z"/><path class="cls-2" d="M375.77,446.7a4.83,4.83,0,0,1-1.59-.24l-18.73-6.74a2.1,2.1,0,0,1-1.58-1.84c-.05-1,.72-2,2.11-2.61l6.07-2.83c2-.91,4.69-1.73,6.47-1.24l19.16,5.3a2,2,0,0,1,1.61,1.53c.1.67-.15,1.7-1.94,2.88l-6.52,4.27A9.91,9.91,0,0,1,375.77,446.7Zm-19.86-8.94a1.64,1.64,0,0,1,.22.08l18.73,6.73a6.84,6.84,0,0,0,4.87-1.07l6.52-4.27a4.11,4.11,0,0,0,.94-.79h0L368,433.14c-1-.27-3.11.2-5.08,1.12l-6.07,2.83A2.11,2.11,0,0,0,355.91,437.76Z"/><path class="cls-2" d="M363.38,454.24a5.51,5.51,0,0,1-2.31-.43l-18-8.51a2.14,2.14,0,0,1-1.4-2c.06-1,.92-1.87,2.36-2.38l6.31-2.23c2-.72,4.83-1.26,6.55-.61l18.57,7.13a2,2,0,0,1,1.45,1.69c0,.67-.31,1.68-2.21,2.67l-6.9,3.61A9.94,9.94,0,0,1,363.38,454.24Zm-19.66-10.86a.84.84,0,0,1,.22.11l18,8.51a7,7,0,0,0,4.95-.6l6.9-3.61a4.07,4.07,0,0,0,1-.7h0L356.18,440c-.95-.36-3.12-.1-5.15.62h0l-6.31,2.24A2.12,2.12,0,0,0,343.72,443.38Z"/><path class="cls-2" d="M350.64,460.74a6,6,0,0,1-2.73-.55l-17.54-9.38a2.14,2.14,0,0,1-1.3-2.07c.1-1,1-1.83,2.47-2.26l6.41-1.92c2.07-.63,4.9-1,6.57-.28l18.2,8a2,2,0,0,1,1.36,1.76c0,.67-.39,1.66-2.33,2.56l-7.07,3.27A10,10,0,0,1,350.64,460.74ZM331.1,448.92l.21.12,17.55,9.38a6.87,6.87,0,0,0,5-.35l7.07-3.27a4.13,4.13,0,0,0,1-.64l0,0-18.2-8c-.92-.4-3.1-.25-5.19.37l-6.4,1.92A2.22,2.22,0,0,0,331.1,448.92Z"/><path class="cls-2" d="M337.57,466.49a6.35,6.35,0,0,1-3.18-.7l-17.06-10.23a2.14,2.14,0,0,1-1.19-2.13c.15-1,1.1-1.78,2.58-2.14l6.5-1.6c2-.5,4.93-.78,6.58,0l17.72,8.89a2,2,0,0,1,1.33,1.84c0,.67-.47,1.64-2.46,2.44l-7.21,2.92A9.76,9.76,0,0,1,337.57,466.49Zm-19.41-12.78.2.13q8.53,5.12,17.07,10.23a7,7,0,0,0,5-.1l7.21-2.93a4.12,4.12,0,0,0,1.08-.59h0l-17.78-8.92c-.9-.45-3.09-.41-5.2.11h0l-6.5,1.6A2.12,2.12,0,0,0,318.16,453.71Z"/><path class="cls-2" d="M324.22,471.45a6.87,6.87,0,0,1-3.65-.86L304,459.51a2.12,2.12,0,0,1-1.09-2.18c.2-1,1.18-1.72,2.68-2L312.2,454c2.14-.41,5-.53,6.57.37l17.31,9.79a1.93,1.93,0,0,1,1.18,1.89c-.06.66-.55,1.61-2.57,2.31L327.33,471A9.69,9.69,0,0,1,324.22,471.45ZM305,457.71a1,1,0,0,1,.2.13l16.53,11.08a7,7,0,0,0,5,.14l7.36-2.55a4.53,4.53,0,0,0,1.1-.54l0,0-17.3-9.78c-.9-.51-3.08-.56-5.2-.15L306,457.29A2.13,2.13,0,0,0,305,457.71Z"/><path class="cls-2" d="M310.62,475.75a7.78,7.78,0,0,1-4.6-1.27l-15.35-12.67a2.11,2.11,0,0,1-.85-2.28c.29-1,1.34-1.59,2.86-1.73l6.67-.62c2.15-.2,5,0,6.5,1l16.25,11.45a2,2,0,0,1,1,2c-.13.66-.72,1.55-2.79,2l-7.58,1.81A9,9,0,0,1,310.62,475.75Zm-18.86-15.64a1.15,1.15,0,0,1,.19.15l15.34,12.67a7.06,7.06,0,0,0,5,.64l7.57-1.81a4.41,4.41,0,0,0,1.15-.43l0,0-16.25-11.46c-.83-.58-3-.87-5.16-.66l-6.67.61A2.25,2.25,0,0,0,291.76,460.11Z"/><path class="cls-2" d="M296.71,479a8,8,0,0,1-5-1.53L277,464a2.13,2.13,0,0,1-.75-2.32c.35-.95,1.42-1.52,2.95-1.59l6.69-.28c2.18-.07,5,.22,6.44,1.35L308,473.44a1.93,1.93,0,0,1,.88,2c-.16.66-.79,1.51-2.89,1.9l-7.65,1.44A9.48,9.48,0,0,1,296.71,479Zm-18.54-16.58s.09.08.18.16L293,476a6.91,6.91,0,0,0,4.92.88l7.65-1.43a4,4,0,0,0,1.17-.36l0,0L291.1,462.76c-.8-.63-3-1-5.13-.92l-6.69.28A2.12,2.12,0,0,0,278.17,462.38Z"/><path class="cls-2" d="M282.64,481.33a8.35,8.35,0,0,1-5.45-1.78l-14-14.15a2.12,2.12,0,0,1-.62-2.36c.39-.93,1.44-1.41,3-1.44l6.7.07c2.07,0,5,.47,6.36,1.67l15,13.05a1.91,1.91,0,0,1,.78,2.07c-.19.65-.86,1.48-3,1.77l-7.72,1A8.22,8.22,0,0,1,282.64,481.33Zm-18.17-17.52.17.17,14,14.16c.72.73,3,1.38,4.87,1.14l7.72-1a3.81,3.81,0,0,0,1.18-.31l0,0-15-13c-.77-.66-2.9-1.16-5.07-1.18l-6.7-.06A2.51,2.51,0,0,0,264.47,463.81Z"/><path class="cls-2" d="M268.41,482.86c-2.23,0-4.72-.86-5.8-2.07L249.36,466a2.11,2.11,0,0,1-.5-2.38c.43-.91,1.5-1.42,3.09-1.29l6.69.41c2.16.12,4.94.71,6.26,2l14.33,13.79a1.92,1.92,0,0,1,.68,2.11c-.22.64-.94,1.43-3.07,1.61l-7.76.65Zm-17.72-18.43a1,1,0,0,1,.17.18l13.25,14.84a6.87,6.87,0,0,0,4.8,1.39l7.76-.65a3.94,3.94,0,0,0,1.2-.25l0,0-14.33-13.79c-.73-.71-2.83-1.31-5-1.44l-6.69-.41A2.24,2.24,0,0,0,250.69,464.43Z"/><path class="cls-2" d="M261.7,483.89h-.14l-7.79-.15c-2.39,0-5.18-1.25-6.22-2.69q-5.85-8-11.68-16.1a2.12,2.12,0,0,1-.27-2.42c.53-.87,1.69-1.22,3.21-1l6.61,1.08c2.14.35,4.86,1.22,6,2.62l12.85,15.17a1.93,1.93,0,0,1,.46,2.17C264.49,483.19,263.73,483.89,261.7,483.89Zm-24.35-20.32a1.41,1.41,0,0,1,.14.2q5.83,8.06,11.68,16.1c.6.84,2.76,1.83,4.64,1.87l7.78.14a5.25,5.25,0,0,0,1.22-.12l0,0-12.85-15.18c-.66-.77-2.69-1.58-4.83-1.93l-6.61-1.08A2.29,2.29,0,0,0,237.35,463.57Z"/><path class="cls-2" d="M247.34,484l-.58,0-7.77-.54c-2.37-.16-5.1-1.51-6.08-3l-10.83-16.69a2.11,2.11,0,0,1-.15-2.43c.57-.83,1.75-1.13,3.26-.8l6.54,1.42h0c2.13.45,4.79,1.46,5.9,2.92l12.06,15.81a1.92,1.92,0,0,1,.35,2.19C249.75,483.4,249.05,484,247.34,484Zm-23.72-21.55a1.7,1.7,0,0,1,.13.21l10.84,16.68a7,7,0,0,0,4.54,2.1l7.77.54a4.33,4.33,0,0,0,1.22-.06l0,0L236,466.08c-.61-.81-2.59-1.72-4.72-2.18h0l-6.54-1.42A2.4,2.4,0,0,0,223.62,462.45Z"/><path class="cls-2" d="M232.91,483.26a7.56,7.56,0,0,1-.91-.06l-7.74-.94c-2.36-.28-5-1.76-5.9-3.31l-10-17.21a2.1,2.1,0,0,1,0-2.43c.6-.8,1.8-1,3.28-.63l6.47,1.74c2.09.56,4.7,1.7,5.73,3.21L235.1,480a2,2,0,0,1,.24,2.21A2.61,2.61,0,0,1,232.91,483.26ZM210,460.53a1,1,0,0,1,.12.21l10,17.21a7,7,0,0,0,4.41,2.32l7.74.94a3.86,3.86,0,0,0,1.23,0l0,0-11.25-16.4c-.57-.83-2.51-1.85-4.6-2.41l-6.47-1.75A2.25,2.25,0,0,0,210,460.53Z"/><path class="cls-2" d="M218.51,481.65a6.93,6.93,0,0,1-1.2-.11l-7.67-1.32c-2.35-.41-4.93-2-5.74-3.61l-9.1-17.7a2.13,2.13,0,0,1,.12-2.43c.65-.77,1.85-.94,3.31-.46l6.37,2.07c2.06.67,4.61,1.94,5.57,3.51l10.4,16.95a1.93,1.93,0,0,1,.12,2.21A2.41,2.41,0,0,1,218.51,481.65Zm-22-23.87s.05.1.11.21l9.09,17.7a7,7,0,0,0,4.3,2.55l7.67,1.32a4.06,4.06,0,0,0,1.23.07l0,0-10.4-16.95c-.53-.86-2.41-2-4.48-2.64l-6.36-2.08A2.23,2.23,0,0,0,196.48,457.78Z"/><path class="cls-2" d="M204.2,479.2a7,7,0,0,1-1.43-.18l-7.6-1.71c-2.33-.52-4.83-2.27-5.55-3.89l-8.19-18.13a2.14,2.14,0,0,1,.22-2.43c.7-.73,1.91-.84,3.34-.29l6.26,2.39c2,.77,4.5,2.17,5.38,3.78l9.54,17.45a2,2,0,0,1,0,2.22A2.32,2.32,0,0,1,204.2,479.2Zm-21-25a1.23,1.23,0,0,1,.1.22l8.19,18.13a7,7,0,0,0,4.17,2.76l7.6,1.71a3.53,3.53,0,0,0,1.21.12s0,0,0,0l-9.54-17.46c-.48-.88-2.31-2.09-4.34-2.86h0l-6.26-2.39A2.2,2.2,0,0,0,183.15,454.24Z"/><path class="cls-2" d="M189.55,476.3a5.68,5.68,0,0,1-1.82-.34l-7.39-2.46c-2.26-.75-4.57-2.74-5.14-4.42l-6.35-18.86a2.13,2.13,0,0,1,.47-2.39c.76-.66,2-.64,3.36,0l6,3c1.94,1,4.26,2.6,5,4.29l7.75,18.32a1.94,1.94,0,0,1-.21,2.22A2.11,2.11,0,0,1,189.55,476.3Zm-18.88-26.95a.91.91,0,0,1,.08.23l6.35,18.86A7,7,0,0,0,181,471.6l7.39,2.46a4,4,0,0,0,1.2.24l0,0-7.74-18.32c-.4-.93-2.1-2.31-4-3.28l-6-3A2.24,2.24,0,0,0,170.67,449.35Z"/><path class="cls-2" d="M175.59,472a5.71,5.71,0,0,1-2-.43l-7.25-2.83c-2.23-.87-4.43-3-4.91-4.67l-5.4-19.16a2.11,2.11,0,0,1,.6-2.36c.79-.62,2-.54,3.34.2l5.83,3.3c1.89,1.07,4.13,2.82,4.76,4.54l6.82,18.69a1.92,1.92,0,0,1-.32,2.19A2,2,0,0,1,175.59,472Zm-17.68-27.87a.78.78,0,0,1,.07.24l5.4,19.15a7,7,0,0,0,3.71,3.35l7.25,2.82a3.77,3.77,0,0,0,1.19.31s0,0,0,0l-6.82-18.68c-.35-.95-2-2.42-3.87-3.48L159,444.5A2,2,0,0,0,157.91,444.13Z"/><path class="cls-2" d="M161.93,466.88a5.28,5.28,0,0,1-2.12-.55l-7.1-3.17c-2.18-1-4.28-3.17-4.68-4.9l-4.45-19.4a2.13,2.13,0,0,1,.7-2.33c.82-.58,2-.45,3.33.37l5.66,3.58c1.74,1.09,4,3,4.54,4.76l5.9,19a1.84,1.84,0,0,1-1.78,2.64Zm-16.46-28.7s0,.11.06.23l4.45,19.4a7,7,0,0,0,3.55,3.52l7.1,3.17a4,4,0,0,0,1.18.37s0,0,0,0l-5.9-19c-.3-1-1.86-2.52-3.69-3.67l-5.66-3.57a2.14,2.14,0,0,0-1.06-.42Z"/><path class="cls-2" d="M148.56,461a5,5,0,0,1-2.21-.64l-6.95-3.53c-2.13-1.07-4.12-3.38-4.43-5.13l-3.5-19.59a2.12,2.12,0,0,1,.83-2.29c.85-.54,2-.34,3.31.54l5.47,3.84c1.78,1.25,3.84,3.21,4.3,5l5,19.26a1.82,1.82,0,0,1-1.77,2.55ZM133.4,431.48s0,.12,0,.24l3.49,19.59A6.94,6.94,0,0,0,140.3,455l6.95,3.53a4.47,4.47,0,0,0,1.15.42v0l-5-19.26c-.25-1-1.73-2.6-3.5-3.85L134.45,432A2.27,2.27,0,0,0,133.4,431.48Z"/><path class="cls-2" d="M135,454.5a4.55,4.55,0,0,1-2.39-.87L126,449.46c-2-1.28-3.76-3.76-3.91-5.54l-1.58-19.84a2.12,2.12,0,0,1,1-2.2c.9-.46,2.07-.14,3.24.85l5.07,4.36c1.65,1.42,3.51,3.58,3.79,5.38l3.07,19.65a1.94,1.94,0,0,1-.74,2.1A1.83,1.83,0,0,1,135,454.5Zm-12.46-30.82a1.36,1.36,0,0,1,0,.24l1.58,19.84a6.94,6.94,0,0,0,3,4l6.57,4.18a4.17,4.17,0,0,0,1.1.53v0l-3.07-19.65c-.16-1-1.46-2.75-3.11-4.16l-5.08-4.36A2.3,2.3,0,0,0,122.49,423.68Z"/><path class="cls-2" d="M122.44,446.91a4.47,4.47,0,0,1-2.46-1l-6.36-4.5c-2-1.37-3.58-3.94-3.63-5.72l-.62-19.88a2.12,2.12,0,0,1,1.14-2.16c.92-.41,2.08,0,3.2,1l4.86,4.6c1.58,1.5,3.33,3.74,3.52,5.56l2.12,19.77a2,2,0,0,1-.83,2.06A1.88,1.88,0,0,1,122.44,446.91Zm-11.08-31.39a1.36,1.36,0,0,1,0,.24l.62,19.89a7,7,0,0,0,2.79,4.14l6.36,4.5a4.17,4.17,0,0,0,1.08.58v-.05l-2.12-19.77c-.11-1-1.33-2.81-2.91-4.31l-4.87-4.6A2.21,2.21,0,0,0,111.36,415.52Z"/><path class="cls-2" d="M110.39,438.61a4.27,4.27,0,0,1-2.51-1.11l-6.14-4.79c-1.88-1.46-3.39-4.1-3.36-5.89l.34-19.9a2.14,2.14,0,0,1,1.25-2.09c.92-.37,2.08.06,3.15,1.16l4.63,4.84c1.5,1.57,3.15,3.89,3.25,5.72l1.15,19.85a1.9,1.9,0,0,1-.93,2A1.78,1.78,0,0,1,110.39,438.61Zm-9.66-31.89a.83.83,0,0,1,0,.23l-.34,19.91a6.87,6.87,0,0,0,2.58,4.26l6.14,4.8a4.33,4.33,0,0,0,1,.63v0L109,416.66c-.06-1-1.19-2.88-2.7-4.45l-4.63-4.83A2.08,2.08,0,0,0,100.73,406.72Z"/><path class="cls-2" d="M98.12,429.79a4,4,0,0,1-2.59-1.35l-5.65-5.36c-1.73-1.65-3-4.42-2.77-6.18l2.24-19.77a2.13,2.13,0,0,1,1.45-2c1-.29,2.07.26,3,1.46L98,401.87c1.35,1.7,2.76,4.17,2.69,6l-.75,19.87a1.92,1.92,0,0,1-1.13,1.91A1.6,1.6,0,0,1,98.12,429.79Zm-6.75-32.68s0,.12,0,.24L89.1,417.12a6.91,6.91,0,0,0,2.17,4.5L96.91,427a4,4,0,0,0,1,.72,0,0,0,0,1,0,0l.75-19.88c0-1-.91-3-2.26-4.69h0l-4.15-5.25A2.15,2.15,0,0,0,91.37,397.11Z"/><path class="cls-2" d="M87.21,420a3.85,3.85,0,0,1-2.61-1.47l-5.38-5.63c-1.66-1.73-2.77-4.56-2.48-6.31L79.92,387a2.11,2.11,0,0,1,1.54-1.89c1-.22,2.05.36,2.94,1.6l3.89,5.44c1.27,1.77,2.57,4.31,2.41,6.13L89,418.05a2,2,0,0,1-1.22,1.86A1.61,1.61,0,0,1,87.21,420Zm-5.28-33a.92.92,0,0,1,0,.24l-3.18,19.64a7,7,0,0,0,1.94,4.6l5.39,5.63a4.26,4.26,0,0,0,.94.77.06.06,0,0,0,0,0l1.7-19.81c.08-1-.77-3-2-4.79l-3.89-5.45A2.2,2.2,0,0,0,81.93,387Z"/><path class="cls-2" d="M76.88,409.62a3.69,3.69,0,0,1-2.62-1.6l-5.11-5.88c-1.57-1.79-2.54-4.67-2.18-6.42l4.13-19.47a2.12,2.12,0,0,1,1.63-1.81c1-.16,2,.45,2.86,1.74l3.63,5.62c1.17,1.83,2.34,4.42,2.1,6.23l-2.64,19.72a2,2,0,0,1-1.31,1.8A1.87,1.87,0,0,1,76.88,409.62Zm-3.77-33.19a.82.82,0,0,1,0,.24l-4.13,19.46a7,7,0,0,0,1.73,4.69l5.11,5.88a3.74,3.74,0,0,0,.91.82v0l2.64-19.71c.13-1-.62-3-1.8-4.88l-3.63-5.62A2.21,2.21,0,0,0,73.11,376.43Z"/><path class="cls-2" d="M67.16,398.65c-.64,0-1.54-.36-2.62-1.73l-4.82-6.11c-1.48-1.88-2.32-4.8-1.86-6.52L62.92,365a2.13,2.13,0,0,1,1.7-1.73c1-.16,2,.55,2.78,1.87l3.36,5.8c1.08,1.88,2.12,4.53,1.8,6.33L69,396.87a1.93,1.93,0,0,1-1.39,1.73A1.64,1.64,0,0,1,67.16,398.65Zm-2.24-33.33a1.57,1.57,0,0,1-.06.23L59.79,384.8a7,7,0,0,0,1.5,4.77l4.82,6.11a3.87,3.87,0,0,0,.87.86,0,0,0,0,1,0,0L70.58,377c.18-1-.48-3.08-1.56-5l-3.35-5.79A2.37,2.37,0,0,0,64.92,365.32Z"/><path class="cls-2" d="M57.42,387.09c-.66,0-1.59-.38-2.62-2l-4.21-6.55c-1.29-2-1.85-5-1.23-6.66l6.89-18.67a2.12,2.12,0,0,1,1.86-1.57c1.09,0,2,.74,2.59,2.13l2.78,6.1c.9,2,1.68,4.7,1.18,6.47l-5.45,19.12a1.93,1.93,0,0,1-1.55,1.59A1,1,0,0,1,57.42,387.09Zm.79-33.4a1.26,1.26,0,0,1-.08.23l-6.89,18.67a6.94,6.94,0,0,0,1,4.88L56.49,384a3.92,3.92,0,0,0,.78.94s0,0,0,0l5.45-19.12c.28-1-.17-3.12-1.07-5.09l-2.78-6.09A2.15,2.15,0,0,0,58.21,353.69Z"/><path class="cls-2" d="M49.16,375c-.66,0-1.61-.4-2.6-2.11l-3.88-6.75c-1.2-2.06-1.6-5.08-.91-6.72l7.8-18.31a2.12,2.12,0,0,1,1.91-1.47h0c1,0,1.92.83,2.48,2.26l2.49,6.22c.8,2,1.45,4.79.86,6.51L51,373.44A2,2,0,0,1,49.32,375Zm2.35-33.32s0,.11-.1.22l-7.79,18.31a7,7,0,0,0,.8,4.93l3.88,6.75a4.06,4.06,0,0,0,.73,1l0,0L55.43,354c.33-.95,0-3.11-.82-5.13l-2.49-6.22A2.28,2.28,0,0,0,51.51,341.65Z"/><path class="cls-2" d="M41.64,362.39c-.67,0-1.64-.41-2.58-2.24l-3.55-6.92c-1.09-2.13-1.34-5.16-.57-6.76l8.67-17.91a2.07,2.07,0,0,1,2-1.37c1,.06,1.86.92,2.36,2.37l2.17,6.33c.71,2.05,1.22,4.85.55,6.56L43.42,361a1.94,1.94,0,0,1-1.71,1.43Zm3.88-33.18a1.1,1.1,0,0,1-.1.22l-8.67,17.91c-.46.93-.31,3.3.54,5l3.56,6.93a4.17,4.17,0,0,0,.68,1,.08.08,0,0,0,0,0l7.29-18.5c.37-.94.13-3.12-.58-5.17l-2.17-6.33A2.25,2.25,0,0,0,45.52,329.21Z"/><path class="cls-2" d="M34.86,349.39c-.67,0-1.65-.41-2.54-2.36l-3.21-7.1c-1-2.18-1.09-5.22-.24-6.77l9.54-17.47a2.13,2.13,0,0,1,2.08-1.27c1,.11,1.82,1,2.25,2.49l1.86,6.43c.6,2.09,1,4.91.23,6.57L36.63,348a2,2,0,0,1-1.76,1.35Zm5.43-32.95s-.06.11-.11.21l-9.54,17.47c-.5.9-.47,3.27.3,5l3.21,7.1a4.21,4.21,0,0,0,.63,1l0,0L43,329.09c.41-.92.27-3.1-.33-5.19h0l-1.86-6.43A2.18,2.18,0,0,0,40.29,316.44Z"/><path class="cls-2" d="M28.21,335.78h-.16c-.67-.07-1.61-.57-2.29-2.6l-2.5-7.37c-.76-2.27-.57-5.3.43-6.77l11.22-16.44a2.13,2.13,0,0,1,2.19-1.06c1,.2,1.71,1.19,2,2.69l1.21,6.59c.4,2.13.5,5-.42,6.56L29.94,334.6A2,2,0,0,1,28.21,335.78Zm8.49-32.26a1,1,0,0,1-.13.2L25.35,320.16a7,7,0,0,0-.19,5l2.5,7.37a4,4,0,0,0,.52,1.1l0,0,10-17.23c.5-.88.58-3.06.18-5.2h0l-1.21-6.58A2.18,2.18,0,0,0,36.7,303.52Z"/><path class="cls-2" d="M23.16,322l-.25,0c-.66-.1-1.57-.65-2.15-2.71l-2.13-7.49c-.65-2.29-.31-5.32.76-6.73l12-15.86a2.11,2.11,0,0,1,2.24-1c1,.26,1.65,1.27,1.86,2.79l.89,6.64c.27,2,.25,5-.75,6.53L24.87,320.91A2,2,0,0,1,23.16,322Zm10-31.79s-.08.09-.15.19L21,306.26a6.92,6.92,0,0,0-.43,5l2.13,7.49a4,4,0,0,0,.47,1.14.05.05,0,0,1,0,0L34,303.11c.55-.86.74-3,.45-5.18h0l-.89-6.63A2.22,2.22,0,0,0,33.16,290.21Z"/><path class="cls-2" d="M18.92,308a2.69,2.69,0,0,1-.32,0c-1-.2-1.64-1.14-2-2.82l-1.74-7.59c-.53-2.32,0-5.32,1.1-6.68l12.8-15.24a2.12,2.12,0,0,1,2.29-.84c1,.31,1.59,1.36,1.71,2.89l.56,6.67c.18,2.16,0,5-1.08,6.49L20.6,306.94A2.08,2.08,0,0,1,18.92,308Zm11.5-31.26s-.07.09-.15.19L17.46,292.11a7.05,7.05,0,0,0-.67,4.95l1.74,7.59a4.11,4.11,0,0,0,.42,1.16l0,0,11.6-16.15c.59-.82.88-3,.71-5.15l-.56-6.67A2.09,2.09,0,0,0,30.42,276.69Z"/><path class="cls-2" d="M15.53,293.68a1.55,1.55,0,0,1-.41-.06c-.65-.16-1.5-.8-1.87-2.91l-1.36-7.66c-.43-2.35.22-5.32,1.43-6.63l13.55-14.57a2.13,2.13,0,0,1,2.33-.73c.94.35,1.51,1.44,1.56,3l.22,6.69c.07,2.17-.26,5-1.4,6.43L17.17,292.76A2.08,2.08,0,0,1,15.53,293.68Zm13-30.64-.17.18L14.79,277.78a7,7,0,0,0-.93,4.91l1.36,7.67a4,4,0,0,0,.36,1.18l0,0L28,276c.63-.79,1-2.94,1-5.12l1,0-1-.07-.21-6.59A2.27,2.27,0,0,0,28.51,263Z"/><path class="cls-2" d="M12.39,278.83a1.65,1.65,0,0,1-.56-.1c-.63-.23-1.42-1-1.58-3.08l-.58-7.77c-.18-2.39.76-5.28,2.1-6.45l15-13.12a2.12,2.12,0,0,1,2.39-.49c.9.45,1.36,1.58,1.25,3.1l-.46,6.68c-.14,2.17-.76,4.95-2,6.26L13.94,278.07A2.15,2.15,0,0,1,12.39,278.83Zm15.84-29.18s-.09.08-.18.16l-15,13.13a6.91,6.91,0,0,0-1.42,4.78l.58,7.78a3.72,3.72,0,0,0,.24,1.19l0,0,13.92-14.21c.7-.73,1.32-2.83,1.47-5h0l.46-6.69A2.24,2.24,0,0,0,28.23,249.65Z"/><path class="cls-2" d="M10.85,264.22a1.53,1.53,0,0,1-.64-.13c-.9-.38-1.38-1.44-1.43-3.16q-.07-3.9-.18-7.79c0-2.39,1-5.24,2.44-6.33l15.6-12.35a2.15,2.15,0,0,1,2.41-.36c.88.5,1.28,1.65,1.09,3.17l-.8,6.65c-.26,2.15-1,4.9-2.36,6.13L12.36,263.54A2.23,2.23,0,0,1,10.85,264.22Zm17.22-28.33a1.73,1.73,0,0,1-.19.15l-15.6,12.34a6.91,6.91,0,0,0-1.67,4.71c.07,2.6.13,5.19.18,7.79a3.7,3.7,0,0,0,.18,1.21l0,0,14.62-13.48c.74-.68,1.47-2.74,1.73-4.9l.8-6.65A2.12,2.12,0,0,0,28.07,235.89Z"/><path class="cls-2" d="M10.17,249.55a1.53,1.53,0,0,1-.72-.17c-.6-.29-1.31-1.09-1.26-3.23l.22-7.78c.06-2.38,1.29-5.16,2.74-6.2l16.21-11.54a2.13,2.13,0,0,1,2.43-.24c.85.54,1.19,1.71.93,3.22l-1.14,6.6c-.36,2.14-1.26,4.84-2.67,6L11.63,248.94A2.26,2.26,0,0,1,10.17,249.55Zm18.55-27.43s-.09.08-.2.14L12.31,233.8a6.92,6.92,0,0,0-1.89,4.62l-.22,7.79a3.74,3.74,0,0,0,.12,1.22s0,0,0,0l15.28-12.72c.78-.65,1.61-2.67,2-4.81h0l1.14-6.59A2.19,2.19,0,0,0,28.72,222.12Z"/><path class="cls-2" d="M10.35,234.87a1.75,1.75,0,0,1-.79-.2c-.59-.33-1.26-1.16-1.1-3.29l.62-7.77c.18-2.38,1.55-5.1,3.06-6.05l16.78-10.69a2.12,2.12,0,0,1,2.43-.12c.82.58,1.1,1.77.76,3.26l-1.47,6.53c-.47,2.12-1.5,4.77-3,5.87L11.75,234.33A2.3,2.3,0,0,1,10.35,234.87ZM30.2,208.43a2.33,2.33,0,0,1-.21.13L13.21,219.25a6.92,6.92,0,0,0-2.13,4.52l-.62,7.76a4,4,0,0,0,.06,1.22l0,0,15.92-11.92c.81-.61,1.74-2.59,2.22-4.71h0l1.47-6.53A2.28,2.28,0,0,0,30.2,208.43Z"/><path class="cls-2" d="M10.83,219.68a1.73,1.73,0,0,1-1-.29c-.55-.38-1.13-1.28-.74-3.39l1.39-7.65c.43-2.35,2.06-4.92,3.65-5.72L32,193.69a2.13,2.13,0,0,1,2.43.13c.76.66.92,1.87.44,3.32l-2.13,6.35c-.69,2.06-2,4.59-3.55,5.54l-17,10.25A2.4,2.4,0,0,1,10.83,219.68Zm22.24-24.31a1.21,1.21,0,0,1-.21.11l-17.78,9c-.93.46-2.25,2.43-2.59,4.27l-1.39,7.66a3.7,3.7,0,0,0-.07,1.22l0,0,17-10.25c.87-.52,2-2.4,2.69-4.45l2.13-6.36A2.23,2.23,0,0,0,33.07,195.37Z"/><path class="cls-2" d="M12.92,205.14a1.65,1.65,0,0,1-1-.34c-.53-.41-1.06-1.33-.58-3.42l1.78-7.58c.53-2.32,2.3-4.8,3.93-5.52l18.21-8a2.11,2.11,0,0,1,2.42.25c.72.69.82,1.91.27,3.34l-2.45,6.24c-.79,2-2.21,4.49-3.83,5.35l-17.53,9.39A2.59,2.59,0,0,1,12.92,205.14ZM36.26,182l-.22.09-18.21,8A7,7,0,0,0,15,194.25l-1.77,7.59a4.06,4.06,0,0,0-.14,1.22.05.05,0,0,1,0,0l17.53-9.39c.89-.47,2.11-2.29,2.9-4.31l2.45-6.24A2.19,2.19,0,0,0,36.26,182Z"/><path class="cls-2" d="M15.87,190.76a1.66,1.66,0,0,1-1.1-.4c-.52-.43-1-1.39-.41-3.44l2.15-7.49c.66-2.28,2.54-4.67,4.21-5.31L39.3,167a2.14,2.14,0,0,1,2.41.38c.69.73.73,2,.1,3.35l-2.75,6.1c-.89,2-2.43,4.38-4.09,5.16l-18,8.49A2.65,2.65,0,0,1,15.87,190.76Zm24.37-22s-.11.05-.22.09L21.44,176a7,7,0,0,0-3,4l-2.16,7.48a3.9,3.9,0,0,0-.19,1.21h0l18-8.5c.92-.43,2.23-2.18,3.12-4.16L40,169.9A2.06,2.06,0,0,0,40.24,168.79Z"/><path class="cls-2" d="M19.68,176.58a1.69,1.69,0,0,1-1.19-.45c-.49-.46-.92-1.43-.23-3.46l2.52-7.36c.76-2.26,2.77-4.55,4.46-5.11L44.16,154a2.1,2.1,0,0,1,2.39.49c.65.77.63,2-.08,3.35l-3,6c-1,1.93-2.66,4.24-4.35,4.94L20.7,176.36A2.68,2.68,0,0,1,19.68,176.58ZM45,155.86a2,2,0,0,1-.22.07l-18.92,6.18A6.9,6.9,0,0,0,22.68,166l-2.52,7.37a3.94,3.94,0,0,0-.26,1.2l0,0,18.39-7.58c.93-.39,2.33-2.07,3.32-4h0l3-6A2.08,2.08,0,0,0,45,155.86Z"/><path class="cls-2" d="M23.93,162a1.74,1.74,0,0,1-1.36-.58c-.43-.51-.77-1.52.12-3.46l3.23-7.08c1-2.17,3.22-4.25,4.95-4.63L50.3,142a2.14,2.14,0,0,1,2.33.74c.57.82.43,2-.4,3.32l-3.63,5.63c-1.11,1.74-3,4-4.8,4.49l-19,5.74A3,3,0,0,1,23.93,162Zm27-18.14a1,1,0,0,1-.24,0L31.3,148.21a7,7,0,0,0-3.55,3.52l-3.24,7.07a3.77,3.77,0,0,0-.37,1.17h0l19-5.74c1-.29,2.53-1.83,3.7-3.65h0l3.62-5.63A2.16,2.16,0,0,0,51,143.87Z"/><path class="cls-2" d="M29.55,148.45a1.76,1.76,0,0,1-1.43-.65c-.42-.53-.71-1.56.28-3.45L32,137.43c1.1-2.12,3.42-4.09,5.17-4.39l19.62-3.32a2.14,2.14,0,0,1,2.29.84c.53.85.32,2.06-.57,3.3l-3.89,5.45c-1.2,1.68-3.23,3.8-5,4.24l-19.31,4.8A2.88,2.88,0,0,1,29.55,148.45Zm27.79-16.79-.24,0L37.49,135a7,7,0,0,0-3.73,3.33l-3.58,6.92a4.21,4.21,0,0,0-.43,1.14h0l19.31-4.8c1-.24,2.61-1.7,3.87-3.47l3.89-5.45A2,2,0,0,0,57.34,131.66Z"/><path class="cls-2" d="M36,135.25a1.8,1.8,0,0,1-1.52-.71c-.39-.55-.63-1.59.44-3.45l3.92-6.73c1.2-2.06,3.61-3.91,5.37-4.13L64,117.87a2.14,2.14,0,0,1,2.25.95c.49.88.23,2.07-.72,3.27l-4.16,5.25c-1.35,1.7-3.43,3.64-5.23,4l-19.51,3.85A3.38,3.38,0,0,1,36,135.25Zm28.45-15.42a1.62,1.62,0,0,1-.24,0l-19.76,2.37a6.94,6.94,0,0,0-3.88,3.14l-3.91,6.73a3.65,3.65,0,0,0-.48,1.13h0l19.52-3.85c1-.2,2.69-1.57,4-3.28l4.17-5.25A2.15,2.15,0,0,0,64.43,119.83Z"/><path class="cls-2" d="M43.18,122.46a1.79,1.79,0,0,1-1.62-.8c-.37-.56-.56-1.61.61-3.41l4.23-6.53c1.3-2,3.8-3.74,5.58-3.86l19.85-1.41a2.08,2.08,0,0,1,2.2,1.06c.44.91.12,2.08-.89,3.23l-4.4,5c-1.43,1.64-3.6,3.48-5.42,3.74l-19.67,2.9A4.26,4.26,0,0,1,43.18,122.46Zm29-14H72q-9.93.7-19.84,1.41a6.9,6.9,0,0,0-4,3l-4.24,6.53a4.31,4.31,0,0,0-.54,1.1h0L63,117.54c1-.15,2.77-1.44,4.19-3.08h0l4.41-5A2.19,2.19,0,0,0,72.21,108.44Z"/><path class="cls-2" d="M51,109.43a1.88,1.88,0,0,1-1.83-1c-.31-.6-.39-1.66.94-3.34L54.94,99a9.18,9.18,0,0,1,5.92-3.31l19.89.51a2.13,2.13,0,0,1,2.08,1.27c.36.94-.08,2.08-1.19,3.13l-4.87,4.59c-1.57,1.49-3.91,3.11-5.74,3.21l-19.87,1Zm9.79-11.69a7,7,0,0,0-4.26,2.55l-4.85,6.09a4,4,0,0,0-.64,1.05h0l19.86-1c1-.05,2.9-1.17,4.47-2.65h0l4.88-4.6a2.3,2.3,0,0,0,.67-.92s-.13,0-.24,0l-19.89-.51Z"/><path class="cls-2" d="M59.79,97.66a1.91,1.91,0,0,1-1.94-1c-.28-.62-.32-1.68,1.09-3.3l5.14-5.85c1.57-1.79,4.41-3.16,6.07-3L90,85.92a2.12,2.12,0,0,1,2,1.36c.32,1-.17,2.07-1.33,3.08l-5.1,4.35c-1.64,1.41-4.06,2.91-5.89,2.92l-19.89,0Zm0-2h0l19.9,0c1,0,3-1,4.59-2.44l5.09-4.35a2.21,2.21,0,0,0,.72-.89c-.06,0-.13,0-.24,0L70,86.45c-1.09-.12-3.18.93-4.41,2.34l-5.14,5.86A4.13,4.13,0,0,0,59.76,95.66Z"/><path class="cls-2" d="M89.14,87.36H89l-19.87-.92a1.94,1.94,0,0,1-1.91-1.14c-.25-.62-.24-1.69,1.25-3.24l5.41-5.6c1.66-1.72,4.4-2.93,6.22-2.72l19.74,2.42a2.11,2.11,0,0,1,2,1.45c.27,1-.27,2.07-1.48,3L95,84.71C93.42,86,91,87.36,89.14,87.36Zm-20-2.94h0l19.87.93c1,.14,3-.89,4.7-2.22h0L99.07,79a2.21,2.21,0,0,0,.76-.86,1.09,1.09,0,0,0-.24,0L79.84,75.72a6.94,6.94,0,0,0-4.53,2.13l-5.4,5.6A4.33,4.33,0,0,0,69.17,84.42Z"/><path class="cls-2" d="M99.21,77.65l-.36,0L79.06,75.76a1.94,1.94,0,0,1-1.85-1.23c-.22-.64-.16-1.7,1.41-3.17L84.28,66c1.74-1.64,4.58-2.73,6.34-2.42L110.23,67a2.12,2.12,0,0,1,1.88,1.55c.22,1-.37,2-1.62,2.94L105,75.29C103.34,76.46,101,77.65,99.21,77.65Zm-20-3.89h0L99,75.63a9.6,9.6,0,0,0,4.81-2l5.48-3.85a2.09,2.09,0,0,0,.8-.82l-.24,0L90.28,65.57a7.09,7.09,0,0,0-4.62,1.91L80,72.82A4.17,4.17,0,0,0,79.21,73.76Z"/><path class="cls-2" d="M109.82,68.86a4.79,4.79,0,0,1-.77-.07L89.52,65a1.93,1.93,0,0,1-1.72-1.4c-.16-.65,0-1.71,1.71-3l6.15-4.77c1.89-1.46,4.82-2.28,6.54-1.8l19.19,5.22A2.14,2.14,0,0,1,123.12,61c.13,1-.56,2-1.9,2.77L115.39,67A12.67,12.67,0,0,1,109.82,68.86ZM89.87,63h0l19.53,3.77c1,.16,3.09-.46,5-1.52L120.23,62a2.2,2.2,0,0,0,.87-.74h0a1.57,1.57,0,0,1-.23-.06L101.67,56a7,7,0,0,0-4.78,1.46l-6.16,4.77A3.7,3.7,0,0,0,89.87,63Z"/><path class="cls-2" d="M121.1,60.5a4.14,4.14,0,0,1-1-.11L100.75,55.7a1.94,1.94,0,0,1-1.65-1.49c-.13-.66.09-1.7,1.84-2.93l6.38-4.47c2-1.37,4.94-2,6.62-1.49l18.92,6.14a2.14,2.14,0,0,1,1.64,1.81c.07,1-.66,2-2,2.66l-6,3A13.11,13.11,0,0,1,121.1,60.5Zm-19.92-6.76h0l19.33,4.69c1,.25,3.09-.3,5-1.28h0l6-3a2.2,2.2,0,0,0,.9-.69,1.15,1.15,0,0,0-.23-.08l-18.92-6.14a6.84,6.84,0,0,0-4.84,1.22l-6.39,4.47A3.91,3.91,0,0,0,101.18,53.74Z"/><path class="cls-2" d="M132.86,52.82a4.39,4.39,0,0,1-1.29-.16L112.49,47a1.94,1.94,0,0,1-1.58-1.57c-.09-.66.18-1.69,2-2.83l6.59-4.16c2-1.27,5-1.79,6.67-1.16l16.36,6.2,2.25.85a2.12,2.12,0,0,1,1.55,1.88c0,1-.75,1.95-2.16,2.57l-6.11,2.72A14,14,0,0,1,132.86,52.82ZM113,45.1h0l19.08,5.63c1,.28,3.11-.16,5.09-1L143.35,47a2.24,2.24,0,0,0,.94-.66,1.25,1.25,0,0,1-.22-.08l-2.26-.86-16.36-6.2a6.94,6.94,0,0,0-4.89,1L114,44.32A3.82,3.82,0,0,0,113,45.1Z"/><path class="cls-2" d="M145.21,46.1a5.39,5.39,0,0,1-2-.33l-18.44-7.44a2,2,0,0,1-1.42-1.72c0-.67.34-1.67,2.25-2.63l7-3.49c2.12-1.08,5.16-1.31,6.75-.53l17.85,8.84a2.12,2.12,0,0,1,1.35,2c-.07,1-.94,1.86-2.4,2.34l-6.35,2.12A14.93,14.93,0,0,1,145.21,46.1Zm-19.77-9.65,0,0,18.45,7.45c.93.37,3.11.15,5.17-.54l6.35-2.12a2.2,2.2,0,0,0,1-.56.7.7,0,0,1-.21-.11L138.4,31.76a7,7,0,0,0-5,.52l-7,3.49A4.29,4.29,0,0,0,125.44,36.45Z"/><path class="cls-2" d="M158,40a6.12,6.12,0,0,1-2.49-.44L137.5,31.23a2,2,0,0,1-1.34-1.78c0-.68.43-1.66,2.39-2.52l7.11-3.15c2.18-1,5.22-1.06,6.78-.18l17.38,9.68a2.11,2.11,0,0,1,1.26,2.08c-.11,1-1,1.81-2.5,2.23l-6.45,1.81A16.17,16.17,0,0,1,158,40ZM138.3,29.39h0l18,8.35c.92.43,3.1.31,5.2-.28h0L168,35.66a2.32,2.32,0,0,0,1-.51s-.11-.06-.21-.12l-17.38-9.68c-.9-.51-3.29-.5-5,.26l-7.11,3.15A4.25,4.25,0,0,0,138.3,29.39Z"/><path class="cls-2" d="M171.3,34.69a6.83,6.83,0,0,1-3-.58l-17.62-9.23A1.93,1.93,0,0,1,149.41,23c0-.67.5-1.63,2.5-2.4l7.27-2.79c2.22-.87,5.27-.8,6.78.15l16.88,10.54A2.11,2.11,0,0,1,184,30.68c-.17,1-1.12,1.76-2.61,2.1l-6.53,1.48A16.27,16.27,0,0,1,171.3,34.69Zm-19.75-11.6,0,0,17.61,9.22c.9.47,3.08.46,5.2,0h0l6.53-1.48a2.38,2.38,0,0,0,1-.46,1.94,1.94,0,0,1-.2-.13L164.9,19.7a7,7,0,0,0-5,0l-7.26,2.79A3.73,3.73,0,0,0,151.55,23.09Z"/><path class="cls-2" d="M185,30.16a7.37,7.37,0,0,1-3.65-.75L164.16,19.33a1.93,1.93,0,0,1-1.15-1.9c.07-.67.58-1.6,2.61-2.28l7.4-2.43c2.26-.75,5.3-.53,6.77.49l16.33,11.36a2.13,2.13,0,0,1,1,2.2c-.22,1-1.21,1.7-2.72,2l-6.59,1.16A18.1,18.1,0,0,1,185,30.16ZM165.14,17.58l0,0,17.14,10.09c.87.51,3.06.61,5.19.23l6.59-1.16a2.16,2.16,0,0,0,1.08-.41,1.94,1.94,0,0,1-.2-.13L178.64,14.86a6.92,6.92,0,0,0-5-.23l-7.4,2.43A3.7,3.7,0,0,0,165.14,17.58Z"/><path class="cls-2" d="M199.37,26.79a9.37,9.37,0,0,1-5.15-1.18L178.17,13.87a2,2,0,0,1-1-2c.14-.66.75-1.54,2.84-2l7.6-1.68c2.34-.52,5.33,0,6.68,1.16l15.12,12.93a2.11,2.11,0,0,1,.82,2.29c-.31,1-1.37,1.58-2.89,1.69l-6.68.49C200.28,26.78,199.83,26.79,199.37,26.79ZM179.32,12.22l0,0,16,11.75c.81.6,3,.91,5.14.74h0l6.68-.49a2.31,2.31,0,0,0,1.11-.3,1.15,1.15,0,0,1-.19-.15L193,10.86a6.91,6.91,0,0,0-4.95-.72l-7.6,1.68A4.28,4.28,0,0,0,179.32,12.22Z"/><path class="cls-2" d="M213.74,24.09c-2.1,0-4.68-.38-6-1.46L192.3,10.09A1.94,1.94,0,0,1,191.44,8c.17-.65.82-1.5,2.93-1.86l7.68-1.29c2.36-.4,5.32.27,6.61,1.49l14.46,13.68a2.14,2.14,0,0,1,.7,2.34c-.36.93-1.45,1.5-3,1.53l-6.69.16ZM193.53,8.5l0,0L209,21.07c.78.64,2.95,1,5.1,1l6.69-.15a2.3,2.3,0,0,0,1.12-.24s-.08-.09-.17-.18L207.29,7.84a7,7,0,0,0-4.91-1l-7.68,1.3A4.21,4.21,0,0,0,193.53,8.5Z"/><path class="cls-2" d="M234.6,22.43h-.17l-6.69-.18c-2.17-.06-5-.56-6.34-1.79L206.62,7.15a1.92,1.92,0,0,1-.75-2.08c.2-.64.89-1.46,3-1.71l7.73-.9c2.35-.27,5.3.54,6.53,1.82l13.74,14.4a2.11,2.11,0,0,1,.59,2.36C237.09,21.93,236,22.43,234.6,22.43ZM207.93,5.64l0,0L222.74,19c.75.68,2.87,1.21,5,1.26l6.69.18a2.39,2.39,0,0,0,1.13-.18s-.08-.09-.17-.18L221.7,5.67a6.93,6.93,0,0,0-4.85-1.22l-7.73.9A4.16,4.16,0,0,0,207.93,5.64Z"/><path class="cls-2" d="M248.54,21.76l-.46,0-6.68-.52c-2.17-.17-5-.81-6.24-2.1l-14.09-14A2,2,0,0,1,220.43,3c.23-.63,1-1.41,3.11-1.55l7.77-.51c2.39-.15,5.26.81,6.43,2.15l13,15.08a2.11,2.11,0,0,1,.46,2.39A2.77,2.77,0,0,1,248.54,21.76ZM222.46,3.63l0,0,14.09,14c.71.71,2.81,1.35,5,1.52l6.67.52a2.31,2.31,0,0,0,1.14-.13,1.43,1.43,0,0,1-.16-.19l-13-15.07c-.67-.77-2.9-1.54-4.77-1.46l-7.77.51A3.82,3.82,0,0,0,222.46,3.63Z"/><path class="cls-2" d="M250,455.51c-117.73,0-213.51-95.78-213.51-213.5S132.27,28.49,250,28.49,463.51,124.27,463.51,242,367.73,455.51,250,455.51ZM250,30.9C133.6,30.9,38.89,125.6,38.89,242S133.6,453.1,250,453.1,461.1,358.4,461.1,242,366.4,30.9,250,30.9Z"/><path class="cls-3" d="M350.18,129.49l-1.55-1.38,8.83-9.85A10.45,10.45,0,0,1,355,118a14.81,14.81,0,0,1-2.35-.66l1.34-1.5a12.47,12.47,0,0,0,3.6.56,7.82,7.82,0,0,0,2.87-.45l1,.89Zm-11.55-16a4.76,4.76,0,0,0-.79,2,3.43,3.43,0,0,0,.2,2,3.19,3.19,0,0,0,1.13,1.4,2.92,2.92,0,0,0,2.47.41,4.21,4.21,0,0,0,2.4-1.84,4,4,0,0,0,.81-2.8,3.06,3.06,0,0,0-1.38-2.17,3.22,3.22,0,0,0-2.54-.52,3.6,3.6,0,0,0-2.3,1.62m11.13-1.19-1.79-1a3.94,3.94,0,0,0,.36-1.92,2.72,2.72,0,0,0-1.21-1.91,2.89,2.89,0,0,0-1.77-.54,4.76,4.76,0,0,0-2.45.83,11,11,0,0,0-2.7,2.89,4.69,4.69,0,0,1,2.47-.35,4.88,4.88,0,0,1,2.19.83,4.72,4.72,0,0,1,2.05,3.26,5.48,5.48,0,0,1-1,4.08,6.45,6.45,0,0,1-2.24,2.05,5.05,5.05,0,0,1-2.74.66,5.21,5.21,0,0,1-2.66-1,5.32,5.32,0,0,1-2.4-4c-.18-1.66.56-3.7,2.22-6.1,1.85-2.69,3.69-4.31,5.53-4.84a5.2,5.2,0,0,1,4.6.82,4.72,4.72,0,0,1,2.06,2.77,4.65,4.65,0,0,1-.48,3.41m-23.17-5.61a3.71,3.71,0,0,0-.47,1.71,3,3,0,0,0,.48,1.72,3.55,3.55,0,0,0,1.35,1.26,3.27,3.27,0,0,0,4.62-1.32,3.37,3.37,0,0,0,.33-2.65,3.42,3.42,0,0,0-1.72-2.06,3.28,3.28,0,0,0-4.59,1.34m4.35-6.51a2.66,2.66,0,0,0-.27,2.08,2.71,2.71,0,0,0,1.39,1.64,2.65,2.65,0,0,0,2.09.28A2.47,2.47,0,0,0,335.7,103a2.57,2.57,0,0,0,.24-2.06,2.62,2.62,0,0,0-1.34-1.62,2.71,2.71,0,0,0-2.1-.29,2.45,2.45,0,0,0-1.56,1.23m-1.33,3.29a3.89,3.89,0,0,1-1-2.11,3.51,3.51,0,0,1,.47-2.14,4.08,4.08,0,0,1,2.65-2.08,4.88,4.88,0,0,1,3.69.59,5,5,0,0,1,2.5,2.84,4.19,4.19,0,0,1-.33,3.39,3.41,3.41,0,0,1-1.53,1.5,3.88,3.88,0,0,1-2.27.28,4.51,4.51,0,0,1,1.27,2.57,4.43,4.43,0,0,1-.59,2.74,4.82,4.82,0,0,1-3.09,2.46,6.22,6.22,0,0,1-7.06-3.88,4.94,4.94,0,0,1,.44-4,4.43,4.43,0,0,1,2.06-2,4.15,4.15,0,0,1,2.82-.17M324.13,98a4.1,4.1,0,0,0,.55-2.93,2.94,2.94,0,0,0-1.49-2,3.1,3.1,0,0,0-2.65-.19,4.16,4.16,0,0,0-2.31,2,3.58,3.58,0,0,0-.43,2.76,3.21,3.21,0,0,0,1.61,2,3,3,0,0,0,2.56.27,4,4,0,0,0,2.16-2m-11,2.39,1.81.82a3.44,3.44,0,0,0-.14,2.25,2.64,2.64,0,0,0,1.29,1.44,3,3,0,0,0,1.68.43,3.53,3.53,0,0,0,1.61-.44,7.35,7.35,0,0,0,1.63-1.36,10.12,10.12,0,0,0,1.5-2.07c0-.08.11-.2.19-.36a4.8,4.8,0,0,1-2.26.57,4.45,4.45,0,0,1-2.33-.59,4.67,4.67,0,0,1-2.36-3,5.61,5.61,0,0,1,.68-4.21,5.7,5.7,0,0,1,3.34-2.87,5,5,0,0,1,4.07.47,5.4,5.4,0,0,1,2.2,2.24,5.6,5.6,0,0,1,.58,3.22,12.62,12.62,0,0,1-1.69,4.49,15.61,15.61,0,0,1-3.12,4.17,6.09,6.09,0,0,1-3.25,1.53,5.34,5.34,0,0,1-3.33-.7,4.47,4.47,0,0,1-2.1-6m-3.65.93-.77,1.82-10.31-4.33a3.68,3.68,0,0,1,.78-1.23A7.55,7.55,0,0,1,301.3,96a22,22,0,0,1,3.48-1.3,22.91,22.91,0,0,0,4.82-1.86,4.17,4.17,0,0,0,1.87-1.92,2.74,2.74,0,0,0,0-2.26,3.18,3.18,0,0,0-1.8-1.68,3.28,3.28,0,0,0-2.56-.1,3.36,3.36,0,0,0-1.81,1.93l-1.87-1a5.25,5.25,0,0,1,2.93-2.71,5.58,5.58,0,0,1,4,.34,5.32,5.32,0,0,1,3,2.73,4.48,4.48,0,0,1,0,3.64,5,5,0,0,1-1.17,1.67,7.59,7.59,0,0,1-2.07,1.38,36.52,36.52,0,0,1-4.09,1.5c-1.56.48-2.58.82-3,1a6.16,6.16,0,0,0-1.25.69ZM289.69,90.93a5,5,0,0,0-.15,2.1,3.38,3.38,0,0,0,.79,1.79,3.22,3.22,0,0,0,1.51,1,2.92,2.92,0,0,0,2.47-.37,4.2,4.2,0,0,0,1.72-2.5,3.89,3.89,0,0,0-.1-2.91,3,3,0,0,0-2-1.64,3.17,3.17,0,0,0-2.57.29,3.64,3.64,0,0,0-1.7,2.25m10.22-4.56-2-.43a4,4,0,0,0-.25-1.93,2.73,2.73,0,0,0-1.74-1.44,3,3,0,0,0-1.85,0A4.79,4.79,0,0,0,292,84.15a11,11,0,0,0-1.68,3.57,4.84,4.84,0,0,1,2.25-1.1,5.09,5.09,0,0,1,2.33.12,4.74,4.74,0,0,1,3,2.48,5.49,5.49,0,0,1,.27,4.2,6.59,6.59,0,0,1-1.5,2.64,5.05,5.05,0,0,1-2.41,1.47,5.28,5.28,0,0,1-2.81-.08,5.37,5.37,0,0,1-3.52-3q-1-2.3.23-6.49c.93-3.13,2.19-5.24,3.77-6.31a5.24,5.24,0,0,1,4.64-.63,4.77,4.77,0,0,1,2.82,2,4.69,4.69,0,0,1,.58,3.39m-19.43,2,1.18-7.52-6.41,6.7Zm-.91,5.87.62-4-7.25-1.13.3-1.89,9.31-9.62,1.68.26-1.69,10.82,2.26.35-.3,1.89-2.26-.36-.62,4ZM262.73,83.56c-.21,2.77,0,4.64.55,5.6a2.8,2.8,0,0,0,4.8.36c.71-.87,1.18-2.69,1.38-5.45s0-4.64-.55-5.6a2.86,2.86,0,0,0-2.31-1.55,2.64,2.64,0,0,0-2.37,1q-1.19,1.44-1.5,5.6m-2.11-.17a15.49,15.49,0,0,1,1-4.76,6.06,6.06,0,0,1,2-2.68,4.74,4.74,0,0,1,3.12-.75,5,5,0,0,1,2.34.73,4.52,4.52,0,0,1,1.57,1.7,8.32,8.32,0,0,1,.84,2.58,15.9,15.9,0,0,1,.08,4,15.62,15.62,0,0,1-1,4.75,6,6,0,0,1-2,2.68,4.69,4.69,0,0,1-3.13.75,4.63,4.63,0,0,1-3.69-2q-1.5-2.25-1.14-7m-7.09,2.2,0-7.61-5.33,7.58Zm0,5.94,0-4-7.34,0V85.55L254,74.64h1.7L255.6,85.6h2.29v1.91H255.6l0,4Zm-12,.07-2.08.16-1-13.19a10.16,10.16,0,0,1-1.85,1.58,14.25,14.25,0,0,1-2.11,1.24l-.15-2a12.45,12.45,0,0,0,2.89-2.2,7.91,7.91,0,0,0,1.67-2.39l1.34-.1ZM221.93,94l-.36-2.33,2.33-.36.36,2.33Zm-1.52-9.77L220,81.94l2.33-.36.37,2.33ZM205,98,200.7,81.64l2.22-.59,12,10.56-3.4-12.82,2.08-.55,4.32,16.33-2.22.59-12-10.56,3.39,12.83Zm-14.64,5.57L184.49,87.7l11.44-4.24.69,1.85-9.34,3.47,1.81,4.87,8.74-3.25.69,1.86-8.74,3.25,2,5.39,9.71-3.61.69,1.86ZM173.12,92.16,172,90.08l1.91-1L175,91.14Zm-3.78,2-1.11-2.07,1.91-1,1.12,2.08Zm2.27,9.84a6.8,6.8,0,0,0,3.72,3.47,5.75,5.75,0,0,0,7.29-3.92,7.19,7.19,0,0,0-1-5.2,8.41,8.41,0,0,0-2.31-2.84,5.34,5.34,0,0,0-2.91-1.14,5.54,5.54,0,0,0-3.06.68,5.74,5.74,0,0,0-2.83,3.36q-.74,2.25,1.05,5.59m-2.05,1.07a9.26,9.26,0,0,1-1.12-6.88,7.68,7.68,0,0,1,4-4.84,8.13,8.13,0,0,1,4.25-1,7.23,7.23,0,0,1,4,1.39,10.19,10.19,0,0,1,3,3.53,10.05,10.05,0,0,1,1.25,4.54,7.07,7.07,0,0,1-1.14,4.09,8.53,8.53,0,0,1-3.13,2.86,8.05,8.05,0,0,1-4.3,1,7.44,7.44,0,0,1-4-1.43,9.65,9.65,0,0,1-2.84-3.25m-4.8,12.68-14.44-10.93,2.06-1.28,10.19,8.14c.81.65,1.56,1.27,2.21,1.88-.27-.92-.49-1.86-.68-2.83l-2.59-12.84,1.94-1.2,3.29,17.84Z"/><path class="cls-3" d="M435.31,183l-2.44.83-.72-2.1-4.69,1.62a13.5,13.5,0,0,0-1.64.63.72.72,0,0,0-.29.41.86.86,0,0,0,0,.57,4.2,4.2,0,0,0,.72,1.13L424,187.15a6.29,6.29,0,0,1-1.29-2.26,3.87,3.87,0,0,1-.23-1.58,2.21,2.21,0,0,1,.39-1.22,3,3,0,0,1,1-.84,14.71,14.71,0,0,1,2.13-.84l5.07-1.75-.49-1.41,2.44-.83.49,1.4,2.29-.79,2.86,2.44-4.11,1.41Zm-10.71-8.6-1.74-4.51a3.61,3.61,0,0,0-1.64,1.28,2.09,2.09,0,0,0-.18,2,2.15,2.15,0,0,0,1.48,1.39,3.11,3.11,0,0,0,2.08-.16m2.28,2.75a7.23,7.23,0,0,1-4.74.34,5.11,5.11,0,0,1-3.34-3.24,5.18,5.18,0,0,1,.39-5.08,8.87,8.87,0,0,1,4.37-3l2.91,7.55a3.57,3.57,0,0,0,1.75-1.4,2.37,2.37,0,0,0,.14-2.16,2.07,2.07,0,0,0-2.37-1.29l-.66-3.21a5.12,5.12,0,0,1,5.31,3.66,5.44,5.44,0,0,1-.25,5.16,7.09,7.09,0,0,1-3.51,2.65m-5.33-26.52,1.59,3-6.34,6.62,9-1.47,1.55,3-12.45,1.62-2.25.29a8.93,8.93,0,0,1-1.83,0,3.77,3.77,0,0,1-1.22-.37,3.81,3.81,0,0,1-1.05-.85,6.17,6.17,0,0,1-.94-1.38,8.8,8.8,0,0,1-.68-1.72l2.11-1.41a7.9,7.9,0,0,0,.5,1.29,2,2,0,0,0,1.37,1.18,4.63,4.63,0,0,0,1.88-.05Zm-6.7-11.83,1.71,3-6.09,6.87,9-1.83,1.67,2.92-12.37,2.09-2.24.38a8.2,8.2,0,0,1-1.82.1,3.43,3.43,0,0,1-1.23-.32,3.59,3.59,0,0,1-1.09-.81,6.07,6.07,0,0,1-1-1.34,9,9,0,0,1-.74-1.69l2.06-1.5a8.08,8.08,0,0,0,.54,1.27,2.07,2.07,0,0,0,1.41,1.13,4.78,4.78,0,0,0,1.89-.12Zm-13.42,1.93,10.34-6.55,1.73,2.73-10.35,6.55Zm11.74-7.43,2.54-1.61,1.72,2.74L414.9,136ZM398,116.12l1.89,2.3-1.3,1a4.82,4.82,0,0,1,3.91,1.74,4.08,4.08,0,0,1,.92,1.88,3.77,3.77,0,0,1-.24,2,5.72,5.72,0,0,1,2.23.42,4.33,4.33,0,0,1,1.64,1.24,4.38,4.38,0,0,1,1,2.12,3.37,3.37,0,0,1-.36,2.09,7,7,0,0,1-1.75,1.86l-6.06,4.95-2-2.5,5.41-4.42a5.28,5.28,0,0,0,1.6-1.75,1.52,1.52,0,0,0-.34-1.51,2.21,2.21,0,0,0-1.13-.73,2.34,2.34,0,0,0-1.49.1,8.49,8.49,0,0,0-2.12,1.4l-4.55,3.71-2-2.5,5.19-4.24a9.28,9.28,0,0,0,1.67-1.59,1.53,1.53,0,0,0,.26-.91,1.7,1.7,0,0,0-.43-.92,2.27,2.27,0,0,0-1.16-.78,2.11,2.11,0,0,0-1.44.07,8.64,8.64,0,0,0-2.12,1.39l-4.6,3.76-2.05-2.5Zm-9.47,0-3.32-3.51a3.61,3.61,0,0,0-1,1.81,2.31,2.31,0,0,0,2.49,2.64,3.08,3.08,0,0,0,1.86-.94m3.15,1.67a7.16,7.16,0,0,1-4.25,2.12,5.09,5.09,0,0,1-4.32-1.72,5.17,5.17,0,0,1-1.56-4.84,8.7,8.7,0,0,1,2.89-4.42l5.57,5.87a3.46,3.46,0,0,0,1.08-2,2.34,2.34,0,0,0-.68-2.05,2.05,2.05,0,0,0-2.68-.29l-1.83-2.73a5.12,5.12,0,0,1,6.29,1.37,5.48,5.48,0,0,1,1.74,4.87,7,7,0,0,1-2.25,3.78m-12-12.34,1.7,3a7.55,7.55,0,0,1-4.69,1.27,7.94,7.94,0,0,1-6.63-7.58,8.77,8.77,0,0,1,2.75-6.06,9.29,9.29,0,0,1,6.08-3.27,7.5,7.5,0,0,1,5.78,2.25,7,7,0,0,1,2.39,4.79,6.58,6.58,0,0,1-.88,3.45l-3-1.73a3.63,3.63,0,0,0,.51-2.37,3.57,3.57,0,0,0-1.16-2.14A3.84,3.84,0,0,0,379.4,96a6.62,6.62,0,0,0-3.85,2.36c-1.45,1.55-2.22,2.92-2.28,4.11a3.71,3.71,0,0,0,1.24,3.05,3.45,3.45,0,0,0,2.29,1,5,5,0,0,0,2.9-1M357.05,94.69l7-10,2.64,1.86-7,10Zm8-11.38,1.72-2.45,2.65,1.85-1.72,2.46Zm-13.35,7.61,9.7-13.82L364,79l-9.71,13.83Zm4.75-11.5L355,81.58l-1.86-1.21-2.69,4.17a12.31,12.31,0,0,0-.91,1.51.72.72,0,0,0,0,.5A.91.91,0,0,0,350,87a3.84,3.84,0,0,0,1.26.45l-1.14,2.26a6.4,6.4,0,0,1-2.41-1,4.22,4.22,0,0,1-1.16-1.1,2.42,2.42,0,0,1-.45-1.2,3,3,0,0,1,.31-1.31,19.49,19.49,0,0,1,1.16-2l2.92-4.49-1.25-.81,1.4-2.16,1.25.81,1.32-2,3.75.15-2.36,3.64Zm-13.93-.07L338.3,77a3.49,3.49,0,0,0-.46,2A2.11,2.11,0,0,0,339,80.66a2.14,2.14,0,0,0,2,.14,3.15,3.15,0,0,0,1.51-1.45M346,80a7.17,7.17,0,0,1-3.45,3.27,5,5,0,0,1-4.63-.38A5.12,5.12,0,0,1,335,78.75a8.73,8.73,0,0,1,1.47-5.08l7,4a3.47,3.47,0,0,0,.46-2.19,2.32,2.32,0,0,0-1.26-1.76,2.06,2.06,0,0,0-2.65.51l-2.54-2.06a5.1,5.1,0,0,1,6.41-.55,5.47,5.47,0,0,1,3.1,4.14A7.08,7.08,0,0,1,346,80M325.44,62.75l3.13,1.42-.9,9.13,6.19-6.74,3.06,1.38-8.79,9-1.59,1.62a8.81,8.81,0,0,1-1.41,1.15,3.58,3.58,0,0,1-1.19.46,3.66,3.66,0,0,1-1.36,0,6.71,6.71,0,0,1-1.59-.5,8.75,8.75,0,0,1-1.59-.94l.78-2.42a7.08,7.08,0,0,0,1.2.71,2,2,0,0,0,1.79.08,4.47,4.47,0,0,0,1.46-1.2Zm-12.62-5.09L316,59l-.54,9.16,5.92-7,3.11,1.25-8.43,9.31-1.52,1.68a9.85,9.85,0,0,1-1.37,1.21,3.31,3.31,0,0,1-1.17.5,3.74,3.74,0,0,1-1.35,0,6,6,0,0,1-1.61-.45,8.74,8.74,0,0,1-1.63-.86l.68-2.45a7.35,7.35,0,0,0,1.22.65,2,2,0,0,0,1.81,0,4.67,4.67,0,0,0,1.4-1.26Zm-9.49,10.17,3.75-11.66,3.08,1-3.74,11.66Zm4.26-13.24.91-2.85,3.08,1-.92,2.85ZM297,66l4.7-16.22,3.11.9-4.7,16.23Zm-6.14-1.5.42-1.79a4.82,4.82,0,0,1-2.07,1.13,4.88,4.88,0,0,1-2.37,0,4.54,4.54,0,0,1-2-1,3.16,3.16,0,0,1-1-1.81,6.74,6.74,0,0,1,.18-2.74l1.75-7.57,3.15.72L287.6,57a15.37,15.37,0,0,0-.54,3.13,1.71,1.71,0,0,0,.43,1,2,2,0,0,0,1.1.6,2.49,2.49,0,0,0,1.55-.11,2.34,2.34,0,0,0,1.14-.9,13.83,13.83,0,0,0,1-3.17l1.16-5,3.15.73-2.75,11.93Zm-21.59-7.1,3.3-.05a2.29,2.29,0,0,0,.64,1.52,2.82,2.82,0,0,0,1.69.72,3.23,3.23,0,0,0,1.94-.2,1.06,1.06,0,0,0,.54-.8.87.87,0,0,0-.15-.64,2.74,2.74,0,0,0-1-.57,17.61,17.61,0,0,1-4.72-2.23,3.15,3.15,0,0,1-1.07-2.94,3.4,3.4,0,0,1,1.6-2.48,5.83,5.83,0,0,1,4-.55,6.74,6.74,0,0,1,3.59,1.31A4.23,4.23,0,0,1,281,53.15l-3.09.15a1.86,1.86,0,0,0-.59-1.19,2.74,2.74,0,0,0-1.5-.59,3.48,3.48,0,0,0-1.88.11.73.73,0,0,0-.45.6.66.66,0,0,0,.24.62,11.79,11.79,0,0,0,2.88,1.31A9.05,9.05,0,0,1,280,56.08a3,3,0,0,1,.69,2.53,3.69,3.69,0,0,1-1.78,2.68,6.3,6.3,0,0,1-4.29.64,6.89,6.89,0,0,1-3.79-1.54,4.67,4.67,0,0,1-1.53-3m-4.75-2-4.82-.36a3.64,3.64,0,0,0,.45,2,2.31,2.31,0,0,0,3.62.28,3.06,3.06,0,0,0,.75-2m3.46-.88A7.18,7.18,0,0,1,266.28,59a5.09,5.09,0,0,1-4.35,1.63,5.16,5.16,0,0,1-4.41-2.54,8.82,8.82,0,0,1-.84-5.22l8.08.61a3.5,3.5,0,0,0-.52-2.17,2.34,2.34,0,0,0-1.88-1.07,2.08,2.08,0,0,0-2.19,1.59L257,51a5.13,5.13,0,0,1,5.58-3.23,5.47,5.47,0,0,1,4.55,2.44,7,7,0,0,1,.89,4.31m-30.79,5.62-.29-16.89,5.13-.09,3.22,11.47,2.8-11.57,5.14-.09.28,16.89-3.16.06-.23-13.3L247,60l-3.29.06-3.54-13.24.21,13.3ZM218,56.34a5.69,5.69,0,0,0,1,2.71,2.46,2.46,0,0,0,2.37.89,2.43,2.43,0,0,0,1.72-1.26,4.48,4.48,0,0,0,.29-2.94,4.87,4.87,0,0,0-1.26-2.88,2.41,2.41,0,0,0-2.07-.6,2.49,2.49,0,0,0-1.75,1.23,4.21,4.21,0,0,0-.31,2.85m9.59,4.82-3,.5-.3-1.77a5.08,5.08,0,0,1-1.48,1.85,4.46,4.46,0,0,1-1.95.86A4.67,4.67,0,0,1,217,61.53a6.9,6.9,0,0,1-2.28-4.43,6.86,6.86,0,0,1,.66-4.92A4.77,4.77,0,0,1,218.76,50a4.63,4.63,0,0,1,3.79,1.09l-1-6,3.19-.54Zm-17.27,3.11-.41-1.79a4.94,4.94,0,0,1-3.49,3,4.5,4.5,0,0,1-2.28,0,3.13,3.13,0,0,1-1.72-1.17,6.66,6.66,0,0,1-1-2.55l-1.72-7.57,3.15-.73L204,58.92a15.52,15.52,0,0,0,.88,3,1.82,1.82,0,0,0,.84.76,2,2,0,0,0,1.26.06,2.64,2.64,0,0,0,1.35-.78,2.23,2.23,0,0,0,.62-1.3,12.81,12.81,0,0,0-.49-3.28l-1.15-5,3.15-.72L213.2,63.6Zm-21.3-.6a5.77,5.77,0,0,0,1.47,2.5,2.47,2.47,0,0,0,2.49.46,2.34,2.34,0,0,0,1.46-1.54,4.44,4.44,0,0,0-.22-3,4.85,4.85,0,0,0-1.75-2.61,2.39,2.39,0,0,0-2.14-.22,2.43,2.43,0,0,0-1.51,1.51,4.25,4.25,0,0,0,.2,2.85m10.28,3.08-2.82,1-.61-1.69a4.9,4.9,0,0,1-1.14,2.08,4.41,4.41,0,0,1-1.76,1.19,4.67,4.67,0,0,1-4-.38,7,7,0,0,1-3-4,6.83,6.83,0,0,1-.21-5,4.75,4.75,0,0,1,2.94-2.77,4.57,4.57,0,0,1,3.92.4l-2-5.74,3-1.09Zm-27.13-8,2.25,5.84a4.77,4.77,0,0,1,2.84-3.1,5,5,0,0,1,2-.35,3.32,3.32,0,0,1,1.65.51,3.72,3.72,0,0,1,1.1,1.1A12.84,12.84,0,0,1,183,65l2.58,6.7-3,1.16-2.32-6a9.4,9.4,0,0,0-1.05-2.21,1.57,1.57,0,0,0-.91-.53,2.14,2.14,0,0,0-1.22.14,2.74,2.74,0,0,0-1.21.89,2.19,2.19,0,0,0-.45,1.43,7.09,7.09,0,0,0,.55,2.29l2.21,5.71-3,1.16-6.07-15.76Zm-4.42,15.16-4.28,2.24a3.51,3.51,0,0,0,1.45,1.48,2.08,2.08,0,0,0,2,0A2.12,2.12,0,0,0,168.1,76a3.13,3.13,0,0,0-.39-2.06m2.47-2.57a7.17,7.17,0,0,1,.87,4.67,5.05,5.05,0,0,1-2.84,3.68,5.14,5.14,0,0,1-5.08.18,8.77,8.77,0,0,1-3.46-4l7.17-3.74a3.46,3.46,0,0,0-1.59-1.58,2.36,2.36,0,0,0-2.16.1,2.06,2.06,0,0,0-1,2.5l-3.12,1a5.11,5.11,0,0,1,3-5.68,5.45,5.45,0,0,1,5.15-.33,7,7,0,0,1,3,3.19M146.73,91.94l-9-14.28L142,74.92,150.76,83,147.13,71.7,151.47,69l9,14.28-2.67,1.69-7.12-11.24,4.29,13-2.78,1.76L142.31,79l7.1,11.25ZM126.61,86l2.52-2,1.45,1.82a7.79,7.79,0,0,1,1.19,1.87,3.35,3.35,0,0,1,.2,1.71,4.58,4.58,0,0,1-.7,1.86l-1.33-.66a2.63,2.63,0,0,0,.52-1.56,2.73,2.73,0,0,0-.62-1.47l-1.22,1Zm4.23-3.39,2.53-2,1.45,1.81A7.92,7.92,0,0,1,136,84.28a3.52,3.52,0,0,1,.2,1.72,4.72,4.72,0,0,1-.69,1.85l-1.33-.65a2.83,2.83,0,0,0,.52-1.57,2.62,2.62,0,0,0-.62-1.47l-1.22,1Zm-2.13,23.69-4.64-5.39L113,97.55l3-2.61,7.4,2.46L122,89.79l3-2.56,1.71,11.47,4.63,5.37Zm-14.3,14.21L102.13,108.9l8.59-9.09,2.07,2-6.24,6.6,2.73,2.57,5.8-6.13,2.08,2-5.81,6.14,3.33,3.14,6.47-6.84,2.07,2Zm-7.34,8.75L90,123.6l2.29-2.91L104.81,125l-7.3-11,2.24-2.86,9.59,15.15ZM98.3,141.33l-11.5-8.06-2.87,4.1-2.34-1.64,7.7-11,2.33,1.63-2.86,4.08,11.5,8.07ZM80.89,151.5l1.24-2.2a13.33,13.33,0,0,0,1.33-2.77,1.77,1.77,0,0,0-.16-1.18,2.19,2.19,0,0,0-.93-.93,2.05,2.05,0,0,0-1.43-.28,2.09,2.09,0,0,0-1.2.79c-.17.22-.6.94-1.28,2.14l-1.31,2.32Zm6.81,7.77L73,151l3.54-6.26a12.16,12.16,0,0,1,2.33-3.2,3.88,3.88,0,0,1,2.37-.92,5,5,0,0,1,2.69.67,4.57,4.57,0,0,1,2.19,2.52,5.29,5.29,0,0,1-.29,3.66,8.21,8.21,0,0,1,2.13-.89,19.83,19.83,0,0,1,3.34-.33l3.89-.18-2,3.55-4.42.32a24.47,24.47,0,0,0-3,.35,2.57,2.57,0,0,0-1.12.56,5.34,5.34,0,0,0-1,1.41l-.34.6,6.14,3.47Zm-9.56,4.54-6.67-.43L76.23,168Zm8.67-2.94-1.51,3.36L81.19,164l-2.79,6.18L81.33,173l-1.49,3.29-12.7-12.93,1.49-3.3Zm-17,13.93-1,3.08-2.21-.71a7.92,7.92,0,0,1-2-.92,3.34,3.34,0,0,1-1.1-1.32A4.68,4.68,0,0,1,63,173l1.47-.19a2.75,2.75,0,0,0,.43,1.58,2.7,2.7,0,0,0,1.33.89l.48-1.48Zm-1.65,5.14-1,3.08-2.21-.71a8,8,0,0,1-2-.91,3.38,3.38,0,0,1-1.12-1.32,4.65,4.65,0,0,1-.44-1.93l1.47-.18a2.72,2.72,0,0,0,.44,1.58,2.69,2.69,0,0,0,1.32.89L65,179Z"/><path class="cls-3" d="M163.41,388.1l7.28-13-4.86-2.71,1-1.74,11.69,6.53-1,1.74-4.88-2.73-7.28,13Z"/><path class="cls-3" d="M347.13,381.48l-1.69,1.19-7.61-10.77a10.24,10.24,0,0,1-.78,2.3,13.69,13.69,0,0,1-1.16,2.13l-1.15-1.63a13,13,0,0,0,1.34-3.37,7.9,7.9,0,0,0,.2-2.9l1.09-.77Z"/><path class="cls-3" d="M177.57,394.21a7.73,7.73,0,0,1-2.61.16,6.27,6.27,0,0,1-2.2-.73,4.42,4.42,0,0,1-2.26-2.34,3.21,3.21,0,0,1,.24-2.73,3.35,3.35,0,0,1,1.14-1.25,3.25,3.25,0,0,1,1.5-.54,5.08,5.08,0,0,1,1.64.11,15.37,15.37,0,0,1,1.77.6,19.55,19.55,0,0,0,3.6,1.13c.14-.25.23-.41.26-.48a2.29,2.29,0,0,0,.33-1.85,3.47,3.47,0,0,0-1.74-1.74,3.7,3.7,0,0,0-2.15-.57,3.14,3.14,0,0,0-1.77,1.11l-1.65-1.21a5,5,0,0,1,1.8-1.42,4,4,0,0,1,2.19-.21,7.77,7.77,0,0,1,2.65.94,7.21,7.21,0,0,1,2.07,1.53,3.25,3.25,0,0,1,.83,1.5,3.29,3.29,0,0,1-.1,1.54,11.5,11.5,0,0,1-.82,1.74L181,391.93a30.78,30.78,0,0,0-1.62,3.29,4.64,4.64,0,0,0-.23,1.54l-1.91-1A4.22,4.22,0,0,1,177.57,394.21Zm2.05-4.16a15.79,15.79,0,0,1-3.36-.92,7.42,7.42,0,0,0-1.79-.49,1.76,1.76,0,0,0-1.76.93,1.8,1.8,0,0,0-.1,1.52,2.72,2.72,0,0,0,1.35,1.36,4.32,4.32,0,0,0,2.13.54,3.21,3.21,0,0,0,1.89-.61,5,5,0,0,0,1.27-1.67Z"/><path class="cls-3" d="M332.41,376.05l-1.71,1.16a4,4,0,0,0-1.55-1.16,2.76,2.76,0,0,0-2.24.26,2.8,2.8,0,0,0-1.23,1.34,4.67,4.67,0,0,0-.31,2.57,10.74,10.74,0,0,0,1.42,3.67,4.78,4.78,0,0,1,.75-2.37,5,5,0,0,1,1.69-1.6,4.73,4.73,0,0,1,3.82-.42,5.44,5.44,0,0,1,3.21,2.7,6.51,6.51,0,0,1,.87,2.9,5.07,5.07,0,0,1-.6,2.75,5.19,5.19,0,0,1-2,2,5.3,5.3,0,0,1-4.61.43q-2.35-.84-4.52-4.64-2.41-4.25-1.95-7.06a5.22,5.22,0,0,1,2.73-3.78,4.77,4.77,0,0,1,3.38-.65A4.71,4.71,0,0,1,332.41,376.05Zm-3.74,10.49a4.86,4.86,0,0,0,1.4,1.56,3.47,3.47,0,0,0,1.84.66,3.23,3.23,0,0,0,1.75-.4,3,3,0,0,0,1.43-2,4.13,4.13,0,0,0-.6-3,3.89,3.89,0,0,0-2.17-1.93,3.07,3.07,0,0,0-2.54.28,3.21,3.21,0,0,0-1.57,2.06A3.62,3.62,0,0,0,328.67,386.54Z"/><path class="cls-3" d="M180.51,397.2l6.45-4.3-1.72-7,2.41.94.71,3.34q.19,1,.3,1.59c.49-.35.94-.66,1.35-.92l3-1.94,2.31.89-6,3.83,1.89,7.67-2.36-.92-1-4.45-.26-1.19-4.73,3.33Z"/><path class="cls-3" d="M316.56,388.5a3.91,3.91,0,0,1-2.3-.42,3.53,3.53,0,0,1-1.44-1.64,4.1,4.1,0,0,1-.09-3.36,5.58,5.58,0,0,1,6.43-2.94,4.18,4.18,0,0,1,2.53,2.27,3.49,3.49,0,0,1,.29,2.11,3.89,3.89,0,0,1-1.13,2,4.29,4.29,0,0,1,4.69,2.59,4.88,4.88,0,0,1,.14,3.94,6.22,6.22,0,0,1-7.31,3.37,4.91,4.91,0,0,1-2.93-2.7,4.43,4.43,0,0,1-.4-2.85A4.15,4.15,0,0,1,316.56,388.5Zm-1.85-3a2.6,2.6,0,0,0,1.52,1.45,2.69,2.69,0,0,0,2.14-.15,2.65,2.65,0,0,0,1.46-1.5,2.49,2.49,0,0,0-.08-2,2.53,2.53,0,0,0-1.52-1.4,2.7,2.7,0,0,0-2.1.11,2.73,2.73,0,0,0-1.47,1.52A2.45,2.45,0,0,0,314.71,385.49Zm2.66,7.35a3.83,3.83,0,0,0,1.1,1.38,3,3,0,0,0,1.67.64,3.66,3.66,0,0,0,1.81-.34,3.34,3.34,0,0,0,1.82-1.89,3.27,3.27,0,0,0-.14-2.61,3.3,3.3,0,0,0-1.94-1.82,3.37,3.37,0,0,0-2.67.15,3.29,3.29,0,0,0-1.79,1.89A3.32,3.32,0,0,0,317.37,392.84Z"/><path class="cls-3" d="M193.48,402.06l5.33-16,2.11.71-5.32,16Zm5.5-17,.81-2.44,2.43.81-.81,2.44Z"/><path class="cls-3" d="M199.22,404,204,387.83l5.57,1.63a13.88,13.88,0,0,1,2.81,1.07,5.81,5.81,0,0,1,2,1.85,6.87,6.87,0,0,1,1.1,3.33,11.23,11.23,0,0,1-.49,4,12,12,0,0,1-1.38,3.14,8.26,8.26,0,0,1-1.8,2,6,6,0,0,1-1.9,1,6.15,6.15,0,0,1-2.16.24,10.86,10.86,0,0,1-2.68-.48Zm2.7-1.28,3.45,1a8.87,8.87,0,0,0,2.6.44,3.64,3.64,0,0,0,1.69-.42,5.21,5.21,0,0,0,1.79-1.7,10.55,10.55,0,0,0,1.34-3,7.86,7.86,0,0,0,.3-4.14,4.34,4.34,0,0,0-1.49-2.42,8.65,8.65,0,0,0-2.67-1.14l-3.4-1Z"/><path class="cls-3" d="M304.29,399.15l1.79-.87a3.43,3.43,0,0,0,1.62,1.55,2.66,2.66,0,0,0,1.94-.05,3.12,3.12,0,0,0,1.4-1,3.42,3.42,0,0,0,.69-1.51,7,7,0,0,0,0-2.11,10.11,10.11,0,0,0-.61-2.48c0-.08-.08-.21-.16-.38a4.77,4.77,0,0,1-1,2.1,4.58,4.58,0,0,1-2,1.4,4.67,4.67,0,0,1-3.85-.16,5.53,5.53,0,0,1-2.77-3.22,5.67,5.67,0,0,1-.06-4.39,5,5,0,0,1,3-2.81,5.37,5.37,0,0,1,3.12-.24,5.55,5.55,0,0,1,2.83,1.62,12.48,12.48,0,0,1,2.35,4.18,15.29,15.29,0,0,1,1.17,5.06,6,6,0,0,1-.91,3.46,5.42,5.42,0,0,1-2.68,2.09,4.45,4.45,0,0,1-5.91-2.23Zm5.27-10a4,4,0,0,0-1.89-2.3,3,3,0,0,0-2.51-.17,3.14,3.14,0,0,0-1.84,1.91,4.15,4.15,0,0,0,.08,3.09,3.61,3.61,0,0,0,1.84,2.1,3.26,3.26,0,0,0,2.6.09,3,3,0,0,0,1.84-1.79A4,4,0,0,0,309.56,389.19Z"/><path class="cls-3" d="M216.1,408.54l.38-2.32,2.33.38-.39,2.33Zm1.6-9.72.39-2.32,2.32.38-.38,2.33Z"/><path class="cls-3" d="M235.6,411.22l-2.06-.16,1-13.14a11.27,11.27,0,0,1-2.07,1.27,14.19,14.19,0,0,1-2.25.9l.15-2a12.93,12.93,0,0,0,3.18-1.74,7.76,7.76,0,0,0,2-2.11l1.33.1Z"/><path class="cls-3" d="M247.55,411.82l0-4-7.31-.09,0-1.9L248.14,395l1.69,0-.14,10.92,2.28,0,0,1.89-2.28,0,0,4Zm.07-5.93.1-7.59-5.37,7.53Z"/><path class="cls-3" d="M273.66,410.2l-.55-4-7.24,1-.27-1.88,6.11-11.88,1.67-.23L274.89,404l2.26-.31.26,1.87-2.25.32.55,4Zm-.82-5.87-1-7.53-4.17,8.26Z"/><path class="cls-3" d="M287.6,394.61l-2,.61a3.87,3.87,0,0,0-1.15-1.55,2.77,2.77,0,0,0-2.22-.41,2.89,2.89,0,0,0-1.57.92,4.7,4.7,0,0,0-1,2.37,10.71,10.71,0,0,0,.29,3.93,4.83,4.83,0,0,1,1.41-2.05,4.93,4.93,0,0,1,2.08-1,4.71,4.71,0,0,1,3.78.71,5.45,5.45,0,0,1,2.28,3.52,6.46,6.46,0,0,1,0,3,5.09,5.09,0,0,1-1.38,2.45,5.16,5.16,0,0,1-2.48,1.3,5.34,5.34,0,0,1-4.54-.92q-2-1.5-3-5.76-1.08-4.77.19-7.33a5.23,5.23,0,0,1,3.71-2.82,4.78,4.78,0,0,1,3.43.37A4.72,4.72,0,0,1,287.6,394.61ZM281,403.56a4.83,4.83,0,0,0,.9,1.9,3.37,3.37,0,0,0,1.56,1.17,3.24,3.24,0,0,0,1.79.12,2.88,2.88,0,0,0,2-1.53,4.13,4.13,0,0,0,.29-3,3.88,3.88,0,0,0-1.52-2.48,3,3,0,0,0-2.51-.46,3.17,3.17,0,0,0-2.1,1.5A3.66,3.66,0,0,0,281,403.56Z"/><path class="cls-3" d="M253.38,403.84a15.64,15.64,0,0,1,.25-4.84,6.07,6.07,0,0,1,1.61-2.94,4.67,4.67,0,0,1,3-1.22,5,5,0,0,1,2.42.37,4.61,4.61,0,0,1,1.8,1.44,8.44,8.44,0,0,1,1.23,2.42,16.16,16.16,0,0,1,.68,3.94,15.57,15.57,0,0,1-.24,4.82,6.07,6.07,0,0,1-1.61,2.95,5.14,5.14,0,0,1-6.93-.23C254.35,409.23,253.62,407,253.38,403.84Zm2.12-.16c.21,2.76.68,4.57,1.39,5.43a2.84,2.84,0,0,0,2.49,1.19,2.87,2.87,0,0,0,2.29-1.55q.87-1.46.55-5.58c-.21-2.76-.67-4.58-1.39-5.44a2.88,2.88,0,0,0-2.51-1.18,2.65,2.65,0,0,0-2.18,1.38C255.51,399,255.3,400.92,255.5,403.68Z"/><path class="cls-2" d="M85.52,336.26l-1.61-2.8,2-1.16a8.23,8.23,0,0,1,2-.89,3.48,3.48,0,0,1,1.72.07,4.74,4.74,0,0,1,1.73,1l-.84,1.21a2.72,2.72,0,0,0-1.47-.75,2.6,2.6,0,0,0-1.55.37l.78,1.36ZM88.21,341l-1.61-2.81,2-1.15a7.57,7.57,0,0,1,2-.89,3.33,3.33,0,0,1,1.71.08,4.5,4.5,0,0,1,1.73,1l-.84,1.21a2.82,2.82,0,0,0-1.47-.76,2.69,2.69,0,0,0-1.55.38l.78,1.36Z"/><path class="cls-2" d="M89.87,361.37l-2.14-3L90,354.92l-3.9-5.52-3.94,1.08-2.08-3,17.59-4.36,2.08,2.94Zm1.84-9,3.78-5.52-6.44,1.75Z"/><path class="cls-2" d="M407.18,344.62l1.71-3,9,1.76-6.13-6.79,1.66-2.91,8.09,9.59L423,345a8.7,8.7,0,0,1,1,1.52,3.61,3.61,0,0,1,.36,1.22,3.76,3.76,0,0,1-.14,1.34,6.37,6.37,0,0,1-.65,1.54,8.85,8.85,0,0,1-1.08,1.49l-2.34-1A7,7,0,0,0,421,350a2,2,0,0,0,.25-1.78,4.57,4.57,0,0,0-1.05-1.56Z"/><path class="cls-2" d="M91.13,362.8l13.24-10.49,4.45,5.63a12.16,12.16,0,0,1,2.09,3.37,3.92,3.92,0,0,1,0,2.55,4.9,4.9,0,0,1-1.63,2.23,4.55,4.55,0,0,1-3.16,1.07,5.34,5.34,0,0,1-3.29-1.65,7.8,7.8,0,0,1,0,2.31,19.33,19.33,0,0,1-1,3.22l-1.3,3.66L98,371.51l1.35-4.22a23.18,23.18,0,0,0,.83-3,2.65,2.65,0,0,0-.08-1.24,5.65,5.65,0,0,0-.92-1.46l-.43-.54-5.53,4.37Zm9.76-3.38,1.56,2a13.76,13.76,0,0,0,2.07,2.28,1.83,1.83,0,0,0,1.15.3,2.24,2.24,0,0,0,1.21-.51,1.93,1.93,0,0,0,.52-2.63c-.14-.24-.64-.91-1.5-2l-1.65-2.09Z"/><path class="cls-2" d="M416.64,352.17l-1.88,2.64-5.08-3.62a9.66,9.66,0,0,0-2.21-1.32,1.81,1.81,0,0,0-1.13,0,2,2,0,0,0-.91.73,2.53,2.53,0,0,0-.5,1.5,2.28,2.28,0,0,0,.46,1.45,10.38,10.38,0,0,0,2.15,1.83l4.51,3.22-1.88,2.64-10-7.1,1.75-2.45,1.46,1a4.93,4.93,0,0,1,.65-4.49,5.08,5.08,0,0,1,1.45-1.37,3.38,3.38,0,0,1,1.58-.52,3.77,3.77,0,0,1,1.48.27,10.29,10.29,0,0,1,1.88,1.12Z"/><path class="cls-2" d="M396.87,364.29l-2.23,2a4.57,4.57,0,0,1-1-3,6.22,6.22,0,0,1,1.54-3.36,7.73,7.73,0,0,1,2.39-2.23,3.23,3.23,0,0,1,1.94-.38,6.81,6.81,0,0,1,2.55,1.44l3,2.36a14.36,14.36,0,0,0,2,1.34,7.34,7.34,0,0,0,1.66.55l-2,2.52a9.91,9.91,0,0,1-1-.34l-.37-.14a5.81,5.81,0,0,1-.14,2.14,5,5,0,0,1-.92,1.84,4.16,4.16,0,0,1-2.64,1.72,3.68,3.68,0,0,1-3.87-2.27,3.26,3.26,0,0,1-.13-1.86,11.08,11.08,0,0,1,1-2.49,17.11,17.11,0,0,0,1.31-3l-.25-.2a1.69,1.69,0,0,0-1.34-.45,2.8,2.8,0,0,0-1.38,1.12,2.37,2.37,0,0,0-.56,1.28A2.34,2.34,0,0,0,396.87,364.29Zm4.73-1.8a18.49,18.49,0,0,1-.82,1.85,6.21,6.21,0,0,0-.64,1.74,1.36,1.36,0,0,0,.51,1.2,1.6,1.6,0,0,0,1.24.33,1.78,1.78,0,0,0,1.19-.72,2.76,2.76,0,0,0,.57-1.67,2,2,0,0,0-.37-1.27,7.07,7.07,0,0,0-1.17-1.07Z"/><path class="cls-2" d="M104.53,378.65,114.7,369l-3.45-3.63,2.07-2,9.25,9.73-2.07,2-3.45-3.62-10.17,9.67Z"/><path class="cls-2" d="M383.35,373.56l2.08-2.19,1.3,1.24a4.51,4.51,0,0,1,0-2.19,4.36,4.36,0,0,1,1.11-2,4.68,4.68,0,0,1,3.71-1.47,6.79,6.79,0,0,1,4.4,2.13,7,7,0,0,1,2.42,4.37,4.68,4.68,0,0,1-1.27,3.8,4.14,4.14,0,0,1-1.56,1.05,6,6,0,0,1-2.2.31l4.47,4.25-2.23,2.34Zm6.49,1.75a4.71,4.71,0,0,0,2.77,1.5,2.52,2.52,0,0,0,2.09-.76,2.36,2.36,0,0,0,.64-2,4.7,4.7,0,0,0-1.64-2.59,4.4,4.4,0,0,0-2.6-1.4,2.39,2.39,0,0,0-2,.74,2.5,2.5,0,0,0-.69,2.06A4.08,4.08,0,0,0,389.84,375.31Z"/><path class="cls-2" d="M115.39,389.64l8.11-15.36,2.63,2.31L120.39,387l10-6.69,3,2.68-5.56,10.82,9.73-7.16,2.58,2.27-14.22,10-2.72-2.39L129,384.8l-10.85,7.28Z"/><path class="cls-2" d="M368.69,387.07l2.27-1.94L372,386.4a4.81,4.81,0,0,1,1.63-4,4.16,4.16,0,0,1,1.86-1,3.68,3.68,0,0,1,2,.19,5.84,5.84,0,0,1,.37-2.25,4.2,4.2,0,0,1,1.2-1.66,4.32,4.32,0,0,1,2.09-1.07,3.3,3.3,0,0,1,2.1.31,6.89,6.89,0,0,1,1.9,1.71l5.1,5.93-2.46,2.11-4.55-5.31a5.13,5.13,0,0,0-1.79-1.56,1.54,1.54,0,0,0-1.5.37,2.31,2.31,0,0,0-.7,1.15,2.33,2.33,0,0,0,.14,1.48,8.52,8.52,0,0,0,1.45,2.1l3.82,4.46-2.46,2.1-4.36-5.08a9.51,9.51,0,0,0-1.63-1.64,1.47,1.47,0,0,0-.91-.24,1.72,1.72,0,0,0-.92.45,2.39,2.39,0,0,0-.76,1.18,2.28,2.28,0,0,0,.11,1.45,8.68,8.68,0,0,0,1.45,2.08l3.87,4.51-2.46,2.11Z"/><path class="cls-2" d="M142.16,410.16l-3-2.14,1-4-5.51-3.89-3.36,2.32-3-2.09,15.12-10,2.95,2.09Zm-1.27-9.08,1.72-6.46-5.48,3.8Z"/><path class="cls-2" d="M361,400.77a6.58,6.58,0,0,1-1.32-2.94,5.38,5.38,0,0,1,.32-3.2,6.71,6.71,0,0,1,2.05-2.66,6.09,6.09,0,0,1,4.68-1.42A6.21,6.21,0,0,1,371,393a6.35,6.35,0,0,1,1.47,4.72,6,6,0,0,1-2.39,4.24,7.07,7.07,0,0,1-3,1.4,5.22,5.22,0,0,1-3.2-.29A7.47,7.47,0,0,1,361,400.77Zm2.71-1.94a4,4,0,0,0,2.41,1.64,2.72,2.72,0,0,0,2.27-.57,2.75,2.75,0,0,0,1.06-2.08,4.12,4.12,0,0,0-1.09-2.73,4,4,0,0,0-2.39-1.63,2.72,2.72,0,0,0-2.27.57,2.75,2.75,0,0,0-1.06,2.09A4,4,0,0,0,363.74,398.83Z"/><path class="cls-2" d="M145.7,412.39l3.53-6.17-.53-11.56,3.48,2,.13,7.77,6.7-3.87,3.41,1.95-10.26,5.43-3.51,6.16Z"/><path class="cls-2" d="M357,403.27l3.35-.89a7.39,7.39,0,0,1,.08,4.82,8,8,0,0,1-9,4.58,8.82,8.82,0,0,1-5.21-4.13,9.24,9.24,0,0,1-1.68-6.7,7.41,7.41,0,0,1,3.57-5,7,7,0,0,1,5.23-1.17,6.68,6.68,0,0,1,3.13,1.7l-2.41,2.49a3.51,3.51,0,0,0-4.53-.47,3.81,3.81,0,0,0-1.84,2.77,6.57,6.57,0,0,0,1.36,4.31q1.73,2.7,3.42,3.23a3.72,3.72,0,0,0,3.26-.47,3.39,3.39,0,0,0,1.51-2A5,5,0,0,0,357,403.27Z"/><path class="cls-2" d="M163.06,402.82l2.88,1.49-1.07,2.07a8.25,8.25,0,0,1-1.24,1.85,3.28,3.28,0,0,1-1.48.87,4.66,4.66,0,0,1-2,.12l.06-1.49a2.71,2.71,0,0,0,1.65-.15,2.68,2.68,0,0,0,1.09-1.16l-1.39-.72Zm4.83,2.51,2.88,1.49-1.08,2.06a7.43,7.43,0,0,1-1.24,1.85,3.41,3.41,0,0,1-1.49.87,4.72,4.72,0,0,1-2,.13l.06-1.49a2.76,2.76,0,0,0,1.64-.16,2.57,2.57,0,0,0,1.09-1.16l-1.38-.72Z"/><path class="cls-2" d="M172.13,426.05l6.12-15.59,3.18,1.25-5.09,12.94,7.89,3.1-1,2.65Z"/><path class="cls-2" d="M326.75,413.26l3.06-1.58,6.58,6.38L335,409l3-1.54,1.56,12.45.29,2.25a9.48,9.48,0,0,1,0,1.82,3.62,3.62,0,0,1-.37,1.22,3.71,3.71,0,0,1-.85,1.06,6.51,6.51,0,0,1-1.38.93,8.89,8.89,0,0,1-1.71.66l-1.42-2.12a7.46,7.46,0,0,0,1.28-.49,2.06,2.06,0,0,0,1.19-1.36,4.8,4.8,0,0,0,0-1.88Z"/><path class="cls-2" d="M326.65,413.11l1.07,2.35-2,.92,2,4.49a12.36,12.36,0,0,0,.78,1.56.7.7,0,0,0,.43.25,1,1,0,0,0,.57-.07,4.28,4.28,0,0,0,1.05-.83l1.3,2.17a6.47,6.47,0,0,1-2.13,1.5,4,4,0,0,1-1.56.39,2.25,2.25,0,0,1-1.25-.27,2.88,2.88,0,0,1-.94-1,14.75,14.75,0,0,1-1-2l-2.21-4.86-1.35.62L320.32,416l1.36-.62-1-2.21,2.18-3.07,1.78,3.94Z"/><path class="cls-2" d="M185.51,430.88l3.91-11.6,3.07,1-3.91,11.59ZM190,417.71l1-2.84,3.07,1-1,2.84Z"/><path class="cls-2" d="M314.26,431l-5.44-16,3.06-1.05,5.45,16Z"/><path class="cls-2" d="M315.27,415.84l-1.09-2.79,3-1.18,1.09,2.79Zm5.05,12.94-4.45-11.39,3-1.18,4.45,11.39Z"/><path class="cls-2" d="M194.16,421.58l2.91.67-.38,1.63a4.78,4.78,0,0,1,4.16-1,4,4,0,0,1,1.88.93,3.73,3.73,0,0,1,1.05,1.74,5.62,5.62,0,0,1,2-1,4.18,4.18,0,0,1,2,0,4.43,4.43,0,0,1,2.1,1.05,3.3,3.3,0,0,1,1,1.88,7,7,0,0,1-.24,2.54L209,437.55l-3.16-.73,1.58-6.82a5.17,5.17,0,0,0,.2-2.36,1.54,1.54,0,0,0-1.2-1,2.19,2.19,0,0,0-1.33.12,2.31,2.31,0,0,0-1.12,1,8.78,8.78,0,0,0-.83,2.41l-1.32,5.72-3.15-.73,1.51-6.53a10,10,0,0,0,.35-2.29,1.49,1.49,0,0,0-.35-.87,1.75,1.75,0,0,0-.91-.47,2.38,2.38,0,0,0-1.4.09,2.27,2.27,0,0,0-1.1.94,9.06,9.06,0,0,0-.82,2.4l-1.34,5.8-3.15-.73Z"/><path class="cls-2" d="M303.46,420l-1-2.84,3.07-1,1,2.83Zm4.48,13.15L304,421.52l3.07-1L311,432.06Z"/><path class="cls-2" d="M212.17,438l2.11-12.05,3.19.56-2.11,12.05Zm2.4-13.69.52-2.95,3.19.56-.52,2.95Z"/><path class="cls-2" d="M293.91,436.84l-3.78-16.46,3.15-.73,1.36,5.93a4.62,4.62,0,0,1,3.08-2.46,4.81,4.81,0,0,1,4,.75,6.73,6.73,0,0,1,2.46,4.21,7.06,7.06,0,0,1-.37,5,4.68,4.68,0,0,1-3.15,2.46,4.4,4.4,0,0,1-2.13-.05,4.86,4.86,0,0,1-2.06-1.12l.4,1.75Zm1.7-6.94a5.21,5.21,0,0,0,1.21,2.6,2.55,2.55,0,0,0,2.47.76,2.3,2.3,0,0,0,1.58-1.3,4.55,4.55,0,0,0,.09-3,4.82,4.82,0,0,0-1.42-2.78,2.51,2.51,0,0,0-3.79.85A4.16,4.16,0,0,0,295.61,429.9Z"/><path class="cls-2" d="M225.65,427.89l-.33,2.56-2.19-.29-.64,4.89a12,12,0,0,0-.16,1.74.7.7,0,0,0,.23.44.83.83,0,0,0,.52.23,3.92,3.92,0,0,0,1.33-.14l0,2.53a6.54,6.54,0,0,1-2.6.15,4.07,4.07,0,0,1-1.52-.5,2.34,2.34,0,0,1-.93-.88,3.21,3.21,0,0,1-.29-1.31,15.79,15.79,0,0,1,.2-2.28l.68-5.29-1.47-.19.33-2.56,1.48.19.31-2.41,3.47-1.45-.56,4.28Z"/><path class="cls-2" d="M233.73,437l3.18.79a5.35,5.35,0,0,1-2.16,2.54,5.78,5.78,0,0,1-3.42.67,5.47,5.47,0,0,1-4.56-2.44,7,7,0,0,1-.88-4.29,6.75,6.75,0,0,1,1.94-4.63,5.21,5.21,0,0,1,4.14-1.41,5.38,5.38,0,0,1,4.16,2.12q1.44,1.92,1.09,5.62l-8.09-.61a3.3,3.3,0,0,0,.61,2.29,2.44,2.44,0,0,0,1.8.94,2,2,0,0,0,1.31-.31A2.54,2.54,0,0,0,233.73,437Zm.44-3.25a3.11,3.11,0,0,0-.57-2.18,2.22,2.22,0,0,0-1.62-.86,2.25,2.25,0,0,0-1.8.64,3,3,0,0,0-.84,2Z"/><path class="cls-2" d="M272.84,426.26l-.38-3,3.21-.42.38,3Zm1.8,13.78-1.58-12.13,3.21-.42,1.58,12.13Z"/><path class="cls-2" d="M282.1,430.46l-3,0a4.56,4.56,0,0,1,1.23-2.88,6.3,6.3,0,0,1,3.39-1.46,7.66,7.66,0,0,1,3.27-.05,3.16,3.16,0,0,1,1.69,1,6.58,6.58,0,0,1,.93,2.78l.62,3.73a12.86,12.86,0,0,0,.56,2.32,7.23,7.23,0,0,0,.86,1.52l-3.16.55c-.12-.2-.27-.5-.47-.89a2.86,2.86,0,0,0-.18-.36,5.61,5.61,0,0,1-1.54,1.5,4.9,4.9,0,0,1-1.91.75,4.15,4.15,0,0,1-3.11-.5,3.38,3.38,0,0,1-1.52-2.36,3.41,3.41,0,0,1,.17-1.91,3.23,3.23,0,0,1,1.15-1.47,11.11,11.11,0,0,1,2.4-1.18,17.85,17.85,0,0,0,3-1.33l-.06-.32a1.72,1.72,0,0,0-.68-1.23,2.76,2.76,0,0,0-1.79-.09,2.35,2.35,0,0,0-1.27.57A2.42,2.42,0,0,0,282.1,430.46Zm4.72,1.84c-.39.2-1,.48-1.86.83a6,6,0,0,0-1.64.86,1.34,1.34,0,0,0-.42,1.23,1.59,1.59,0,0,0,.7,1.07,1.76,1.76,0,0,0,1.36.26,2.77,2.77,0,0,0,1.54-.85,2,2,0,0,0,.58-1.19,7,7,0,0,0-.15-1.58Z"/><path class="cls-2" d="M250.72,441.72l-3-.07,0-1.79a5,5,0,0,1-1.8,1.52,4.59,4.59,0,0,1-2.07.47,4.65,4.65,0,0,1-3.57-1.78,8.31,8.31,0,0,1,.16-9.47,4.79,4.79,0,0,1,3.74-1.54,4.61,4.61,0,0,1,3.51,1.78l.13-6.08,3.24.07Zm-8.5-6.57a5.55,5.55,0,0,0,.48,2.84,2.43,2.43,0,0,0,2.16,1.32,2.39,2.39,0,0,0,1.92-.91,4.37,4.37,0,0,0,.85-2.82,4.75,4.75,0,0,0-.7-3.05,2.37,2.37,0,0,0-1.92-1,2.41,2.41,0,0,0-1.95.87A4.05,4.05,0,0,0,242.22,435.15Z"/><path class="cls-2" d="M260.58,441.54l-1.27-16.71,3.4-.26,1.05,13.87,8.46-.64.21,2.83Z"/><polygon class="cls-2" points="208.47 281.46 243.51 281.46 208.47 185.62 176.12 185.62 173.44 185.62 138.4 281.46 157.39 281.46 149.77 264.32 176.08 192.54 208.47 281.46"/><path class="cls-2" d="M184.69,253.24a8.2,8.2,0,1,1-8.2-8.2,8.2,8.2,0,0,1,8.2,8.2"/><path class="cls-2" d="M244.89,229.39V185.85h12.2q9.15,0,13.27,2.75t4.13,8.74a10.88,10.88,0,0,1-2.25,7.06,12.93,12.93,0,0,1-6.78,4.09l10.24,20.9h-5.29l-9.59-19.75h-11.2v19.75Zm12.2-39.48h-7.47v15.7h7.29q6.73,0,9.72-1.85a6.5,6.5,0,0,0,3-6c0-2.92-.88-5-2.66-6.13s-5.06-1.75-9.86-1.75"/><polygon class="cls-2" points="291.37 229.39 291.37 190.02 278.67 190.02 278.67 185.85 309.01 185.85 309.01 190.02 296.31 190.02 296.31 229.39 291.37 229.39"/><polygon class="cls-2" points="257.49 281.46 244.79 237.91 249.67 237.91 258.93 270.55 259.26 270.55 268.7 237.91 273.11 237.91 282.54 270.55 282.84 270.55 292.13 237.91 296.95 237.91 284.31 281.46 281.16 281.46 270.87 246.12 260.64 281.46 257.49 281.46"/><path class="cls-2" d="M297.51,281.46l13.43-43.54h7.32l13.38,43.54h-5.06l-3.91-13.55h-16.2l-3.85,13.55Zm10.11-17.58h13.73l-6.49-22.7h-.68Z"/><polygon class="cls-2" points="344.72 281.46 344.72 263.08 331.5 237.91 336.73 237.91 347.08 258.03 357.49 237.91 362.75 237.91 349.49 263.08 349.49 281.46 344.72 281.46"/></g></g></svg>