<svg width="36" height="36" viewBox="0 0 36 36" fill="none" xmlns="http://www.w3.org/2000/svg">
<circle cx="18" cy="18" r="17" fill="#00C9A7" stroke="white" stroke-width="2"/>
<path d="M11.3075 17.8792C11.3458 21.8716 14.9203 24.9584 18.8291 24.3586C22.7566 23.7554 25.2201 19.9705 24.201 16.1079C24.1105 15.7667 24.1946 15.4914 24.4409 15.3213C24.6592 15.1709 24.9778 15.1507 25.1754 15.3257C25.3077 15.4438 25.4056 15.5955 25.4586 15.7647C26.515 19.4636 24.6567 23.4432 21.1422 25.0292C20.0868 25.5085 18.9386 25.7489 17.7796 25.7331C16.6205 25.7174 15.4793 25.4459 14.4373 24.938C13.3953 24.4302 12.4784 23.6985 11.7519 22.7953C11.0254 21.892 10.5074 20.8395 10.2348 19.7129C9.1532 15.2948 12.1221 10.8225 16.6223 10.1068C18.6251 9.78818 20.4849 10.183 22.1844 11.2866C22.353 11.4084 22.4787 11.5805 22.5433 11.7782C22.6239 12.0295 22.503 12.2644 22.2778 12.4144C22.0271 12.582 21.7651 12.5683 21.5163 12.405C20.9616 12.0392 20.3557 11.7575 19.7185 11.5693C16.0058 10.4745 12.0758 12.9188 11.4367 16.7352C11.3733 17.1122 11.3497 17.4972 11.3075 17.8792Z" fill="white"/>
<path d="M25.6517 12.3136C25.5852 12.4069 25.5095 12.4932 25.4256 12.5712C23.115 14.8834 20.8044 17.1948 18.4938 19.5054C18.0425 19.9562 17.7353 19.9562 17.2845 19.5054C16.4733 18.6943 15.6623 17.8831 14.8515 17.0719C14.5329 16.7519 14.5339 16.3198 14.8456 16.0572C15.1204 15.8262 15.4847 15.8522 15.7718 16.1384C16.0766 16.4402 16.3802 16.7427 16.6827 17.0459C16.9852 17.349 17.2879 17.6527 17.5908 17.9568L17.8857 18.2425L18.1994 17.9475C19.2409 16.9033 20.2835 15.8598 21.327 14.8169L22.9346 13.2093L24.5427 11.6022C24.6044 11.5369 24.6724 11.4778 24.7457 11.4257C24.8704 11.3445 25.0191 11.3083 25.1672 11.3229C25.3153 11.3376 25.4539 11.4023 25.5603 11.5064C25.6668 11.6095 25.7341 11.7463 25.7508 11.8936C25.7675 12.0408 25.7325 12.1893 25.6517 12.3136Z" fill="white"/>
</svg>
