<svg width="18" height="17" viewBox="0 0 18 17" fill="none" xmlns="http://www.w3.org/2000/svg">
<path d="M12.4531 0C14.6614 0.119971 16.5038 1.21374 17.4768 3.48477C18.4225 5.69125 18.0881 7.81214 16.4575 9.57803C14.714 11.4653 12.8443 13.2361 11.03 15.0574C10.4853 15.6039 9.9427 16.1519 9.39309 16.6935C9.00681 17.0745 8.51959 17.1004 8.17818 16.7707C7.83677 16.4409 7.84588 15.9288 8.24197 15.5296C10.5115 13.2536 12.7822 10.9791 15.054 8.70596C16.5781 7.1723 16.7428 4.91179 15.4746 3.24974C14.0249 1.35546 11.2186 1.06851 9.49333 2.71373C7.69165 4.43121 5.96008 6.22165 4.19836 7.97982C3.60317 8.57406 3.00308 9.16479 2.4156 9.76675C1.41241 10.7918 1.39979 12.317 2.38125 13.2887C3.34168 14.2422 4.87626 14.2422 5.87525 13.2515C7.97417 11.1692 10.0645 9.07803 12.1461 6.97796C12.5429 6.58016 12.5604 6.07502 12.2092 5.73615C11.858 5.39729 11.3911 5.42395 10.9957 5.81754C9.68005 7.1309 8.36559 8.4445 7.0523 9.75834C6.94083 9.87718 6.81315 9.97969 6.67304 10.0628C6.5154 10.1415 6.33643 10.1666 6.16324 10.1344C5.99005 10.1022 5.83207 10.0143 5.71322 9.88422C5.59437 9.7541 5.52113 9.58876 5.50457 9.41325C5.48801 9.23774 5.52905 9.0616 5.62147 8.91152C5.67212 8.8344 5.73139 8.76332 5.79814 8.69964C7.16868 7.32664 8.5322 5.94242 9.91606 4.58626C10.1936 4.30768 10.534 4.10007 10.9086 3.98097C11.2832 3.86188 11.6809 3.8348 12.0682 3.90203C12.4555 3.96926 12.8209 4.12883 13.1335 4.36723C13.4461 4.60564 13.6968 4.91587 13.8643 5.2717C14.3242 6.24129 14.1216 7.32314 13.314 8.13557C11.9465 9.51161 10.5755 10.8844 9.201 12.2539C8.47472 12.9807 7.75825 13.7188 7.01865 14.433C4.77531 16.6016 1.14601 15.7302 0.218535 12.7885C-0.246958 11.3152 0.026449 9.93934 1.08432 8.8119C2.39457 7.41434 3.77633 6.08344 5.13144 4.72798C6.20264 3.64824 7.26402 2.56148 8.36466 1.51472C9.43445 0.49602 10.7447 0.0301681 12.4531 0Z" fill="#1882A7"/>
</svg>
