<svg width="24" height="24" viewBox="0 0 24 24" fill="none" xmlns="http://www.w3.org/2000/svg">
<path d="M17.23 5.18088L17.23 5.18088C17.8135 6.18789 17.829 7.39171 17.273 8.40943C17.273 8.40943 17.273 8.40944 17.273 8.40944L14.5232 13.4426C14.5149 13.4564 14.5061 13.4637 14.4988 13.4679C14.4913 13.4723 14.4803 13.4762 14.464 13.4762C14.4477 13.4762 14.4368 13.4723 14.4292 13.4679C14.422 13.4637 14.4131 13.4564 14.4049 13.4426L11.655 8.40943C11.099 7.39171 11.1145 6.18789 11.698 5.18089C12.2676 4.19797 13.2728 3.60342 14.3909 3.58061L14.391 3.58061C14.4396 3.57961 14.4885 3.57961 14.537 3.58061L14.5371 3.58061C15.6552 3.60342 16.6604 4.19797 17.23 5.18088Z" stroke="#4E5C62" stroke-width="1.2"/>
<path d="M9.82156 11.7153C9.28593 11.7153 7.96525 11.7153 6.96755 11.7153C5.72042 11.7153 5 12.7682 5 13.9043C5 15.0403 5.7484 16.2041 6.96755 16.2041C8.18669 16.2041 13.2851 16.2041 15.2524 16.2041C17.2197 16.2041 17.6907 17.5064 17.6907 18.5039C17.6907 19.5014 16.804 20.6651 15.2524 20.6651C14.011 20.6651 10.3572 20.6651 8.68544 20.6651" stroke="#4E5C62" stroke-width="1.2" stroke-linecap="round"/>
<circle cx="14.464" cy="6.96917" r="1.32073" stroke="#4E5C62"/>
</svg>
