<svg width="24" height="24" viewBox="0 0 24 24" fill="none" xmlns="http://www.w3.org/2000/svg">
<g clip-path="url(#clip0_372_124)">
<path d="M10.35 12C10.35 13.5995 11.6505 14.9 13.25 14.9H16.35V18.9375C16.35 19.7163 15.7163 20.35 14.9375 20.35H7.0625C6.28373 20.35 5.65 19.7163 5.65 18.9375V5.0625C5.65 4.28374 6.28374 3.65 7.0625 3.65H14.9375C15.7163 3.65 16.35 4.28374 16.35 5.0625V9.1H13.25C11.6505 9.1 10.35 10.4005 10.35 12Z" stroke="#AFAFAF" stroke-width="1.3"/>
<path d="M18.9627 15.693C18.683 15.5768 18.3229 15.2322 18.5 15L20.663 12.75H13.25C12.836 12.75 12.5 12.414 12.5 12C12.5 11.586 12.836 11.25 13.25 11.25H20.663L18.5 9.00002C18.3327 8.83276 18.683 8.42327 18.9627 8.30702C19.2432 8.19077 19.5657 8.25527 19.7802 8.46977L22.7802 11.4698C23.0735 11.763 23.0735 12.237 22.7802 12.5303L19.7802 15.5303C19.5657 15.7448 19.2432 15.8093 18.9627 15.693Z" fill="#AFAFAF"/>
</g>
<defs>
<clipPath id="clip0_372_124">
<rect width="18" height="18" fill="white" transform="translate(5 3)"/>
</clipPath>
</defs>
</svg>
