<svg width="24" height="24" viewBox="0 0 24 24" fill="none" xmlns="http://www.w3.org/2000/svg">
<path fill-rule="evenodd" clip-rule="evenodd" d="M12.0502 7.95987L15.505 4.5051C15.7784 4.23173 16.2216 4.23173 16.495 4.5051L19.9497 7.95987C20.2231 8.23324 20.2231 8.67645 19.9497 8.94982C19.6764 9.22319 19.2332 9.22319 18.9598 8.94982L16.7 6.69002L16.7 18.0001C16.7 18.3867 16.3866 18.7001 16 18.7001C15.6134 18.7001 15.3 18.3867 15.3 18.0001L15.3 6.69002L13.0402 8.94982C12.7668 9.22319 12.3236 9.22319 12.0502 8.94982C11.7769 8.67645 11.7769 8.23324 12.0502 7.95987Z" fill="#AFAFAF"/>
<path fill-rule="evenodd" clip-rule="evenodd" d="M8.49496 18.495C8.2216 18.7684 7.77838 18.7684 7.50501 18.495L4.05024 15.0403C3.77687 14.7669 3.77687 14.3237 4.05024 14.0503C4.32361 13.777 4.76682 13.777 5.04019 14.0503L7.29999 16.3101L7.29999 5.00007C7.29999 4.61347 7.61339 4.30007 7.99999 4.30007C8.38659 4.30007 8.69999 4.61347 8.69999 5.00007L8.69999 16.3101L10.9598 14.0503C11.2332 13.777 11.6764 13.777 11.9497 14.0503C12.2231 14.3237 12.2231 14.7669 11.9497 15.0403L8.49496 18.495Z" fill="#AFAFAF"/>
</svg>
