<svg width="24" height="24" viewBox="0 0 24 24" fill="none" xmlns="http://www.w3.org/2000/svg">
<path d="M16.3921 12.3209H11.7302C11.6116 12.3209 11.5155 12.2081 11.5155 12.0689C11.5155 11.9297 11.6116 11.8169 11.7302 11.8169H16.3921C16.5107 11.8169 16.6068 11.9297 16.6068 12.0689C16.6068 12.2081 16.5107 12.3209 16.3921 12.3209Z" fill="#AFAFAF" stroke="#AFAFAF" stroke-width="0.8"/>
<path d="M16.3921 8.09799H11.7301C11.6116 8.09799 11.5155 7.9852 11.5155 7.84599C11.5155 7.70679 11.6116 7.59399 11.7301 7.59399H16.3921C16.5107 7.59399 16.6068 7.70679 16.6068 7.84599C16.6068 7.9852 16.5107 8.09799 16.3921 8.09799Z" fill="#AFAFAF" stroke="#AFAFAF" stroke-width="0.8"/>
<path d="M16.3921 16.544H11.7301C11.6116 16.544 11.5155 16.4312 11.5155 16.292C11.5155 16.1528 11.6116 16.04 11.7301 16.04H16.3921C16.5107 16.04 16.6068 16.1528 16.6068 16.292C16.6068 16.4312 16.5107 16.544 16.3921 16.544Z" fill="#AFAFAF" stroke="#AFAFAF" stroke-width="0.8"/>
<path d="M14.2309 5H9.76911C9.34503 5 9 4.7161 9 4.36711V3.63291C9.00003 3.28393 9.34503 3 9.76911 3H14.2309C14.655 3 15 3.28393 15 3.63291V4.36711C15 4.7161 14.655 5 14.2309 5ZM9.76911 3.42462C9.62955 3.42462 9.516 3.51807 9.516 3.63291V4.36711C9.516 4.48196 9.62955 4.57538 9.76911 4.57538H14.2309C14.3704 4.57538 14.484 4.48193 14.484 4.36711V3.63291C14.484 3.51804 14.3704 3.42462 14.2309 3.42462H9.76911Z" fill="#AFAFAF" stroke="#AFAFAF" stroke-width="0.8"/>
<path d="M9.32593 9.08234H8.14372C7.74994 9.08234 7.42957 8.77883 7.42957 8.40577V7.28582C7.42957 6.91276 7.74994 6.60925 8.14372 6.60925H9.32593C9.71972 6.60925 10.0401 6.91276 10.0401 7.28582V8.40581C10.0401 8.77883 9.71972 9.08234 9.32593 9.08234ZM8.14372 7.11325C8.04328 7.11325 7.96157 7.19067 7.96157 7.28582V8.40581C7.96157 8.50096 8.04328 8.57838 8.14372 8.57838H9.32593C9.42637 8.57838 9.50809 8.50096 9.50809 8.40581V7.28582C9.50809 7.19067 9.42637 7.11325 9.32593 7.11325H8.14372Z" fill="#AFAFAF" stroke="#AFAFAF" stroke-width="0.8"/>
<path d="M9.32605 13.3054H8.14384C7.75006 13.3054 7.42969 13.0019 7.42969 12.6288V11.5088C7.42969 11.1358 7.75006 10.8323 8.14384 10.8323H9.32605C9.71984 10.8323 10.0402 11.1358 10.0402 11.5088V12.6288C10.0402 13.0019 9.71984 13.3054 9.32605 13.3054ZM8.14384 11.3363C8.0434 11.3363 7.96169 11.4137 7.96169 11.5088V12.6288C7.96169 12.724 8.0434 12.8014 8.14384 12.8014H9.32605C9.4265 12.8014 9.50821 12.724 9.50821 12.6288V11.5088C9.50821 11.4137 9.4265 11.3363 9.32605 11.3363H8.14384Z" fill="#AFAFAF" stroke="#AFAFAF" stroke-width="0.8"/>
<path d="M9.32605 17.5285H8.14384C7.75006 17.5285 7.42969 17.225 7.42969 16.8519V15.7319C7.42969 15.3588 7.75006 15.0553 8.14384 15.0553H9.32605C9.71984 15.0553 10.0402 15.3588 10.0402 15.7319V16.8519C10.0402 17.225 9.71984 17.5285 9.32605 17.5285ZM8.14384 15.5593C8.0434 15.5593 7.96169 15.6368 7.96169 15.7319V16.8519C7.96169 16.947 8.0434 17.0245 8.14384 17.0245H9.32605C9.4265 17.0245 9.50821 16.947 9.50821 16.8519V15.7319C9.50821 15.6368 9.4265 15.5593 9.32605 15.5593H8.14384Z" fill="#AFAFAF" stroke="#AFAFAF" stroke-width="0.8"/>
<path d="M17.8157 20.9999H6.18431C5.53126 20.9999 5 20.4881 5 19.8591V5.14065C5 4.51163 5.5313 3.99988 6.18431 3.99988H7.11905C7.27003 3.99988 7.39243 4.11775 7.39243 4.26321C7.39243 4.40868 7.27003 4.52655 7.11905 4.52655H6.18431C5.83274 4.52655 5.54676 4.80203 5.54676 5.14065V19.859C5.54676 20.1977 5.83278 20.4732 6.18431 20.4732H17.8157C18.1673 20.4732 18.4532 20.1977 18.4532 19.859V5.14065C18.4532 4.802 18.1672 4.52655 17.8157 4.52655H16.9081C16.7571 4.52655 16.6347 4.40868 16.6347 4.26321C16.6347 4.11775 16.7571 3.99988 16.9081 3.99988H17.8157C18.4687 3.99988 19 4.51163 19 5.14065V19.859C19 20.4881 18.4687 20.9999 17.8157 20.9999Z" fill="#AFAFAF" stroke="#AFAFAF" stroke-width="0.8"/>
</svg>
