<svg width="24" height="24" viewBox="0 0 24 24" fill="none" xmlns="http://www.w3.org/2000/svg">
<path fill-rule="evenodd" clip-rule="evenodd" d="M10.884 21.5321C11.6087 21.6227 12.3602 21.6224 13.1091 21.5324L13.1169 21.5315L13.9746 21.417L14.4089 18.9253C14.677 18.8349 14.9433 18.7301 15.2103 18.6013L17.2793 20.0593L17.9373 19.5206C18.5064 19.0705 19.0438 18.5324 19.4932 17.9628L19.4978 17.957L20.0166 17.2649L18.5793 15.2227C18.6467 15.0909 18.7063 14.9577 18.758 14.8231C18.8244 14.6879 18.883 14.5503 18.9332 14.4066L21.4132 13.9738L21.5286 13.1081C21.6183 12.3596 21.6179 11.6151 21.5586 10.9324L21.5574 10.9187L21.4413 10.0472L18.9512 9.61264C18.8607 9.34415 18.7559 9.07753 18.6271 8.81026L20.0728 6.75615L19.554 6.06408L19.5494 6.05824C19.0989 5.48726 18.5599 4.94792 17.9893 4.49714L17.9835 4.49253L17.2913 3.9731L15.2503 5.41131C15.1187 5.34404 14.9857 5.2844 14.8514 5.23274C14.7163 5.16637 14.5788 5.10772 14.4352 5.05745L14.0027 2.57589L13.1303 2.45951L13.1155 2.45828C12.7797 2.43027 12.3914 2.39997 12.0261 2.39997C11.6608 2.39997 11.2725 2.43027 10.9367 2.45828L10.9219 2.45951L10.0496 2.57589L9.61522 5.06761C9.34708 5.15805 9.08079 5.26287 8.81385 5.39161L6.76091 3.94499L6.06877 4.46441L6.06293 4.46902C5.49229 4.91981 4.95328 5.45915 4.50279 6.03012L4.49818 6.03596L3.97945 6.72804L5.4167 8.7702C5.34937 8.90205 5.28969 9.03527 5.23801 9.16985C5.17167 9.30506 5.11305 9.44264 5.06282 9.58629L2.58282 10.0191L2.46786 10.8819C2.37728 11.607 2.37766 12.3588 2.46752 13.1081L2.46846 13.1159L2.58282 13.9738L5.07296 14.4084C5.16341 14.6769 5.26824 14.9435 5.39701 15.2108L3.94004 17.281L4.47799 17.9389C4.92782 18.5083 5.46558 19.0461 6.03484 19.4958L6.04067 19.5004L6.73281 20.0198L8.77381 18.5816C8.90542 18.6489 9.0384 18.7085 9.17275 18.7602C9.30786 18.8266 9.44534 18.8852 9.5889 18.9355L10.0215 21.417L10.884 21.5321ZM11.0525 20.3438L10.6377 17.9641L10.2458 17.877C10.0466 17.8327 9.86812 17.7664 9.68157 17.6731L9.6534 17.659L9.6239 17.6479C9.44024 17.579 9.25125 17.4851 9.05693 17.3636L8.719 17.1522L6.75555 18.5358C6.27894 18.1563 5.82578 17.7037 5.44524 17.2272L6.80616 15.2935L6.62072 14.9637C6.39682 14.5654 6.24372 14.161 6.11141 13.7109L6.00626 13.3531L3.65635 12.943C3.58107 12.3008 3.58149 11.6614 3.65624 11.0499L6.03445 10.6349L6.12149 10.2429C6.16577 10.0435 6.23206 9.86487 6.32536 9.67817L6.33943 9.65001L6.35048 9.62053C6.41937 9.4367 6.51322 9.24756 6.63468 9.05309L6.84558 8.71546L5.46283 6.75074C5.84552 6.26941 6.30265 5.81198 6.78365 5.42901L8.731 6.80123L9.06118 6.61539C9.45917 6.39138 9.86323 6.2382 10.313 6.10583L10.6707 6.00057L11.0803 3.65048C11.4044 3.62371 11.7304 3.59998 12.0261 3.59998C12.3218 3.59998 12.6478 3.62371 12.9719 3.65048L13.3864 6.02879L13.7784 6.11593C13.9775 6.16021 14.156 6.22652 14.3426 6.31985L14.3707 6.33395L14.4002 6.34502C14.5839 6.41393 14.7729 6.50782 14.9672 6.62934L15.3051 6.84068L17.2686 5.45712C17.7496 5.84009 18.2067 6.29753 18.5894 6.77886L17.218 8.72749L17.4034 9.05737C17.6273 9.45566 17.7804 9.86002 17.9127 10.3101L18.0179 10.6679L20.3666 11.0778C20.4156 11.6699 20.4141 12.3081 20.3397 12.943L17.9616 13.3581L17.8745 13.75C17.8303 13.9494 17.764 14.1281 17.6707 14.3148L17.6566 14.3429L17.6456 14.3724C17.5767 14.5562 17.4828 14.7454 17.3613 14.9398L17.1505 15.2775L18.5332 17.2422C18.154 17.7191 17.7017 18.1726 17.2256 18.5534L15.2931 17.1917L14.9629 17.3775C14.565 17.6015 14.1609 17.7547 13.7111 17.8871L13.3534 17.9924L12.9436 20.3437C12.3021 20.4189 11.6633 20.4185 11.0525 20.3438ZM11.998 14.7701C10.4753 14.7701 9.22641 13.521 9.22641 11.9965C9.22641 10.472 10.4753 9.22278 11.998 9.22278C13.5207 9.22278 14.7696 10.472 14.7696 11.9965C14.7696 13.521 13.5207 14.7701 11.998 14.7701ZM8.02641 11.9965C8.02641 14.183 9.81191 15.9701 11.998 15.9701C14.1841 15.9701 15.9696 14.183 15.9696 11.9965C15.9696 9.80991 14.1841 8.02278 11.998 8.02278C9.81191 8.02278 8.02641 9.80991 8.02641 11.9965Z" fill="#AFAFAF" stroke="#AFAFAF" stroke-width="0.2"/>
</svg>
