<svg width="24" height="24" viewBox="0 0 24 24" fill="none" xmlns="http://www.w3.org/2000/svg">
<path d="M12.9802 14.9037C12.8201 14.986 12.6488 15.0302 12.5396 15.1377C11.4574 16.2057 10.3819 17.2807 9.3131 18.3625C9.22558 18.4582 9.11835 18.5337 8.9988 18.5839C8.87924 18.634 8.75023 18.6576 8.62066 18.6531C7.13727 18.6447 5.65388 18.6503 4.17104 18.648C3.80271 18.648 3.60232 18.5042 3.54522 18.2181C3.49652 17.9785 3.62135 17.8106 3.78032 17.6539C4.86348 16.5735 5.9416 15.4876 7.02699 14.4111C7.09274 14.3536 7.14409 14.2814 7.17694 14.2004C7.2098 14.1195 7.22324 14.0319 7.2162 13.9448C7.20276 13.6935 7.20892 13.441 7.2162 13.1891C7.22459 12.8219 7.42891 12.5958 7.74462 12.5947C8.06033 12.5935 8.26409 12.8186 8.27136 13.1858C8.27528 13.3907 8.27584 13.5961 8.2792 13.8015C8.2875 13.8355 8.29932 13.8685 8.31447 13.9C8.50591 13.9 8.71862 13.9174 8.92406 13.8883C8.98003 13.8805 9.05224 13.7304 9.05392 13.6448C9.06456 12.9636 9.05952 12.2823 9.06008 11.6011C9.06008 10.9036 9.12781 10.823 9.83536 10.7138C9.84096 10.6226 9.85216 10.5241 9.85216 10.4261C9.85216 9.85682 9.85216 9.28753 9.85216 8.71825C9.85552 8.3085 10.0458 8.11817 10.4528 8.11425C10.9443 8.10978 11.4357 8.11425 11.9429 8.11425V7.08316H8.2708C8.2708 7.33449 8.27584 7.57464 8.2708 7.81422C8.26241 8.14336 8.06033 8.35775 7.76197 8.36503C7.46361 8.37231 7.23187 8.16295 7.22123 7.84221C7.20668 7.40391 7.20668 6.96449 7.22123 6.52674C7.23187 6.20991 7.44514 6.02295 7.76421 6.00224C7.84818 5.9972 7.93214 6.00224 8.01611 6.00224H20.1312C20.1872 6.00224 20.2432 6.00224 20.2992 6.00224C20.6826 6.01008 20.9211 6.21719 20.9149 6.53738C20.9088 6.85757 20.6703 7.05853 20.2818 7.05853C17.9871 7.05853 15.6921 7.05853 13.3966 7.05853H13.0401V13.9023H20.1682C20.6613 13.9023 20.9099 14.0747 20.9171 14.4206C20.9244 14.7772 20.6686 14.9608 20.1637 14.9608C19.8866 14.9608 19.6101 14.9608 19.2832 14.9608C19.5346 15.458 19.6376 16.0171 19.5799 16.5713C19.5104 17.2486 19.244 17.8313 18.7049 18.2629C18.022 18.807 17.0978 18.7723 16.4496 18.1857C16.3606 18.1045 16.289 18.0043 16.1574 17.8537C16.0891 17.9584 16.0539 18.0396 15.9956 18.0978C15.212 18.8736 14.0605 18.8339 13.3586 17.9858C12.712 17.2021 12.6046 16.3065 12.9107 15.351C12.9449 15.2452 12.9874 15.1416 13.0227 15.0369C13.0266 15.0274 13.0188 15.0174 12.9802 14.9037ZM5.37119 17.5906C6.45099 17.5906 7.45634 17.594 8.46169 17.585C8.54845 17.585 8.65201 17.5167 8.71862 17.4507C9.49446 16.6834 10.2664 15.9124 11.0344 15.1377C11.0787 15.0827 11.118 15.0239 11.1519 14.9619C10.1029 14.9619 9.09703 14.958 8.09112 14.9686C7.99652 14.9686 7.88512 15.0465 7.81123 15.1187C7.0548 15.865 6.30246 16.6161 5.55424 17.3717C5.50554 17.4216 5.46523 17.4798 5.37119 17.5906ZM11.9356 13.9V11.8031C11.3703 11.8031 10.8301 11.7981 10.2899 11.8104C10.2516 11.821 10.2167 11.8412 10.1885 11.8692C10.1603 11.8971 10.1397 11.9318 10.1287 11.97C10.1164 12.5577 10.1169 13.1455 10.1287 13.7332C10.1287 13.7892 10.2132 13.8916 10.2602 13.8928C10.8155 13.904 11.3719 13.9 11.9356 13.9ZM13.8058 16.2763C13.8226 16.6681 13.9111 17.0336 14.1876 17.3286C14.5134 17.6751 14.9332 17.6779 15.2646 17.3393C15.7768 16.8159 15.7773 15.7406 15.2646 15.2121C14.9371 14.8763 14.5095 14.8796 14.1865 15.2245C13.9071 15.5223 13.8198 15.8872 13.8058 16.2763ZM18.5476 16.2813C18.5426 15.9135 18.4564 15.5665 18.2118 15.2737C17.8759 14.8701 17.4074 14.8623 17.0586 15.2502C16.5879 15.7742 16.5918 16.7935 17.0665 17.313C17.4096 17.688 17.8698 17.683 18.2006 17.2945C18.4463 17.0051 18.537 16.6592 18.5448 16.2813H18.5476ZM11.9463 9.19685H10.9264V10.7239H11.9463V9.19685Z" fill="#AFAFAF"/>
<path d="M6.4605 11.0009C6.21644 11.0009 6.05187 11.0009 5.8873 11.0009C4.25669 10.9735 3.01287 9.71683 3.00224 8.0879C3.00224 7.75204 2.9972 7.41617 3.00224 7.08031C3.00784 6.7674 3.23063 6.53341 3.51555 6.52558C3.80047 6.51774 4.04845 6.75788 4.05629 7.08535C4.06412 7.41281 4.05629 7.73804 4.05909 8.06439C4.07252 9.13803 4.83045 9.93458 5.90185 9.95081C6.06978 9.95081 6.2282 9.95081 6.39109 9.95081C6.46498 9.95081 6.52936 9.95361 6.59261 9.95081C6.45994 9.84894 6.17614 9.6491 6.06195 9.52987C5.96474 9.43362 5.90913 9.30312 5.90704 9.16634C5.90494 9.02957 5.95654 8.89742 6.05075 8.79825C6.25787 8.58162 6.5691 8.56818 6.8014 8.79265C7.24437 9.22181 7.6795 9.65787 8.10679 10.1008C8.33462 10.3365 8.34021 10.6164 8.11407 10.852C7.68827 11.2961 7.25314 11.7311 6.80868 12.1569C6.5747 12.3808 6.26402 12.3757 6.05747 12.1664C5.85091 11.957 5.85931 11.6469 6.0709 11.4113C6.1795 11.2915 6.29369 11.1767 6.4605 11.0009Z" fill="#AFAFAF"/>
<path d="M19.0788 12.3186C19.0732 12.2164 19.0732 12.114 19.0788 12.0119C19.0889 11.8855 19.1454 11.7673 19.2374 11.68C19.3293 11.5927 19.4502 11.5424 19.577 11.5388C19.7039 11.5299 19.8295 11.5693 19.9286 11.6492C20.0276 11.729 20.0928 11.8434 20.111 11.9693C20.139 12.2 20.1401 12.4331 20.1144 12.664C20.0993 12.7956 20.0333 12.9161 19.9306 12.9997C19.8279 13.0834 19.6966 13.1236 19.5647 13.1118C19.438 13.105 19.3183 13.0518 19.2284 12.9624C19.1385 12.873 19.0846 12.7536 19.0771 12.627C19.0676 12.5257 19.0771 12.4227 19.0771 12.3208L19.0788 12.3186Z" fill="#AFAFAF"/>
<path d="M13.8058 12.3198C13.8058 12.2363 13.8013 12.1518 13.8058 12.069C13.8259 11.7611 14.0297 11.5501 14.3096 11.5394C14.6074 11.5277 14.8318 11.7286 14.8581 12.0505C14.874 12.2368 14.874 12.424 14.8581 12.6103C14.8307 12.9193 14.6152 13.1141 14.3297 13.1141C14.0353 13.1141 13.8259 12.8969 13.8069 12.575C13.7996 12.4877 13.8058 12.4037 13.8058 12.3198Z" fill="#AFAFAF"/>
<path d="M16.4395 12.3248C16.4395 12.2414 16.4356 12.1568 16.4395 12.074C16.4563 11.7583 16.674 11.54 16.9673 11.5405C17.2607 11.5411 17.479 11.7611 17.4941 12.0773C17.5019 12.2453 17.5025 12.4132 17.4941 12.5811C17.4784 12.8957 17.2556 13.1152 16.964 13.1146C16.6724 13.114 16.4557 12.8952 16.4395 12.5778C16.4367 12.4927 16.4395 12.4065 16.4395 12.3248Z" fill="#AFAFAF"/>
<path d="M14.3347 16.2588C14.3425 15.9728 14.5323 15.7371 14.7445 15.7505C14.9566 15.764 15.1189 16.0019 15.1128 16.2946C15.1066 16.5874 14.9269 16.8147 14.7086 16.7984C14.4903 16.7822 14.3274 16.5421 14.3347 16.2588Z" fill="#AFAFAF"/>
<path d="M18.0135 16.2813C18.0135 16.5718 17.8355 16.8047 17.6217 16.8013C17.4079 16.798 17.2299 16.5522 17.2299 16.2724C17.2299 15.9925 17.4207 15.7473 17.629 15.7506C17.8372 15.754 18.0152 15.9941 18.0135 16.2813Z" fill="#AFAFAF"/>
</svg>
