<svg width="17" height="22" viewBox="0 0 17 22" fill="none" xmlns="http://www.w3.org/2000/svg">
<path d="M6.41315 1.76764H9.92287V2.3582H11.1903V1.68497C11.1905 1.0316 10.6592 0.5 10.0062 0.5H6.32983C5.67679 0.5 5.14551 1.0316 5.14551 1.68497V2.3582H6.41315V1.76764Z" fill="#1882A7"/>
<path d="M14.1184 7.38037H2.21942C1.89338 7.38037 1.63671 7.65851 1.66298 7.98359L2.65777 20.2844C2.71321 20.9711 3.28599 21.5 3.97412 21.5H12.3636C13.0517 21.5 13.6245 20.9711 13.6799 20.2843L14.6747 7.98359C14.7011 7.65851 14.4445 7.38037 14.1184 7.38037ZM5.10061 20.188C5.08731 20.1888 5.07401 20.1893 5.06087 20.1893C4.72858 20.1893 4.44964 19.9305 4.42898 19.5944L3.80557 9.49604C3.7841 9.14661 4.0499 8.84588 4.39918 8.82441C4.74733 8.80326 5.04934 9.06842 5.07081 9.41801L5.69405 19.5163C5.71568 19.8658 5.44988 20.1664 5.10061 20.188ZM8.8098 19.5554C8.8098 19.9054 8.52605 20.1891 8.17598 20.1891C7.8259 20.1891 7.54216 19.9054 7.54216 19.5554V9.45695C7.54216 9.10687 7.8259 8.82313 8.17598 8.82313C8.52589 8.82313 8.8098 9.10687 8.8098 9.45695V19.5554ZM12.5323 9.49428L11.9371 19.5926C11.9174 19.9294 11.638 20.1891 11.305 20.1891C11.2925 20.1891 11.2799 20.1888 11.2672 20.1881C10.9178 20.1675 10.6512 19.8675 10.6718 19.5181L11.2669 9.41962C11.2874 9.07018 11.5864 8.80358 11.9368 8.82425C12.2862 8.84476 12.5528 9.14484 12.5323 9.49428Z" fill="#1882A7"/>
<path d="M16.3098 5.42506L15.8935 4.17729C15.7838 3.84837 15.4758 3.62646 15.129 3.62646H1.20786C0.861146 3.62646 0.553048 3.84837 0.44346 4.17729L0.0272153 5.42506C-0.0530535 5.66571 0.0514082 5.91116 0.246393 6.03357C0.32586 6.0834 0.419908 6.11336 0.523248 6.11336H15.8137C15.9171 6.11336 16.0113 6.0834 16.0906 6.03341C16.2856 5.911 16.39 5.66555 16.3098 5.42506Z" fill="#1882A7"/>
</svg>
