<svg width="24" height="24" viewBox="0 0 24 24" fill="none" xmlns="http://www.w3.org/2000/svg">
<path d="M12.98 14.9037C12.8199 14.986 12.6487 15.0302 12.5395 15.1377C11.4573 16.2057 10.3818 17.2807 9.31298 18.3625C9.22546 18.4582 9.11823 18.5337 8.99867 18.5839C8.87912 18.634 8.75011 18.6576 8.62054 18.6531C7.13715 18.6447 5.65375 18.6503 4.17092 18.648C3.80259 18.648 3.60219 18.5042 3.5451 18.2181C3.4964 17.9785 3.62123 17.8106 3.7802 17.6539C4.86336 16.5735 5.94148 15.4876 7.02687 14.4111C7.09261 14.3536 7.14397 14.2814 7.17682 14.2004C7.20968 14.1195 7.22312 14.0319 7.21607 13.9448C7.20264 13.6935 7.2088 13.441 7.21607 13.1891C7.22447 12.8219 7.42879 12.5958 7.7445 12.5947C8.06021 12.5935 8.26396 12.8186 8.27124 13.1858C8.27516 13.3907 8.27572 13.5961 8.27908 13.8015C8.28738 13.8355 8.2992 13.8685 8.31434 13.9C8.50579 13.9 8.7185 13.9174 8.92393 13.8883C8.97991 13.8805 9.05212 13.7304 9.0538 13.6448C9.06444 12.9636 9.0594 12.2823 9.05996 11.6011C9.05996 10.9036 9.12769 10.823 9.83524 10.7138C9.84084 10.6226 9.85204 10.5241 9.85204 10.4261C9.85204 9.85682 9.85204 9.28753 9.85204 8.71825C9.85539 8.3085 10.0457 8.11817 10.4527 8.11425C10.9441 8.10978 11.4356 8.11425 11.9428 8.11425V7.08316H8.27068C8.27068 7.33449 8.27572 7.57464 8.27068 7.81422C8.26229 8.14336 8.06021 8.35775 7.76185 8.36503C7.46349 8.37231 7.23175 8.16295 7.22111 7.84221C7.20656 7.40391 7.20656 6.96449 7.22111 6.52674C7.23175 6.20991 7.44502 6.02295 7.76409 6.00224C7.84806 5.9972 7.93202 6.00224 8.01599 6.00224H20.1311C20.1871 6.00224 20.2431 6.00224 20.299 6.00224C20.6825 6.01008 20.9209 6.21719 20.9148 6.53738C20.9086 6.85757 20.6702 7.05853 20.2817 7.05853C17.987 7.05853 15.6919 7.05853 13.3965 7.05853H13.0399V13.9023H20.1681C20.6612 13.9023 20.9097 14.0747 20.917 14.4206C20.9243 14.7772 20.6685 14.9608 20.1636 14.9608C19.8865 14.9608 19.61 14.9608 19.2831 14.9608C19.5345 15.458 19.6375 16.0171 19.5797 16.5713C19.5103 17.2486 19.2439 17.8313 18.7048 18.2629C18.0219 18.807 17.0977 18.7723 16.4495 18.1857C16.3605 18.1045 16.2888 18.0043 16.1573 17.8537C16.089 17.9584 16.0537 18.0396 15.9955 18.0978C15.2118 18.8736 14.0604 18.8339 13.3584 17.9858C12.7119 17.2021 12.6044 16.3065 12.9106 15.351C12.9448 15.2452 12.9873 15.1416 13.0226 15.0369C13.0265 15.0274 13.0187 15.0174 12.98 14.9037ZM5.37107 17.5906C6.45087 17.5906 7.45622 17.594 8.46156 17.585C8.54833 17.585 8.65189 17.5167 8.7185 17.4507C9.49434 16.6834 10.2663 15.9124 11.0343 15.1377C11.0785 15.0827 11.1179 15.0239 11.1518 14.9619C10.1028 14.9619 9.0969 14.958 8.091 14.9686C7.99639 14.9686 7.885 15.0465 7.81111 15.1187C7.05467 15.865 6.30234 16.6161 5.55411 17.3717C5.50541 17.4216 5.46511 17.4798 5.37107 17.5906ZM11.9355 13.9V11.8031C11.3701 11.8031 10.83 11.7981 10.2898 11.8104C10.2515 11.821 10.2166 11.8412 10.1884 11.8692C10.1602 11.8971 10.1396 11.9318 10.1286 11.97C10.1162 12.5577 10.1168 13.1455 10.1286 13.7332C10.1286 13.7892 10.2131 13.8916 10.2601 13.8928C10.8154 13.904 11.3718 13.9 11.9355 13.9ZM13.8057 16.2763C13.8225 16.6681 13.9109 17.0336 14.1875 17.3286C14.5132 17.6751 14.9331 17.6779 15.2645 17.3393C15.7766 16.8159 15.7772 15.7406 15.2645 15.2121C14.937 14.8763 14.5093 14.8796 14.1863 15.2245C13.907 15.5223 13.8197 15.8872 13.8057 16.2763ZM18.5475 16.2813C18.5425 15.9135 18.4563 15.5665 18.2117 15.2737C17.8758 14.8701 17.4073 14.8623 17.0585 15.2502C16.5878 15.7742 16.5917 16.7935 17.0664 17.313C17.4095 17.688 17.8696 17.683 18.2005 17.2945C18.4462 17.0051 18.5369 16.6592 18.5447 16.2813H18.5475ZM11.9461 9.19685H10.9262V10.7239H11.9461V9.19685Z" fill="#AFAFAF"/>
<path d="M3.88651 7.54572C3.88651 7.78978 3.88651 7.95435 3.88651 8.11893C3.91393 9.74954 5.17062 10.9934 6.79955 11.004C7.13542 11.004 7.47128 11.009 7.80714 11.004C8.12005 10.9984 8.35404 10.7756 8.36187 10.4907C8.36971 10.2058 8.12957 9.95777 7.8021 9.94994C7.47464 9.9421 7.14941 9.94994 6.82306 9.94714C5.74942 9.9337 4.95287 9.17577 4.93664 8.10437C4.93664 7.93644 4.93664 7.77803 4.93664 7.61513C4.93664 7.54124 4.93384 7.47687 4.93664 7.41362C5.03851 7.54628 5.23835 7.83009 5.35758 7.94428C5.45383 8.04148 5.58433 8.0971 5.72111 8.09919C5.85788 8.10128 5.99003 8.04969 6.0892 7.95547C6.30584 7.74836 6.31927 7.43713 6.0948 7.20482C5.66564 6.76186 5.22958 6.32673 4.78662 5.89944C4.55095 5.67161 4.27107 5.66601 4.0354 5.89216C3.59132 6.31796 3.15638 6.75309 2.73058 7.19754C2.50667 7.43153 2.51171 7.7422 2.72106 7.94876C2.93042 8.15531 3.24053 8.14692 3.47619 7.93532C3.59598 7.82673 3.71074 7.71253 3.88651 7.54572Z" fill="#AFAFAF"/>
<path d="M19.0788 12.3186C19.0732 12.2164 19.0732 12.114 19.0788 12.0119C19.0889 11.8855 19.1454 11.7673 19.2374 11.68C19.3293 11.5927 19.4502 11.5424 19.577 11.5388C19.7039 11.5299 19.8295 11.5693 19.9286 11.6492C20.0276 11.729 20.0928 11.8434 20.111 11.9693C20.139 12.2 20.1401 12.4331 20.1144 12.664C20.0993 12.7956 20.0333 12.9161 19.9306 12.9997C19.8279 13.0834 19.6966 13.1236 19.5647 13.1118C19.438 13.105 19.3183 13.0518 19.2284 12.9624C19.1385 12.873 19.0846 12.7536 19.0771 12.627C19.0676 12.5257 19.0771 12.4227 19.0771 12.3208L19.0788 12.3186Z" fill="#AFAFAF"/>
<path d="M13.8058 12.3198C13.8058 12.2363 13.8013 12.1518 13.8058 12.069C13.8259 11.7611 14.0297 11.5501 14.3096 11.5394C14.6074 11.5277 14.8318 11.7286 14.8581 12.0505C14.874 12.2368 14.874 12.424 14.8581 12.6103C14.8307 12.9193 14.6152 13.1141 14.3297 13.1141C14.0353 13.1141 13.8259 12.8969 13.8069 12.575C13.7996 12.4877 13.8058 12.4037 13.8058 12.3198Z" fill="#AFAFAF"/>
<path d="M16.4395 12.3248C16.4395 12.2414 16.4356 12.1568 16.4395 12.074C16.4563 11.7583 16.674 11.54 16.9673 11.5405C17.2607 11.5411 17.479 11.7611 17.4941 12.0773C17.5019 12.2453 17.5025 12.4132 17.4941 12.5811C17.4784 12.8957 17.2556 13.1152 16.964 13.1146C16.6724 13.114 16.4557 12.8952 16.4395 12.5778C16.4367 12.4927 16.4395 12.4065 16.4395 12.3248Z" fill="#AFAFAF"/>
<path d="M14.3347 16.2588C14.3425 15.9728 14.5323 15.7371 14.7445 15.7505C14.9566 15.764 15.1189 16.0019 15.1128 16.2946C15.1066 16.5874 14.9269 16.8147 14.7086 16.7984C14.4903 16.7822 14.3274 16.5421 14.3347 16.2588Z" fill="#AFAFAF"/>
<path d="M18.0135 16.2813C18.0135 16.5718 17.8355 16.8047 17.6217 16.8013C17.4079 16.798 17.2299 16.5522 17.2299 16.2724C17.2299 15.9925 17.4207 15.7473 17.629 15.7506C17.8372 15.754 18.0152 15.9941 18.0135 16.2813Z" fill="#AFAFAF"/>
</svg>
