<svg width="40" height="40" viewBox="0 0 40 40" fill="none" xmlns="http://www.w3.org/2000/svg">
<circle cx="20" cy="20" r="20" fill="#005487"/>
<path d="M19.7947 29.1277C18.1857 29.0975 16.4232 28.9071 14.7767 28.1656C14.219 27.9162 13.7014 27.5361 13.2248 27.1413C12.7823 26.7705 12.6053 26.2329 12.6214 25.6369C12.6757 23.7242 13.3521 22.0697 14.6641 20.6759C15.0261 20.2918 15.4096 20.2449 15.7173 20.5331C16.025 20.8214 15.9928 21.2257 15.6429 21.5937C14.6688 22.6201 14.1452 23.8436 13.9749 25.2427C13.8985 25.8715 14.0963 26.3314 14.6453 26.6023C15.1944 26.8731 15.7515 27.1527 16.3374 27.3062C18.9989 28.0021 21.6604 27.9833 24.2863 27.1118C24.7442 26.9589 25.1706 26.6928 25.5869 26.4373C25.9221 26.2322 26.0609 25.9084 26.0327 25.4934C25.9348 24.0487 25.4294 22.7823 24.4526 21.7063C24.3929 21.6393 24.3286 21.5776 24.2689 21.5113C23.9686 21.1801 23.9565 20.804 24.236 20.5264C24.5156 20.2489 24.9272 20.273 25.2457 20.5935C26.0294 21.3792 26.6327 22.2916 26.9559 23.3575C27.157 24.0246 27.2656 24.7251 27.3581 25.419C27.4808 26.3153 27.0685 26.9931 26.3713 27.5221C25.6486 28.0684 24.8166 28.3855 23.9511 28.6228C22.6506 28.9788 21.3218 29.123 19.7947 29.1277Z" fill="white"/>
<path d="M15.303 15.537C15.3104 12.9613 17.4281 10.865 20.0172 10.8723C22.6164 10.8797 24.6973 12.9901 24.6899 15.61C24.6832 18.1649 22.5654 20.2619 19.9971 20.2586C19.3786 20.2578 18.7663 20.1349 18.1953 19.897C17.6244 19.6591 17.106 19.3109 16.6699 18.8722C16.2338 18.4336 15.8886 17.9132 15.654 17.3408C15.4194 16.7685 15.3002 16.1555 15.303 15.537ZM20.0065 12.2131C18.1803 12.2064 16.6626 13.6974 16.6478 15.5128C16.6374 16.1776 16.825 16.8305 17.1867 17.3884C17.5483 17.9463 18.0677 18.3841 18.6789 18.646C19.29 18.908 19.9652 18.9822 20.6186 18.8594C21.2721 18.7366 21.8742 18.4222 22.3485 17.9562C22.8228 17.4903 23.1478 16.8938 23.2822 16.2426C23.4166 15.5915 23.3543 14.9151 23.1032 14.2994C22.8522 13.6837 22.4237 13.1566 21.8722 12.7851C21.3208 12.4137 20.6714 12.2145 20.0065 12.2131Z" fill="white"/>
</svg>
