<svg width="20" height="14" viewBox="0 0 20 14" fill="none" xmlns="http://www.w3.org/2000/svg">
<path d="M19.4326 5.48958C17.6332 3.4323 14.0259 0 9.98513 0C5.94435 0 2.35685 3.42793 0.565259 5.48609C0.201055 5.90329 0 6.44115 0 6.99825C0 7.55536 0.201055 8.09322 0.565259 8.51042C2.36892 10.5703 5.97624 14 10.017 14C14.0578 14 17.6453 10.5703 19.4369 8.51392C19.8005 8.09618 20.0008 7.55803 20 7.00092C19.9992 6.44381 19.7974 5.90625 19.4326 5.48958ZM9.99892 10.3013C9.35483 10.3013 8.7252 10.1076 8.18966 9.7449C7.65412 9.38215 7.23671 8.86656 6.99023 8.26334C6.74375 7.66011 6.67926 6.99634 6.80491 6.35596C6.93057 5.71557 7.24073 5.12735 7.69617 4.66566C8.15161 4.20397 8.73188 3.88955 9.36359 3.76217C9.99531 3.63479 10.6501 3.70017 11.2452 3.95003C11.8402 4.1999 12.3488 4.62303 12.7067 5.16592C13.0645 5.70881 13.2555 6.34707 13.2555 7C13.2556 7.43356 13.1715 7.8629 13.0078 8.26347C12.8442 8.66405 12.6044 9.02803 12.3019 9.3346C11.9995 9.64117 11.6405 9.88434 11.2453 10.0502C10.8501 10.2161 10.4266 10.3014 9.99892 10.3013Z" fill="#1882A7"/>
</svg>
