<svg xmlns="http://www.w3.org/2000/svg" viewBox="0 0 99.64 56.15"><defs><style>.cls-1{fill:#f40001;}.cls-2{fill:#6c6260;}.cls-3{fill:#f00809;}</style></defs><g id="Layer_2" data-name="Layer 2"><g id="Layer_1-2" data-name="Layer 1"><polygon class="cls-1" points="30.87 42.22 46.3 42.22 30.87 0 16.62 0 15.43 0 0 42.22 8.37 42.22 5.01 34.67 16.6 3.05 30.87 42.22"/><path class="cls-1" d="M20.39,29.79a3.61,3.61,0,1,1-3.61-3.61,3.61,3.61,0,0,1,3.61,3.61"/><path class="cls-2" d="M46.91,19.29V.11h5.38q4,0,5.84,1.21A4.27,4.27,0,0,1,60,5.17a4.81,4.81,0,0,1-1,3.11,5.69,5.69,0,0,1-3,1.8l4.5,9.21H58.15l-4.22-8.71H49v8.71Zm5.38-17.4H49V8.81h3.21A8.41,8.41,0,0,0,56.49,8,2.87,2.87,0,0,0,57.8,5.36a3,3,0,0,0-1.17-2.7,8.59,8.59,0,0,0-4.34-.77"/><polygon class="cls-2" points="67.39 19.29 67.39 1.95 61.79 1.95 61.79 0.1 75.16 0.1 75.16 1.95 69.56 1.95 69.56 19.29 67.39 19.29"/><polygon class="cls-2" points="52.47 42.22 46.87 23.04 49.02 23.04 53.1 37.42 53.24 37.42 57.4 23.04 59.34 23.04 63.5 37.42 63.63 37.42 67.72 23.04 69.85 23.04 64.28 42.22 62.89 42.22 58.36 26.66 53.85 42.22 52.47 42.22"/><path class="cls-2" d="M70.48,42.22,76.4,23h3.22l5.9,19.18H83.29l-1.72-6H74.43l-1.7,6Zm4.46-7.74h6l-2.87-10h-.3Z"/><polygon class="cls-2" points="91.67 42.22 91.67 34.13 85.84 23.04 88.15 23.04 92.71 31.9 97.29 23.04 99.61 23.04 93.77 34.13 93.77 42.22 91.67 42.22"/><path class="cls-3" d="M81.17,10,94.89,5.55h.37a1.39,1.39,0,0,1,.57.12l.24.1a2.64,2.64,0,0,1,.37.2l.11,0,1.2.07h0l.59,0a3,3,0,0,1,.7.19.89.89,0,0,1,.56.63,3.49,3.49,0,0,1,0,.45.43.43,0,0,1-.22.38,1.43,1.43,0,0,1-.22.11,1.6,1.6,0,0,1-.4.16c-.08,0-3.94,1-5.54,1.3A7.15,7.15,0,0,0,89.89,11l-4.42,3.83a.22.22,0,0,1-.15.06h-.59a.22.22,0,0,1-.18-.36l2.35-3.17a.23.23,0,0,0,0-.21l-.08-.21a.1.1,0,0,0-.12-.06L82.34,11.9a10.68,10.68,0,0,1-2.11.26l-1.5,0a3.07,3.07,0,0,1-.68-.06l-1.23-.27a.23.23,0,0,1-.19-.23.24.24,0,0,1,.13-.21l1.29-.64s0-.07,0-.09l-1.7-1.74a.22.22,0,0,1,.12-.37l.57-.11a2.89,2.89,0,0,1,2,.37L81,10a.22.22,0,0,0,.18,0"/><path class="cls-3" d="M84.3,6.59l2.47,1.46h0l3.83-1.23a.05.05,0,0,0,0-.1L85,6.36h0l-.68.14a0,0,0,0,0,0,.09"/><polygon class="cls-2" points="35.26 56.15 34.87 56.15 34.87 50.96 33.06 50.96 33.06 50.6 37.06 50.6 37.06 50.96 35.26 50.96 35.26 56.15"/><path class="cls-2" d="M39.83,53.73v2.42h-.39V50.6h1.32a2.53,2.53,0,0,1,1.53.38,1.38,1.38,0,0,1,.49,1.15,1.55,1.55,0,0,1-.29.94,1.69,1.69,0,0,1-.9.55l1.51,2.53h-.46L41.2,53.73Zm0-.33h1.06A1.66,1.66,0,0,0,42,53.08a1.1,1.1,0,0,0,.39-.92,1.06,1.06,0,0,0-.38-.92A2,2,0,0,0,40.74,51h-.91Z"/><path class="cls-2" d="M48.28,54.19H46l-.77,2h-.43l2.23-5.57h.25l2.18,5.57h-.43Zm-2.11-.35h2l-.76-2c-.06-.16-.14-.38-.23-.65-.07.24-.14.46-.22.66Z"/><path class="cls-2" d="M54.8,50.6h.42l-2.07,5.55H52.8L50.74,50.6h.41l1.4,3.77A12.83,12.83,0,0,1,53,55.66c.06-.19.16-.49.3-.89Z"/><polygon class="cls-2" points="60.59 56.15 57.56 56.15 57.56 50.6 60.59 50.6 60.59 50.95 57.95 50.95 57.95 53.05 60.45 53.05 60.45 53.41 57.95 53.41 57.95 55.79 60.59 55.79 60.59 56.15"/><polygon class="cls-2" points="63.41 56.15 63.41 50.6 63.79 50.6 63.79 55.78 66.44 55.78 66.44 56.15 63.41 56.15"/><rect class="cls-2" x="70.53" y="52.83" width="29.1" height="0.78"/><rect class="cls-2" y="52.83" width="29.1" height="0.78"/></g></g></svg>