<svg width="181" height="41" viewBox="0 0 181 41" fill="none" xmlns="http://www.w3.org/2000/svg">
<path fill-rule="evenodd" clip-rule="evenodd" d="M20.6488 16.8846C22.2937 15.6718 24.1714 14.812 26.1642 14.3589C25.6269 15.8136 25.0374 17.6312 24.4478 19.5917C22.9477 18.7998 21.5523 17.8858 20.6383 16.9021L20.6488 16.8846ZM16.6997 21.4441C17.4656 20.0598 18.4492 18.8077 19.6127 17.7358C19.7418 17.8649 19.8778 17.994 20.0243 18.13C20.9209 18.9638 22.4663 19.7731 24.1897 20.4708C23.7571 21.9291 23.328 23.4361 22.9268 24.8908C20.7376 23.9601 18.6508 22.8051 16.6997 21.4441ZM14.5299 27.5282C14.8552 25.8249 15.3859 24.1674 16.1102 22.5919C18.143 23.964 20.3376 25.0795 22.6442 25.913C22.0791 27.9782 21.5767 29.883 21.2035 31.3272C18.8303 30.3419 16.5886 29.0658 14.5299 27.5282ZM13.7345 16.9928C15.1809 15.5867 16.9357 14.5378 18.8592 13.9298C18.5708 14.0964 18.3415 14.3489 18.2033 14.6519C18.0952 14.9799 17.9138 15.4508 18.4649 16.3474C17.1319 17.3763 15.9941 18.6358 15.1055 20.0662C14.1566 19.0684 13.6054 18.0323 13.7345 16.9928ZM10.2738 22.8047C10.659 21.4259 11.2709 20.1208 12.0844 18.9429V18.9603C12.7635 19.8362 13.546 20.6268 14.4147 21.3151C13.6518 22.863 13.1654 24.5324 12.9775 26.2479C12.0729 25.4676 11.2711 24.5755 10.5913 23.5931C10.4466 23.3477 10.3396 23.0819 10.2738 22.8047ZM27.9085 14.3973C30.0554 15.3257 31.9112 16.8178 33.279 18.7154C34.6468 20.6129 35.4757 22.8452 35.6778 25.1755C35.88 27.5059 35.4478 29.8476 34.4271 31.9523C33.4065 34.057 31.8353 35.8463 29.8803 37.1306C27.9253 38.4149 25.6592 39.1462 23.3222 39.2472C20.9853 39.3481 18.6645 38.8148 16.6061 37.7039C14.5476 36.593 12.828 34.9458 11.6297 32.9369C10.4314 30.928 9.79892 28.6324 9.79938 26.2932V26.1083C10.7669 26.9695 11.8069 27.7456 12.9077 28.4282C12.9682 30.3994 13.3597 32.3465 14.0659 34.1878C13.9656 32.5345 14.0275 30.8753 14.2508 29.2341C16.4065 30.4 18.6738 31.3467 21.0186 32.0598C20.7046 33.2773 20.5197 34.0204 20.5197 34.0204C20.8093 33.3855 21.0849 32.768 21.3535 32.161C23.9986 32.9638 26.711 33.5254 29.4574 33.839C26.7812 33.3072 24.1604 32.5271 21.6291 31.5086C22.4593 29.6527 23.1815 27.9084 23.8199 26.3246C26.3023 27.1368 28.8537 27.7207 31.4424 28.0689C31.4424 28.0689 28.0166 27.0398 24.1757 25.4316C24.8106 23.8268 25.3514 22.3756 25.8153 21.0778C27.8008 21.786 29.8517 22.2955 31.9377 22.5989C29.9357 21.9786 27.9748 21.2329 26.0665 20.3662C26.977 17.7463 27.5596 15.7787 27.9085 14.3973ZM22.7594 13.3333C23.6549 13.3323 24.5482 13.4246 25.4246 13.6089C23.4073 13.7938 21.4588 14.4369 19.7278 15.4892C19.5123 14.9588 19.4999 14.3676 19.6929 13.8286L19.7452 13.6856C20.7327 13.4507 21.7443 13.3325 22.7594 13.3333Z" fill="url(#paint0_linear_72_446)"/>
<path fill-rule="evenodd" clip-rule="evenodd" d="M23.1082 8.33067C23.0827 8.37533 23.0488 8.41456 23.0082 8.44609C22.9676 8.47763 22.9212 8.50086 22.8716 8.51447C22.7715 8.54195 22.6646 8.52854 22.5744 8.47719C22.4842 8.42584 22.4181 8.34075 22.3906 8.24066C22.3631 8.14056 22.3765 8.03365 22.4279 7.94344C22.4792 7.85323 22.5643 7.78711 22.6644 7.75963C22.7645 7.73216 22.8714 7.74557 22.9616 7.79692C23.0518 7.84827 23.118 7.93335 23.1454 8.03345C23.1729 8.13354 23.1595 8.24046 23.1082 8.33067ZM29.5899 12.2099C29.5526 12.2777 29.4961 12.3329 29.4275 12.3685C29.3589 12.4041 29.2813 12.4186 29.2044 12.41C29.1276 12.4015 29.055 12.3704 28.9959 12.3206C28.9367 12.2708 28.8937 12.2046 28.8722 12.1303C28.8507 12.0561 28.8517 11.9771 28.8751 11.9034C28.8985 11.8298 28.9433 11.7647 29.0037 11.7164C29.0641 11.6682 29.1374 11.6389 29.2144 11.6324C29.2915 11.6258 29.3687 11.6423 29.4364 11.6797C29.527 11.7297 29.594 11.8136 29.6228 11.9131C29.6516 12.0125 29.6398 12.1192 29.5899 12.2099ZM16.4171 11.6308C16.4952 11.6301 16.5718 11.6527 16.6371 11.6956C16.7023 11.7385 16.7534 11.7998 16.7838 11.8718C16.8142 11.9437 16.8225 12.0231 16.8077 12.0998C16.7928 12.1765 16.7556 12.2471 16.7006 12.3025C16.6456 12.358 16.5754 12.3959 16.4988 12.4114C16.4222 12.4269 16.3428 12.4193 16.2706 12.3896C16.1983 12.3598 16.1366 12.3093 16.0931 12.2444C16.0496 12.1795 16.0264 12.1032 16.0264 12.025C16.0264 11.9211 16.0674 11.8214 16.1406 11.7475C16.2138 11.6737 16.3132 11.6318 16.4171 11.6308ZM17.0939 11.4494L22.2395 1.97801L22.4279 7.32596C22.2395 7.39515 22.0807 7.52693 21.9779 7.69924C21.8934 7.85324 21.8565 8.0288 21.8716 8.20378C21.8868 8.37876 21.9534 8.54533 22.0631 8.6825C22.1728 8.81967 22.3207 8.9213 22.488 8.97458C22.6554 9.02786 22.8348 9.03041 23.0036 8.9819C23.1724 8.93339 23.3231 8.836 23.4366 8.702C23.5501 8.568 23.6215 8.40339 23.6416 8.22892C23.6617 8.05444 23.6298 7.8779 23.5498 7.72156C23.4697 7.56522 23.3452 7.43607 23.1919 7.35038L23.164 7.32596L22.9023 1.97801L28.5608 11.4564C28.5254 11.4989 28.4939 11.5444 28.4666 11.5925C28.3807 11.747 28.3426 11.9236 28.3571 12.0998C28.3717 12.276 28.4382 12.444 28.5483 12.5824C28.6583 12.7207 28.807 12.8233 28.9755 12.8771C29.1439 12.9309 29.3245 12.9335 29.4945 12.8845C29.6644 12.8356 29.8159 12.7372 29.9299 12.6021C30.0439 12.4669 30.1152 12.3009 30.1347 12.1252C30.1543 11.9494 30.1213 11.7718 30.0398 11.6149C29.9583 11.458 29.8321 11.3287 29.6771 11.2436C29.5387 11.1664 29.382 11.1278 29.2236 11.132L22.5291 0L16.4939 11.1355H16.4171C16.2136 11.1349 16.0161 11.2038 15.8571 11.3308C15.6981 11.4578 15.5873 11.6353 15.543 11.8339C15.4986 12.0324 15.5234 12.2402 15.6132 12.4228C15.703 12.6053 15.8525 12.7518 16.0369 12.8378C16.2213 12.9239 16.4295 12.9444 16.6271 12.8959C16.8247 12.8475 16.9999 12.733 17.1236 12.5715C17.2473 12.41 17.3121 12.211 17.3074 12.0076C17.3026 11.8042 17.2285 11.6085 17.0974 11.4529L17.0939 11.4494Z" fill="#1882A7"/>
<path fill-rule="evenodd" clip-rule="evenodd" d="M13.71 38.9009C13.7883 38.9002 13.865 38.9228 13.9303 38.9659C13.9957 39.0089 14.0468 39.0705 14.077 39.1426C14.1073 39.2148 14.1154 39.2944 14.1003 39.3711C14.0852 39.4479 14.0476 39.5185 13.9922 39.5738C13.9369 39.6292 13.8663 39.6668 13.7895 39.6819C13.7128 39.697 13.6332 39.6889 13.561 39.6586C13.4889 39.6284 13.4273 39.5773 13.3843 39.5119C13.3412 39.4466 13.3186 39.3699 13.3193 39.2916C13.3202 39.1883 13.3617 39.0894 13.4347 39.0163C13.5078 38.9433 13.6067 38.9018 13.71 38.9009ZM7.01897 35.2693C7.1226 35.2693 7.22198 35.3105 7.29525 35.3838C7.36852 35.457 7.40969 35.5564 7.40969 35.66C7.40969 35.7637 7.36852 35.863 7.29525 35.9363C7.22198 36.0096 7.1226 36.0508 7.01897 36.0508C6.91535 36.0508 6.81597 36.0096 6.74269 35.9363C6.66942 35.863 6.62825 35.7637 6.62825 35.66C6.62825 35.5564 6.66942 35.457 6.74269 35.3838C6.81597 35.3105 6.91535 35.2693 7.01897 35.2693ZM7.30154 27.7201C7.37882 27.7201 7.45436 27.743 7.51862 27.7859C7.58287 27.8289 7.63295 27.8899 7.66252 27.9613C7.69209 28.0327 7.69983 28.1112 7.68475 28.187C7.66968 28.2628 7.63247 28.3324 7.57782 28.3871C7.52318 28.4417 7.45356 28.4789 7.37777 28.494C7.30198 28.5091 7.22342 28.5014 7.15202 28.4718C7.08063 28.4422 7.01961 28.3921 6.97667 28.3279C6.93374 28.2636 6.91083 28.1881 6.91083 28.1108C6.91083 28.0595 6.92093 28.0087 6.94057 27.9613C6.9602 27.9139 6.98898 27.8708 7.02526 27.8345C7.06155 27.7982 7.10462 27.7695 7.15202 27.7498C7.19943 27.7302 7.25023 27.7201 7.30154 27.7201ZM12.9251 39.7137C13.0234 39.8946 13.1811 40.0359 13.3716 40.1138C13.5621 40.1917 13.7737 40.2014 13.9705 40.1413C14.1673 40.0812 14.3374 39.955 14.4519 39.784C14.5664 39.6129 14.6182 39.4076 14.5988 39.2027C14.5793 38.9978 14.4897 38.806 14.345 38.6596C14.2004 38.5131 14.0096 38.4212 13.805 38.3992C13.6004 38.3773 13.3944 38.4267 13.222 38.539C13.0496 38.6514 12.9213 38.8199 12.8588 39.016L1.87335 39.0718L6.45731 36.3368C6.61294 36.4637 6.80772 36.5327 7.00851 36.5322C7.18444 36.5335 7.35683 36.4827 7.50388 36.3861C7.65093 36.2895 7.76603 36.1515 7.83463 35.9895C7.90323 35.8275 7.92225 35.6487 7.88928 35.4759C7.85631 35.3031 7.77283 35.1439 7.6494 35.0185C7.52597 34.8932 7.36813 34.8072 7.19585 34.7715C7.02356 34.7358 6.84457 34.7521 6.6815 34.8181C6.51842 34.8842 6.3786 34.9971 6.27971 35.1426C6.18081 35.2881 6.12729 35.4597 6.1259 35.6356V35.6775L1.55241 38.5102L7.13409 28.9864C7.18979 28.9916 7.24585 28.9916 7.30154 28.9864C7.49559 28.9848 7.68367 28.9192 7.83669 28.7999C7.98972 28.6805 8.09915 28.5141 8.14805 28.3263C8.19696 28.1385 8.18262 27.9398 8.10724 27.761C8.03187 27.5822 7.89966 27.4332 7.73109 27.3371C7.56251 27.241 7.36696 27.2031 7.17469 27.2293C6.98242 27.2556 6.80414 27.3444 6.66746 27.4822C6.53077 27.6199 6.44329 27.7988 6.41854 27.9913C6.3938 28.1838 6.43317 28.379 6.53057 28.5469L0 39.7905L12.9251 39.7137Z" fill="#1882A7"/>
<path fill-rule="evenodd" clip-rule="evenodd" d="M31.9551 38.9009C31.8769 38.9002 31.8002 38.9228 31.7348 38.9659C31.6695 39.0089 31.6184 39.0704 31.5881 39.1426C31.5579 39.2148 31.5498 39.2943 31.5649 39.3711C31.58 39.4479 31.6176 39.5185 31.6729 39.5738C31.7283 39.6292 31.7988 39.6668 31.8756 39.6819C31.9524 39.697 32.032 39.6889 32.1041 39.6586C32.1763 39.6283 32.2378 39.5773 32.2809 39.5119C32.3239 39.4466 32.3466 39.3699 32.3459 39.2916C32.345 39.1883 32.3035 39.0894 32.2304 39.0163C32.1573 38.9433 32.0585 38.9018 31.9551 38.9009ZM38.6462 35.2693C38.5689 35.27 38.4936 35.2936 38.4297 35.3371C38.3659 35.3806 38.3163 35.4421 38.2874 35.5137C38.2585 35.5854 38.2514 35.664 38.2672 35.7397C38.2829 35.8153 38.3208 35.8846 38.3759 35.9387C38.431 35.9929 38.501 36.0295 38.5769 36.0439C38.6528 36.0583 38.7313 36.0498 38.8024 36.0196C38.8736 35.9894 38.9341 35.9388 38.9765 35.8742C39.0188 35.8095 39.0411 35.7338 39.0404 35.6565C39.0399 35.6052 39.0294 35.5545 39.0093 35.5073C38.9893 35.46 38.9601 35.4172 38.9235 35.3813C38.8869 35.3453 38.8436 35.3169 38.796 35.2977C38.7484 35.2785 38.6975 35.2688 38.6462 35.2693ZM38.3741 27.7201C38.2968 27.7201 38.2213 27.743 38.157 27.7859C38.0928 27.8288 38.0427 27.8899 38.0131 27.9613C37.9835 28.0327 37.9758 28.1112 37.9909 28.187C38.006 28.2628 38.0432 28.3324 38.0978 28.3871C38.1525 28.4417 38.2221 28.4789 38.2979 28.494C38.3737 28.5091 38.4522 28.5013 38.5236 28.4718C38.595 28.4422 38.656 28.3921 38.699 28.3279C38.7419 28.2636 38.7648 28.1881 38.7648 28.1108C38.7648 28.0595 38.7547 28.0087 38.7351 27.9613C38.7154 27.9139 38.6866 27.8708 38.6504 27.8345C38.6141 27.7982 38.571 27.7694 38.5236 27.7498C38.4762 27.7302 38.4254 27.7201 38.3741 27.7201ZM32.7401 39.7137C32.6418 39.8945 32.484 40.0359 32.2936 40.1138C32.1031 40.1917 31.8915 40.2014 31.6947 40.1413C31.4978 40.0812 31.3278 39.955 31.2133 39.784C31.0988 39.6129 31.0469 39.4076 31.0664 39.2027C31.0858 38.9978 31.1755 38.806 31.3201 38.6595C31.4648 38.5131 31.6555 38.4212 31.8602 38.3992C32.0648 38.3772 32.2707 38.4266 32.4432 38.539C32.6156 38.6514 32.7439 38.8199 32.8064 39.016L43.7918 39.0718L39.2079 36.3368C39.0522 36.4637 38.8574 36.5327 38.6567 36.5322C38.4807 36.5335 38.3083 36.4827 38.1613 36.3861C38.0142 36.2895 37.8991 36.1515 37.8305 35.9895C37.7619 35.8274 37.7429 35.6487 37.7759 35.4759C37.8089 35.3031 37.8923 35.1439 38.0158 35.0185C38.1392 34.8931 38.297 34.8072 38.4693 34.7715C38.6416 34.7358 38.8206 34.752 38.9837 34.8181C39.1467 34.8841 39.2866 34.9971 39.3855 35.1426C39.4844 35.2881 39.5379 35.4597 39.5393 35.6356V35.6775L44.1128 38.4927L38.5311 28.969C38.4754 28.9742 38.4193 28.9742 38.3636 28.969C38.1696 28.9673 37.9815 28.9017 37.8285 28.7824C37.6754 28.6631 37.566 28.4966 37.5171 28.3088C37.4682 28.1211 37.4826 27.9224 37.5579 27.7436C37.6333 27.5648 37.7655 27.4158 37.9341 27.3197C38.1027 27.2235 38.2982 27.1857 38.4905 27.2119C38.6828 27.2381 38.861 27.327 38.9977 27.4647C39.1344 27.6024 39.2219 27.7814 39.2466 27.9739C39.2714 28.1663 39.232 28.3616 39.1346 28.5294L45.6652 39.7591L32.7401 39.7137Z" fill="#1882A7"/>
<path d="M58.2205 6.05963V14.7357C58.2368 15.6141 58.0392 16.4833 57.6449 17.2684C57.2549 18.014 56.6462 18.6226 55.9006 19.0126C55.0116 19.4649 54.0229 19.6857 53.026 19.6545C51.3701 19.6545 50.1084 19.2045 49.2409 18.3045C48.3734 17.4044 47.9409 16.2032 47.9432 14.7008V6.05963H49.513V14.7461C49.513 15.8834 49.8142 16.7614 50.4166 17.38C51.0189 17.9986 51.919 18.3068 53.1167 18.3045C53.8112 18.3312 54.5008 18.1786 55.1191 17.8614C55.6297 17.5786 56.0376 17.1414 56.2843 16.6125C56.5484 16.0301 56.6784 15.3959 56.6646 14.7566V6.05963H58.2205Z" fill="#1882A7"/>
<path d="M72.2549 19.4696H70.4688L63.1428 8.20509H63.0695C63.0695 8.50511 63.1079 8.84699 63.1323 9.22724C63.1568 9.60749 63.1777 10.0191 63.1916 10.4482C63.2056 10.8773 63.2161 11.3204 63.2161 11.7669V19.4696H61.7648V6.05963H63.5545L70.8386 17.2858H70.9014C70.9014 17.073 70.8734 16.7695 70.856 16.3753C70.8386 15.9811 70.8211 15.5555 70.8072 15.0985C70.7932 14.6415 70.7827 14.2194 70.7827 13.8286V6.05963H72.2514L72.2549 19.4696Z" fill="#1882A7"/>
<path d="M75.9144 19.4696V6.05963H77.4738V19.4696H75.9144Z" fill="#1882A7"/>
<path d="M88.7279 15.9008C88.7496 16.6239 88.5434 17.3354 88.1383 17.9347C87.7211 18.5125 87.1456 18.9571 86.4812 19.215C85.6833 19.5245 84.8322 19.6738 83.9765 19.6545C83.4964 19.6559 83.0166 19.6315 82.5392 19.5813C82.1186 19.5386 81.7013 19.4675 81.2903 19.3685C80.9455 19.2868 80.61 19.1699 80.2891 19.0196V17.537C80.8396 17.753 81.4051 17.9291 81.981 18.0637C82.6596 18.2266 83.3553 18.3074 84.0532 18.3045C84.6336 18.3209 85.2119 18.2298 85.7591 18.0358C86.177 17.8835 86.5409 17.6117 86.8057 17.2544C87.0299 16.901 87.1539 16.4932 87.1644 16.0748C87.1748 15.6563 87.0713 15.2429 86.865 14.8787C86.6035 14.52 86.2587 14.2303 85.8603 14.0345C85.2427 13.7179 84.6025 13.4474 83.9451 13.2251C83.4279 13.0439 82.9262 12.8211 82.445 12.5588C82.0427 12.3407 81.6748 12.0645 81.3531 11.739C81.0638 11.4384 80.8383 11.0824 80.6902 10.6924C80.5316 10.2446 80.4548 9.77198 80.4635 9.29701C80.4447 8.64029 80.6367 7.99482 81.0112 7.45505C81.3948 6.92816 81.9197 6.52058 82.5252 6.27941C83.2311 5.99572 83.9868 5.85691 84.7474 5.87125C85.4157 5.8658 86.0825 5.93365 86.7359 6.07358C87.3106 6.20034 87.8705 6.38622 88.4069 6.62826L87.9116 7.95043C87.4134 7.74333 86.9003 7.57423 86.3766 7.44458C85.8289 7.30825 85.2665 7.24029 84.7021 7.24225C84.2053 7.22811 83.7107 7.31351 83.2474 7.49342C82.8863 7.63598 82.5731 7.87789 82.3438 8.19114C82.1307 8.51462 82.0223 8.89584 82.0333 9.28305C82.0163 9.69758 82.1193 10.1082 82.3299 10.4657C82.5744 10.8164 82.9015 11.1015 83.2822 11.2959C83.8447 11.59 84.4276 11.843 85.0265 12.053C85.7219 12.2965 86.3943 12.6012 87.0359 12.9635C87.5437 13.2478 87.9747 13.6512 88.2918 14.1391C88.6 14.6736 88.7512 15.2843 88.7279 15.9008Z" fill="#1882A7"/>
<path d="M98.9319 19.4696H91.4629V6.05963H98.9319V7.43412H93.0223V11.7739H98.604V13.1309H93.0223V18.0951H98.9319V19.4696Z" fill="#1882A7"/>
<path d="M105.525 6.05965C106.452 6.03211 107.376 6.17034 108.253 6.46781C108.912 6.69397 109.478 7.13032 109.865 7.70973C110.242 8.35353 110.426 9.09224 110.395 9.83775C110.418 10.4524 110.286 11.0629 110.012 11.6134C109.77 12.0703 109.424 12.4644 109.003 12.7646C108.594 13.0541 108.145 13.2832 107.671 13.4449L111.351 19.4697H109.541L106.258 13.888H103.467V19.4697H101.901V6.05965H105.525ZM105.435 7.40972H103.464V12.5588H105.592C106.682 12.5588 107.487 12.3356 108.006 11.889C108.275 11.6389 108.484 11.3317 108.619 10.99C108.753 10.6483 108.81 10.2808 108.784 9.9145C108.784 9.00515 108.509 8.35977 107.96 7.97835C107.411 7.59694 106.57 7.40739 105.435 7.40972Z" fill="#1882A7"/>
<path d="M124.112 12.4437H128.797V18.9464C128.094 19.1876 127.37 19.3662 126.635 19.4801C125.81 19.6017 124.977 19.66 124.144 19.6545C122.914 19.7004 121.695 19.4187 120.61 18.8382C119.658 18.2853 118.898 17.4537 118.433 16.4555C117.912 15.3027 117.658 14.0469 117.69 12.7821C117.659 11.5225 117.941 10.2749 118.51 9.1505C119.044 8.12949 119.871 7.29133 120.885 6.7434C122.039 6.14372 123.326 5.84834 124.625 5.88522C125.338 5.8808 126.05 5.94977 126.75 6.09104C127.391 6.21882 128.016 6.4141 128.616 6.67363L128.03 8.0237C127.498 7.79828 126.95 7.61401 126.39 7.47251C125.787 7.3193 125.167 7.2431 124.545 7.24575C123.564 7.2162 122.593 7.44989 121.733 7.92253C120.958 8.36862 120.335 9.03701 119.943 9.84123C119.506 10.7525 119.288 11.7539 119.309 12.7646C119.287 13.7696 119.472 14.7683 119.853 15.6985C120.196 16.5048 120.788 17.1806 121.541 17.6277C122.444 18.1248 123.466 18.366 124.496 18.3254C125.018 18.3314 125.539 18.2964 126.055 18.2207C126.454 18.1586 126.849 18.0748 127.238 17.9696V13.8391H124.098L124.112 12.4437Z" fill="#1882A7"/>
<path d="M135.659 6.05965C136.586 6.03211 137.51 6.17034 138.387 6.46781C139.046 6.69397 139.613 7.13032 139.999 7.70973C140.376 8.35353 140.56 9.09224 140.529 9.83775C140.552 10.4524 140.42 11.0629 140.146 11.6134C139.904 12.0703 139.558 12.4644 139.138 12.7646C138.726 13.0547 138.275 13.2838 137.798 13.4449L141.478 19.4697H139.661L136.378 13.888H133.587V19.4697H132.028V6.05965H135.659ZM135.569 7.40972H133.612V12.5588H135.74C136.83 12.5588 137.635 12.3356 138.154 11.889C138.423 11.6389 138.632 11.3317 138.767 10.99C138.901 10.6483 138.958 10.2808 138.932 9.9145C138.932 9.00515 138.657 8.35977 138.108 7.97835C137.56 7.59694 136.713 7.40739 135.569 7.40972Z" fill="#1882A7"/>
<path d="M155.265 12.7472C155.277 13.7015 155.142 14.652 154.867 15.5659C154.631 16.366 154.233 17.1092 153.699 17.7497C153.175 18.3579 152.517 18.8356 151.777 19.1452C150.934 19.4912 150.029 19.6598 149.118 19.6405C148.187 19.6614 147.261 19.4929 146.397 19.1452C145.652 18.8349 144.991 18.3504 144.471 17.7323C143.942 17.0876 143.551 16.3406 143.324 15.538C143.06 14.6208 142.932 13.67 142.944 12.7158C142.917 11.4792 143.149 10.2507 143.624 9.10859C144.044 8.11159 144.763 7.26942 145.682 6.698C146.732 6.08816 147.933 5.78819 149.146 5.83284C150.322 5.79439 151.485 6.09079 152.499 6.68754C153.412 7.26214 154.13 8.09856 154.56 9.08766C155.055 10.2427 155.296 11.4909 155.265 12.7472ZM144.587 12.7472C144.564 13.7524 144.729 14.7531 145.072 15.6985C145.357 16.4791 145.877 17.1519 146.561 17.6242C147.34 18.0677 148.22 18.3009 149.117 18.3009C150.013 18.3009 150.893 18.0677 151.672 17.6242C152.352 17.1513 152.868 16.4782 153.148 15.6985C153.485 14.7507 153.647 13.7494 153.625 12.7437C153.625 11.0133 153.263 9.65978 152.537 8.68299C151.811 7.70619 150.682 7.21896 149.15 7.22128C148.245 7.18479 147.35 7.41793 146.579 7.89109C145.894 8.35485 145.37 9.01897 145.079 9.79235C144.731 10.7378 144.564 11.7401 144.587 12.7472Z" fill="#1882A7"/>
<path d="M168.389 6.05963V14.7357C168.406 15.6138 168.21 16.483 167.817 17.2684C167.425 18.013 166.817 18.6212 166.073 19.0126C165.176 19.4677 164.178 19.6874 163.174 19.651C161.518 19.651 160.257 19.201 159.392 18.301C158.527 17.4009 158.094 16.1997 158.094 14.6973V6.05963H159.661V14.7461C159.661 15.8834 159.964 16.7625 160.564 17.38C161.164 17.9975 162.068 18.3045 163.268 18.3045C163.966 18.333 164.659 18.1803 165.281 17.8614C165.791 17.5786 166.199 17.1414 166.446 16.6125C166.71 16.0301 166.84 15.3959 166.826 14.7566V6.05963H168.389Z" fill="#1882A7"/>
<path d="M175.443 6.05963C177.176 6.05963 178.441 6.39802 179.238 7.0748C180.037 7.74809 180.435 8.71791 180.435 9.97728C180.437 10.529 180.343 11.0769 180.156 11.596C179.965 12.1099 179.656 12.5714 179.252 12.9425C178.78 13.3646 178.22 13.6778 177.613 13.86C176.81 14.1065 175.972 14.2243 175.132 14.2089H173.5V19.4696H171.94V6.05963H175.443ZM175.296 7.38877H173.5V12.8553H174.958C175.682 12.8732 176.404 12.7814 177.1 12.5832C177.618 12.437 178.073 12.1213 178.391 11.6867C178.699 11.1946 178.848 10.6199 178.82 10.0401C178.848 9.66365 178.785 9.28602 178.637 8.93883C178.489 8.59164 178.26 8.285 177.969 8.04462C177.401 7.60971 176.51 7.3911 175.296 7.38877Z" fill="#1882A7"/>
<path d="M80.0309 30.1935C80.0309 30.7107 79.8254 31.2067 79.4597 31.5724C79.094 31.9381 78.598 32.1436 78.0808 32.1436H77.5122C76.995 32.1436 76.499 31.9381 76.1332 31.5724C75.7675 31.2067 75.5621 30.7107 75.5621 30.1935V24.0955H76.2772V30.1935C76.2809 30.5291 76.4158 30.85 76.6532 31.0873C76.8905 31.3247 77.2114 31.4597 77.5471 31.4633H78.0459C78.3816 31.4597 78.7025 31.3247 78.9398 31.0873C79.1772 30.85 79.3121 30.5291 79.3158 30.1935V24.0955H80.0135L80.0309 30.1935Z" fill="#1882A7"/>
<path d="M80.0309 30.1935C80.0309 30.7107 79.8254 31.2067 79.4597 31.5724C79.094 31.9381 78.598 32.1436 78.0808 32.1436H77.5122C76.995 32.1436 76.499 31.9381 76.1332 31.5724C75.7675 31.2067 75.5621 30.7107 75.5621 30.1935V24.0955H76.2772V30.1935C76.2809 30.5291 76.4158 30.85 76.6532 31.0873C76.8905 31.3247 77.2114 31.4597 77.5471 31.4633H78.0459C78.3816 31.4597 78.7025 31.3247 78.9398 31.0873C79.1772 30.85 79.3121 30.5291 79.3158 30.1935V24.0955H80.0135L80.0309 30.1935Z" stroke="#1882A7" stroke-width="0.22" stroke-miterlimit="2.61"/>
<path d="M84.723 32.0319V27.8805C84.723 27.75 84.6971 27.6208 84.6469 27.5003C84.5966 27.3798 84.5229 27.2705 84.4302 27.1787C84.3374 27.0869 84.2273 27.0144 84.1063 26.9654C83.9853 26.9164 83.8558 26.8919 83.7253 26.8933H83.2718C83.1421 26.8933 83.0137 26.9188 82.894 26.9684C82.7742 27.018 82.6653 27.0908 82.5737 27.1824C82.482 27.2741 82.4093 27.383 82.3597 27.5027C82.31 27.6225 82.2845 27.7509 82.2845 27.8805V32.0319H81.5868V26.363H81.8136L82.1903 26.9386C82.3436 26.7233 82.546 26.5476 82.7809 26.4263C83.0157 26.3049 83.2761 26.2414 83.5404 26.2409H83.7253C83.945 26.24 84.1628 26.2824 84.3661 26.3658C84.5694 26.4491 84.7543 26.5718 84.9101 26.7266C85.066 26.8815 85.1898 27.0656 85.2744 27.2684C85.359 27.4712 85.4028 27.6887 85.4033 27.9084V32.0249L84.723 32.0319Z" fill="#1882A7"/>
<path d="M84.723 32.0319V27.8805C84.723 27.75 84.6971 27.6208 84.6469 27.5003C84.5966 27.3798 84.5229 27.2705 84.4302 27.1787C84.3374 27.0869 84.2273 27.0144 84.1063 26.9654C83.9853 26.9164 83.8558 26.8919 83.7253 26.8933H83.2718C83.1421 26.8933 83.0137 26.9188 82.894 26.9684C82.7742 27.018 82.6653 27.0908 82.5737 27.1824C82.482 27.2741 82.4093 27.383 82.3597 27.5027C82.31 27.6225 82.2845 27.7509 82.2845 27.8805V32.0319H81.5868V26.363H81.8136L82.1903 26.9386C82.3436 26.7233 82.546 26.5476 82.7809 26.4263C83.0157 26.3049 83.2761 26.2414 83.5404 26.2409H83.7253C83.945 26.24 84.1628 26.2824 84.3661 26.3658C84.5694 26.4491 84.7543 26.5718 84.9101 26.7266C85.066 26.8815 85.1898 27.0656 85.2744 27.2684C85.359 27.4712 85.4028 27.6887 85.4033 27.9084V32.0249L84.723 32.0319Z" stroke="#1882A7" stroke-width="0.22" stroke-miterlimit="2.61"/>
<path d="M86.865 25.0025V24.0955H87.6604V25.0025H86.865ZM86.9243 32.0319V26.363H87.622V32.0319H86.9243Z" fill="#1882A7"/>
<path d="M86.865 25.0025V24.0955H87.6604V25.0025H86.865ZM86.9243 32.0319V26.363H87.622V32.0319H86.9243Z" stroke="#1882A7" stroke-width="0.22" stroke-miterlimit="2.61"/>
<path d="M90.8664 32.0319H90.528L88.5221 26.363H89.2024L90.6745 30.6574L90.6989 30.954L90.7199 30.6574L92.1955 26.363H92.8758L90.8664 32.0319Z" fill="#1882A7"/>
<path d="M90.8664 32.0319H90.528L88.5221 26.363H89.2024L90.6745 30.6574L90.6989 30.954L90.7199 30.6574L92.1955 26.363H92.8758L90.8664 32.0319Z" stroke="#1882A7" stroke-width="0.22" stroke-miterlimit="2.61"/>
<path d="M97.4562 30.476C97.4553 30.918 97.2793 31.3416 96.9668 31.6541C96.6543 31.9666 96.2307 32.1426 95.7887 32.1435H95.3352C94.8932 32.1426 94.4696 31.9666 94.1571 31.6541C93.8446 31.3416 93.6686 30.918 93.6677 30.476V27.9084C93.6686 27.4665 93.8446 27.0429 94.1571 26.7303C94.4696 26.4178 94.8932 26.2418 95.3352 26.2409H95.7887C96.2307 26.2418 96.6543 26.4178 96.9668 26.7303C97.2793 27.0429 97.4553 27.4665 97.4562 27.9084V29.2446H94.3479V30.5039C94.3479 30.7658 94.452 31.0169 94.6371 31.202C94.8222 31.3872 95.0734 31.4912 95.3352 31.4912H95.7887C96.0505 31.4912 96.3017 31.3872 96.4868 31.202C96.672 31.0169 96.776 30.7658 96.776 30.5039V30.1376L97.4562 30.2493V30.476ZM96.776 27.8805C96.776 27.6187 96.672 27.3676 96.4868 27.1824C96.3017 26.9973 96.0505 26.8933 95.7887 26.8933H95.3352C95.0734 26.8933 94.8222 26.9973 94.6371 27.1824C94.452 27.3676 94.3479 27.6187 94.3479 27.8805V28.7213H96.7899L96.776 27.8805Z" fill="#1882A7"/>
<path d="M97.4562 30.476C97.4553 30.918 97.2793 31.3416 96.9668 31.6541C96.6543 31.9666 96.2307 32.1426 95.7887 32.1435H95.3352C94.8932 32.1426 94.4696 31.9666 94.1571 31.6541C93.8446 31.3416 93.6686 30.918 93.6677 30.476V27.9084C93.6686 27.4665 93.8446 27.0429 94.1571 26.7303C94.4696 26.4178 94.8932 26.2418 95.3352 26.2409H95.7887C96.2307 26.2418 96.6543 26.4178 96.9668 26.7303C97.2793 27.0429 97.4553 27.4665 97.4562 27.9084V29.2446H94.3479V30.5039C94.3479 30.7658 94.452 31.0169 94.6371 31.202C94.8222 31.3872 95.0734 31.4912 95.3352 31.4912H95.7887C96.0505 31.4912 96.3017 31.3872 96.4868 31.202C96.672 31.0169 96.776 30.7658 96.776 30.5039V30.1376L97.4562 30.2493V30.476ZM96.776 27.8805C96.776 27.6187 96.672 27.3676 96.4868 27.1824C96.3017 26.9973 96.0505 26.8933 95.7887 26.8933H95.3352C95.0734 26.8933 94.8222 26.9973 94.6371 27.1824C94.452 27.3676 94.3479 27.6187 94.3479 27.8805V28.7213H96.7899L96.776 27.8805Z" stroke="#1882A7" stroke-width="0.22" stroke-miterlimit="2.61"/>
<path d="M100.596 27.0084C100.334 27.0084 100.083 27.1124 99.8978 27.2975C99.7127 27.4827 99.6087 27.7338 99.6087 27.9956V32.0319H98.9284V26.363H99.1552L99.5284 26.9386C99.6823 26.7239 99.8849 26.5487 100.12 26.4274C100.354 26.3061 100.614 26.2422 100.879 26.2409H101.276V27.0014L100.596 27.0084Z" fill="#1882A7"/>
<path d="M100.596 27.0084C100.334 27.0084 100.083 27.1124 99.8978 27.2975C99.7127 27.4827 99.6087 27.7338 99.6087 27.9956V32.0319H98.9284V26.363H99.1552L99.5284 26.9386C99.6823 26.7239 99.8849 26.5487 100.12 26.4274C100.354 26.3061 100.614 26.2422 100.879 26.2409H101.276V27.0014L100.596 27.0084Z" stroke="#1882A7" stroke-width="0.22" stroke-miterlimit="2.61"/>
<path d="M104.36 32.1436H103.907C103.461 32.1386 103.033 31.9631 102.713 31.6529C102.392 31.3428 102.203 30.9216 102.183 30.476V30.2493L102.863 30.1376V30.5109C102.879 30.7781 102.996 31.0293 103.19 31.2129C103.385 31.3965 103.642 31.4986 103.91 31.4982H104.364C104.908 31.4982 105.41 31.1703 105.41 30.626C105.41 29.0039 102.302 29.9667 102.302 27.8003C102.305 27.5884 102.351 27.3792 102.436 27.1853C102.522 26.9915 102.646 26.8169 102.8 26.6719C102.955 26.527 103.137 26.4148 103.336 26.3419C103.536 26.2691 103.747 26.2371 103.959 26.2479H104.357C104.798 26.2479 105.221 26.4226 105.533 26.7338C105.846 27.0451 106.022 27.4674 106.024 27.9085V27.9294L105.344 28.0445V27.8736C105.344 27.6123 105.24 27.3617 105.056 27.1767C104.872 26.9917 104.621 26.8872 104.36 26.8863H103.959C103.836 26.8743 103.711 26.8878 103.593 26.9261C103.476 26.9644 103.367 27.0265 103.274 27.1087C103.182 27.1909 103.107 27.2914 103.055 27.4038C103.003 27.5162 102.974 27.6381 102.972 27.7619C102.972 29.3143 106.08 28.4178 106.08 30.5842C106.071 30.7999 106.019 31.0116 105.927 31.207C105.835 31.4025 105.705 31.5778 105.545 31.7228C105.386 31.8679 105.198 31.9797 104.995 32.0519C104.791 32.1242 104.576 32.1553 104.36 32.1436Z" fill="#1882A7"/>
<path d="M104.36 32.1436H103.907C103.461 32.1386 103.033 31.9631 102.713 31.6529C102.392 31.3428 102.203 30.9216 102.183 30.476V30.2493L102.863 30.1376V30.5109C102.879 30.7781 102.996 31.0293 103.19 31.2129C103.385 31.3965 103.642 31.4986 103.91 31.4982H104.364C104.908 31.4982 105.41 31.1703 105.41 30.626C105.41 29.0039 102.302 29.9667 102.302 27.8003C102.305 27.5884 102.351 27.3792 102.436 27.1853C102.522 26.9915 102.646 26.8169 102.8 26.6719C102.955 26.527 103.137 26.4148 103.336 26.3419C103.536 26.2691 103.747 26.2371 103.959 26.2479H104.357C104.798 26.2479 105.221 26.4226 105.533 26.7338C105.846 27.0451 106.022 27.4674 106.024 27.9085V27.9294L105.344 28.0445V27.8736C105.344 27.6123 105.24 27.3617 105.056 27.1767C104.872 26.9917 104.621 26.8872 104.36 26.8863H103.959C103.836 26.8743 103.711 26.8878 103.593 26.9261C103.476 26.9644 103.367 27.0265 103.274 27.1087C103.182 27.1909 103.107 27.2914 103.055 27.4038C103.003 27.5162 102.974 27.6381 102.972 27.7619C102.972 29.3143 106.08 28.4178 106.08 30.5842C106.071 30.7999 106.019 31.0116 105.927 31.207C105.835 31.4025 105.705 31.5778 105.545 31.7228C105.386 31.8679 105.198 31.9797 104.995 32.0519C104.791 32.1242 104.576 32.1553 104.36 32.1436V32.1436Z" stroke="#1882A7" stroke-width="0.22" stroke-miterlimit="2.61"/>
<path d="M110.936 32.0319L110.587 31.4633C110.432 31.677 110.23 31.8514 109.995 31.9726C109.761 32.0938 109.501 32.1583 109.237 32.161H109.066C108.624 32.1601 108.201 31.9841 107.888 31.6716C107.576 31.359 107.4 30.9354 107.399 30.4935V30.4202C107.4 29.9782 107.576 29.5546 107.888 29.2421C108.201 28.9296 108.624 28.7536 109.066 28.7527H110.507V27.8805C110.507 27.6187 110.403 27.3676 110.218 27.1824C110.033 26.9973 109.782 26.8933 109.52 26.8933H109.122C108.86 26.8933 108.609 26.9973 108.424 27.1824C108.239 27.3676 108.135 27.6187 108.135 27.8805V28.0864L107.447 27.9712V27.9084C107.448 27.4665 107.624 27.0429 107.937 26.7303C108.249 26.4178 108.673 26.2418 109.115 26.2409H109.513C109.953 26.2437 110.375 26.4205 110.686 26.7328C110.997 27.0451 111.172 27.4677 111.173 27.9084V32.0249L110.936 32.0319ZM110.493 29.3039H109.052C108.79 29.3039 108.539 29.4079 108.354 29.593C108.169 29.7782 108.065 30.0293 108.065 30.2911V30.5283C108.065 30.7902 108.169 31.0413 108.354 31.2264C108.539 31.4116 108.79 31.5156 109.052 31.5156H109.506C109.768 31.5156 110.019 31.4116 110.204 31.2264C110.389 31.0413 110.493 30.7902 110.493 30.5283V29.3039Z" fill="#1882A7"/>
<path d="M110.936 32.0319L110.587 31.4633C110.432 31.677 110.23 31.8514 109.995 31.9726C109.761 32.0938 109.501 32.1583 109.237 32.161H109.066C108.624 32.1601 108.201 31.9841 107.888 31.6716C107.576 31.359 107.4 30.9354 107.399 30.4935V30.4202C107.4 29.9782 107.576 29.5546 107.888 29.2421C108.201 28.9296 108.624 28.7536 109.066 28.7527H110.507V27.8805C110.507 27.6187 110.403 27.3676 110.218 27.1824C110.033 26.9973 109.782 26.8933 109.52 26.8933H109.122C108.86 26.8933 108.609 26.9973 108.424 27.1824C108.239 27.3676 108.135 27.6187 108.135 27.8805V28.0864L107.447 27.9712V27.9084C107.448 27.4665 107.624 27.0429 107.937 26.7303C108.249 26.4178 108.673 26.2418 109.115 26.2409H109.513C109.953 26.2437 110.375 26.4205 110.686 26.7328C110.997 27.0451 111.172 27.4677 111.173 27.9084V32.0249L110.936 32.0319ZM110.493 29.3039H109.052C108.79 29.3039 108.539 29.4079 108.354 29.593C108.169 29.7782 108.065 30.0293 108.065 30.2911V30.5283C108.065 30.7902 108.169 31.0413 108.354 31.2264C108.539 31.4116 108.79 31.5156 109.052 31.5156H109.506C109.768 31.5156 110.019 31.4116 110.204 31.2264C110.389 31.0413 110.493 30.7902 110.493 30.5283V29.3039Z" stroke="#1882A7" stroke-width="0.22" stroke-miterlimit="2.61"/>
<path d="M113.382 24.0955H112.701V32.0319H113.382V24.0955Z" fill="#1882A7"/>
<path d="M113.382 24.0955H112.701V32.0319H113.382V24.0955Z" stroke="#1882A7" stroke-width="0.22" stroke-miterlimit="2.61"/>
<path d="M122.044 30.1935C122.031 30.7163 121.814 31.2133 121.439 31.5779C121.064 31.9425 120.561 32.1455 120.038 32.1436H119.473C118.949 32.1465 118.445 31.9438 118.069 31.5791C117.694 31.2145 117.476 30.7169 117.463 30.1935V29.876L118.178 29.7644V30.1935C118.193 30.5353 118.339 30.8583 118.586 31.095C118.833 31.3316 119.162 31.4636 119.504 31.4633H120.006C120.349 31.4645 120.679 31.3329 120.927 31.0962C121.175 30.8594 121.321 30.5359 121.335 30.1935V29.9562C121.335 27.7689 117.582 28.812 117.582 26.077V25.9304C117.582 25.6744 117.632 25.4208 117.73 25.1842C117.828 24.9476 117.972 24.7326 118.153 24.5515C118.334 24.3704 118.549 24.2268 118.786 24.1288C119.022 24.0308 119.276 23.9803 119.532 23.9803H120.041C120.297 23.9803 120.551 24.0308 120.787 24.1288C121.024 24.2268 121.239 24.3704 121.42 24.5515C121.601 24.7326 121.745 24.9476 121.843 25.1842C121.941 25.4208 121.991 25.6744 121.991 25.9304V26.1363L121.276 26.2479V25.9304C121.273 25.5945 121.139 25.2731 120.901 25.0356C120.664 24.798 120.342 24.6634 120.006 24.6606H119.567C119.231 24.6634 118.909 24.798 118.672 25.0356C118.434 25.2731 118.3 25.5945 118.297 25.9304V26.077C118.297 28.1317 122.047 27.2352 122.047 29.9562L122.044 30.1935Z" fill="#1882A7"/>
<path d="M122.044 30.1935C122.031 30.7163 121.814 31.2133 121.439 31.5779C121.064 31.9425 120.561 32.1455 120.038 32.1436H119.473C118.949 32.1465 118.445 31.9438 118.069 31.5791C117.694 31.2145 117.476 30.7169 117.463 30.1935V29.876L118.178 29.7644V30.1935C118.193 30.5353 118.339 30.8583 118.586 31.095C118.833 31.3316 119.162 31.4636 119.504 31.4633H120.006C120.349 31.4645 120.679 31.3329 120.927 31.0962C121.175 30.8594 121.321 30.5359 121.335 30.1935V29.9562C121.335 27.7689 117.582 28.812 117.582 26.077V25.9304C117.582 25.6744 117.632 25.4208 117.73 25.1842C117.828 24.9476 117.972 24.7326 118.153 24.5515C118.334 24.3704 118.549 24.2268 118.786 24.1288C119.022 24.0308 119.276 23.9803 119.532 23.9803H120.041C120.297 23.9803 120.551 24.0308 120.787 24.1288C121.024 24.2268 121.239 24.3704 121.42 24.5515C121.601 24.7326 121.745 24.9476 121.843 25.1842C121.941 25.4208 121.991 25.6744 121.991 25.9304V26.1363L121.276 26.2479V25.9304C121.273 25.5945 121.139 25.2731 120.901 25.0356C120.664 24.798 120.342 24.6634 120.006 24.6606H119.567C119.231 24.6634 118.909 24.798 118.672 25.0356C118.434 25.2731 118.3 25.5945 118.297 25.9304V26.077C118.297 28.1317 122.047 27.2352 122.047 29.9562L122.044 30.1935Z" stroke="#1882A7" stroke-width="0.22" stroke-miterlimit="2.61"/>
<path d="M127.133 30.476C127.133 30.9177 126.958 31.3413 126.646 31.6539C126.334 31.9665 125.911 32.1426 125.469 32.1435H125.016C124.574 32.1435 124.149 31.9679 123.837 31.6551C123.524 31.3424 123.348 30.9183 123.348 30.476V27.9084C123.349 27.4665 123.525 27.0429 123.838 26.7303C124.15 26.4178 124.574 26.2418 125.016 26.2409H125.469C125.911 26.2418 126.334 26.4179 126.646 26.7305C126.958 27.0432 127.133 27.4668 127.133 27.9084V29.2446H124.029V30.5039C124.029 30.7658 124.133 31.0169 124.318 31.202C124.503 31.3872 124.754 31.4912 125.016 31.4912H125.469C125.731 31.4903 125.981 31.3858 126.165 31.2008C126.35 31.0157 126.453 30.7652 126.453 30.5039V30.1376L127.133 30.2493V30.476ZM126.453 27.8805C126.453 27.6193 126.35 27.3687 126.165 27.1837C125.981 26.9986 125.731 26.8942 125.469 26.8933H125.016C124.754 26.8933 124.503 26.9973 124.318 27.1824C124.133 27.3676 124.029 27.6187 124.029 27.8805V28.7213H126.471L126.453 27.8805Z" fill="#1882A7"/>
<path d="M127.133 30.476C127.133 30.9177 126.958 31.3413 126.646 31.6539C126.334 31.9665 125.911 32.1426 125.469 32.1435H125.016C124.574 32.1435 124.149 31.9679 123.837 31.6551C123.524 31.3424 123.348 30.9183 123.348 30.476V27.9084C123.349 27.4665 123.525 27.0429 123.838 26.7303C124.15 26.4178 124.574 26.2418 125.016 26.2409H125.469C125.911 26.2418 126.334 26.4179 126.646 26.7305C126.958 27.0432 127.133 27.4668 127.133 27.9084V29.2446H124.029V30.5039C124.029 30.7658 124.133 31.0169 124.318 31.202C124.503 31.3872 124.754 31.4912 125.016 31.4912H125.469C125.731 31.4903 125.981 31.3858 126.165 31.2008C126.35 31.0157 126.453 30.7652 126.453 30.5039V30.1376L127.133 30.2493V30.476ZM126.453 27.8805C126.453 27.6193 126.35 27.3687 126.165 27.1837C125.981 26.9986 125.731 26.8942 125.469 26.8933H125.016C124.754 26.8933 124.503 26.9973 124.318 27.1824C124.133 27.3676 124.029 27.6187 124.029 27.8805V28.7213H126.471L126.453 27.8805Z" stroke="#1882A7" stroke-width="0.22" stroke-miterlimit="2.61"/>
<path d="M130.277 27.0084C130.015 27.0084 129.764 27.1124 129.578 27.2975C129.393 27.4827 129.289 27.7338 129.289 27.9956V32.0319H128.609V26.363H128.836L129.209 26.9386C129.363 26.7239 129.565 26.5487 129.8 26.4274C130.035 26.3061 130.295 26.2422 130.559 26.2409H130.957V27.0014L130.277 27.0084Z" fill="#1882A7"/>
<path d="M130.277 27.0084C130.015 27.0084 129.764 27.1124 129.578 27.2975C129.393 27.4827 129.289 27.7338 129.289 27.9956V32.0319H128.609V26.363H128.836L129.209 26.9386C129.363 26.7239 129.565 26.5487 129.8 26.4274C130.035 26.3061 130.295 26.2422 130.559 26.2409H130.957V27.0014L130.277 27.0084Z" stroke="#1882A7" stroke-width="0.22" stroke-miterlimit="2.61"/>
<path d="M133.643 32.0319H133.301L131.295 26.363H131.975L133.451 30.6574L133.472 30.954L133.497 30.6574L134.969 26.363H135.649L133.643 32.0319Z" fill="#1882A7"/>
<path d="M133.643 32.0319H133.301L131.295 26.363H131.975L133.451 30.6574L133.472 30.954L133.497 30.6574L134.969 26.363H135.649L133.643 32.0319Z" stroke="#1882A7" stroke-width="0.22" stroke-miterlimit="2.61"/>
<path d="M136.5 25.0025V24.0955H137.292V25.0025H136.5ZM136.556 32.0319V26.363H137.236V32.0319H136.556Z" fill="#1882A7"/>
<path d="M136.5 25.0025V24.0955H137.292V25.0025H136.5ZM136.556 32.0319V26.363H137.236V32.0319H136.556Z" stroke="#1882A7" stroke-width="0.22" stroke-miterlimit="2.61"/>
<path d="M142.497 30.476C142.496 30.918 142.32 31.3416 142.008 31.6541C141.695 31.9666 141.271 32.1426 140.829 32.1435H140.376C139.934 32.1426 139.51 31.9666 139.198 31.6541C138.885 31.3416 138.709 30.918 138.708 30.476V27.9084C138.709 27.4665 138.885 27.0429 139.198 26.7303C139.51 26.4178 139.934 26.2418 140.376 26.2409H140.829C141.271 26.2418 141.695 26.4178 142.008 26.7303C142.32 27.0429 142.496 27.4665 142.497 27.9084V28.1352L141.799 28.2468V27.8805C141.799 27.6187 141.695 27.3676 141.51 27.1824C141.325 26.9973 141.074 26.8933 140.812 26.8933H140.358C140.097 26.8933 139.846 26.9973 139.66 27.1824C139.475 27.3676 139.371 27.6187 139.371 27.8805V30.5109C139.371 30.7727 139.475 31.0238 139.66 31.209C139.846 31.3941 140.097 31.4982 140.358 31.4982H140.812C141.074 31.4982 141.325 31.3941 141.51 31.209C141.695 31.0238 141.799 30.7727 141.799 30.5109V30.1376L142.497 30.2493V30.476Z" fill="#1882A7"/>
<path d="M142.497 30.476C142.496 30.918 142.32 31.3416 142.008 31.6541C141.695 31.9666 141.271 32.1426 140.829 32.1435H140.376C139.934 32.1426 139.51 31.9666 139.198 31.6541C138.885 31.3416 138.709 30.918 138.708 30.476V27.9084C138.709 27.4665 138.885 27.0429 139.198 26.7303C139.51 26.4178 139.934 26.2418 140.376 26.2409H140.829C141.271 26.2418 141.695 26.4178 142.008 26.7303C142.32 27.0429 142.496 27.4665 142.497 27.9084V28.1352L141.799 28.2468V27.8805C141.799 27.6187 141.695 27.3676 141.51 27.1824C141.325 26.9973 141.074 26.8933 140.812 26.8933H140.358C140.097 26.8933 139.846 26.9973 139.66 27.1824C139.475 27.3676 139.371 27.6187 139.371 27.8805V30.5109C139.371 30.7727 139.475 31.0238 139.66 31.209C139.846 31.3941 140.097 31.4982 140.358 31.4982H140.812C141.074 31.4982 141.325 31.3941 141.51 31.209C141.695 31.0238 141.799 30.7727 141.799 30.5109V30.1376L142.497 30.2493V30.476Z" stroke="#1882A7" stroke-width="0.22" stroke-miterlimit="2.61"/>
<path d="M147.643 30.476C147.643 30.9177 147.467 31.3413 147.155 31.6539C146.843 31.9665 146.42 32.1426 145.979 32.1435H145.525C145.083 32.1435 144.659 31.9679 144.346 31.6551C144.033 31.3424 143.858 30.9183 143.858 30.476V27.9084C143.858 27.4665 144.034 27.0429 144.347 26.7303C144.659 26.4178 145.083 26.2418 145.525 26.2409H145.979C146.42 26.2418 146.843 26.4179 147.155 26.7305C147.467 27.0432 147.643 27.4668 147.643 27.9084V29.2446H144.538V30.5039C144.538 30.7658 144.642 31.0169 144.827 31.202C145.012 31.3872 145.263 31.4912 145.525 31.4912H145.979C146.24 31.4903 146.49 31.3858 146.674 31.2008C146.859 31.0157 146.962 30.7652 146.962 30.5039V30.1376L147.66 30.2493L147.643 30.476ZM146.945 27.8805C146.945 27.6193 146.841 27.3687 146.657 27.1837C146.473 26.9986 146.222 26.8942 145.961 26.8933H145.508C145.246 26.8933 144.995 26.9973 144.81 27.1824C144.624 27.3676 144.52 27.6187 144.52 27.8805V28.7213H146.945V27.8805Z" fill="#1882A7"/>
<path d="M147.643 30.476C147.643 30.9177 147.467 31.3413 147.155 31.6539C146.843 31.9665 146.42 32.1426 145.979 32.1435H145.525C145.083 32.1435 144.659 31.9679 144.346 31.6551C144.033 31.3424 143.858 30.9183 143.858 30.476V27.9084C143.858 27.4665 144.034 27.0429 144.347 26.7303C144.659 26.4178 145.083 26.2418 145.525 26.2409H145.979C146.42 26.2418 146.843 26.4179 147.155 26.7305C147.467 27.0432 147.643 27.4668 147.643 27.9084V29.2446H144.538V30.5039C144.538 30.7658 144.642 31.0169 144.827 31.202C145.012 31.3872 145.263 31.4912 145.525 31.4912H145.979C146.24 31.4903 146.49 31.3858 146.674 31.2008C146.859 31.0157 146.962 30.7652 146.962 30.5039V30.1376L147.66 30.2493L147.643 30.476ZM146.945 27.8805C146.945 27.6193 146.841 27.3687 146.657 27.1837C146.473 26.9986 146.222 26.8942 145.961 26.8933H145.508C145.246 26.8933 144.995 26.9973 144.81 27.1824C144.624 27.3676 144.52 27.6187 144.52 27.8805V28.7213H146.945V27.8805Z" stroke="#1882A7" stroke-width="0.22" stroke-miterlimit="2.61"/>
<path d="M151.18 32.1435H150.726C150.28 32.1386 149.853 31.963 149.533 31.6529C149.212 31.3427 149.023 30.9216 149.003 30.476V30.2492L149.683 30.1376V30.5109C149.699 30.778 149.815 31.0292 150.01 31.2129C150.205 31.3965 150.462 31.4986 150.73 31.4981H151.183C151.728 31.4981 152.23 31.1702 152.23 30.626C152.23 29.0038 149.125 29.9667 149.125 27.8003C149.128 27.5876 149.173 27.3776 149.259 27.183C149.345 26.9884 149.47 26.8132 149.625 26.6681C149.781 26.523 149.964 26.411 150.164 26.3387C150.364 26.2665 150.577 26.2356 150.789 26.2479H151.187C151.627 26.2506 152.047 26.4264 152.358 26.7373C152.669 27.0481 152.845 27.4689 152.848 27.9084V27.9293L152.167 28.0445V27.8735C152.167 27.6117 152.063 27.3606 151.878 27.1754C151.693 26.9903 151.442 26.8863 151.18 26.8863H150.782C150.659 26.8742 150.535 26.8878 150.417 26.9261C150.3 26.9644 150.191 27.0266 150.099 27.1089C150.006 27.1911 149.932 27.2916 149.88 27.404C149.829 27.5163 149.801 27.6382 149.799 27.7619C149.799 29.3143 152.903 28.4177 152.903 30.5841C152.894 30.8002 152.842 31.0122 152.75 31.2078C152.658 31.4035 152.528 31.579 152.368 31.7241C152.207 31.8692 152.02 31.9809 151.816 32.0529C151.612 32.1249 151.396 32.1557 151.18 32.1435Z" fill="#1882A7"/>
<path d="M151.18 32.1435H150.726C150.28 32.1386 149.853 31.963 149.533 31.6529C149.212 31.3427 149.023 30.9216 149.003 30.476V30.2492L149.683 30.1376V30.5109C149.699 30.778 149.815 31.0292 150.01 31.2129C150.205 31.3965 150.462 31.4986 150.73 31.4981H151.183C151.728 31.4981 152.23 31.1702 152.23 30.626C152.23 29.0038 149.125 29.9667 149.125 27.8003C149.128 27.5876 149.173 27.3776 149.259 27.183C149.345 26.9884 149.47 26.8132 149.625 26.6681C149.781 26.523 149.964 26.411 150.164 26.3387C150.364 26.2665 150.577 26.2356 150.789 26.2479H151.187C151.627 26.2506 152.047 26.4264 152.358 26.7373C152.669 27.0481 152.845 27.4689 152.848 27.9084V27.9293L152.167 28.0445V27.8735C152.167 27.6117 152.063 27.3606 151.878 27.1754C151.693 26.9903 151.442 26.8863 151.18 26.8863H150.782C150.659 26.8742 150.535 26.8878 150.417 26.9261C150.3 26.9644 150.191 27.0266 150.099 27.1089C150.006 27.1911 149.932 27.2916 149.88 27.404C149.829 27.5163 149.801 27.6382 149.799 27.7619C149.799 29.3143 152.903 28.4177 152.903 30.5841C152.894 30.8002 152.842 31.0122 152.75 31.2078C152.658 31.4035 152.528 31.579 152.368 31.7241C152.207 31.8692 152.02 31.9809 151.816 32.0529C151.612 32.1249 151.396 32.1557 151.18 32.1435V32.1435Z" stroke="#1882A7" stroke-width="0.22" stroke-miterlimit="2.61"/>
<path fill-rule="evenodd" clip-rule="evenodd" d="M48.8398 28.048C48.9171 28.048 48.9926 28.0709 49.0568 28.1139C49.1211 28.1568 49.1712 28.2178 49.2008 28.2892C49.2303 28.3606 49.2381 28.4392 49.223 28.5149C49.2079 28.5907 49.1707 28.6604 49.1161 28.715C49.0614 28.7696 48.9918 28.8069 48.916 28.8219C48.8402 28.837 48.7617 28.8293 48.6903 28.7997C48.6189 28.7701 48.5578 28.72 48.5149 28.6558C48.472 28.5915 48.4491 28.516 48.4491 28.4387C48.4491 28.3351 48.4902 28.2357 48.5635 28.1624C48.6368 28.0892 48.7362 28.048 48.8398 28.048ZM49.6491 28.048H72.4224V28.7457H49.6735C49.6007 28.9373 49.4639 29.0979 49.2863 29.2003C49.1087 29.3026 48.9012 29.3405 48.6988 29.3075C48.4965 29.2745 48.3118 29.1727 48.1759 29.0192C48.04 28.8657 47.9614 28.6699 47.9532 28.4651C47.945 28.2603 48.0078 28.0589 48.131 27.895C48.2541 27.7312 48.4301 27.6149 48.6292 27.5658C48.8282 27.5168 49.0381 27.538 49.2233 27.6258C49.4085 27.7137 49.5577 27.8628 49.6456 28.048H49.6491Z" fill="#1882A7"/>
<path fill-rule="evenodd" clip-rule="evenodd" d="M179.661 28.0166C179.739 28.0166 179.815 28.0397 179.88 28.0831C179.944 28.1264 179.995 28.1879 180.025 28.26C180.055 28.332 180.062 28.4113 180.047 28.4877C180.032 28.5642 179.994 28.6344 179.939 28.6896C179.884 28.7447 179.814 28.7822 179.737 28.7975C179.661 28.8127 179.582 28.8049 179.51 28.775C179.438 28.7452 179.376 28.6947 179.333 28.6298C179.289 28.565 179.266 28.4888 179.266 28.4108C179.266 28.3063 179.308 28.206 179.382 28.1321C179.456 28.0582 179.556 28.0166 179.661 28.0166ZM179.661 27.5596C179.816 27.5593 179.969 27.6012 180.103 27.6809C180.237 27.7607 180.347 27.8753 180.421 28.0125C180.495 28.1498 180.53 28.3045 180.523 28.4602C180.516 28.6159 180.467 28.7668 180.381 28.8968C180.295 29.0268 180.175 29.1311 180.035 29.1984C179.894 29.2657 179.738 29.2937 179.583 29.2793C179.428 29.2648 179.279 29.2086 179.153 29.1164C179.028 29.0243 178.929 28.8998 178.869 28.7562H156.043V28.0585H178.872C178.941 27.9081 179.053 27.7811 179.193 27.6926C179.333 27.604 179.495 27.5579 179.661 27.5596Z" fill="#1882A7"/>
<defs>
<linearGradient id="paint0_linear_72_446" x1="13.1205" y1="20.6348" x2="35.4786" y2="33.7622" gradientUnits="userSpaceOnUse">
<stop stop-color="#7EBACC"/>
<stop offset="0.1" stop-color="#6BAFC5"/>
<stop offset="0.3" stop-color="#3994B3"/>
<stop offset="0.42" stop-color="#1882A7"/>
<stop offset="1" stop-color="#116381"/>
</linearGradient>
</defs>
</svg>
