<svg width="24" height="24" viewBox="0 0 24 24" fill="none" xmlns="http://www.w3.org/2000/svg">
<path fill-rule="evenodd" clip-rule="evenodd" d="M11.3025 17.9576C11.7554 18.0142 12.2251 18.014 12.6932 17.9578L12.6981 17.9572L13.2341 17.8857L13.5055 16.3283C13.6731 16.2718 13.8396 16.2063 14.0064 16.1258L15.2995 17.0371L15.7108 16.7004C16.0665 16.4191 16.4024 16.0828 16.6832 15.7268L16.6861 15.7231L17.0103 15.2906L16.112 14.0142C16.1541 13.9318 16.1914 13.8485 16.2237 13.7644C16.2652 13.6799 16.3018 13.5939 16.3332 13.5042L17.8832 13.2336L17.9553 12.6926C18.0114 12.2247 18.0112 11.7594 17.9741 11.3328L17.9734 11.3242L17.9008 10.7795L16.3444 10.5079C16.2879 10.3401 16.2224 10.1735 16.1419 10.0064L17.0455 8.72261L16.7212 8.29006L16.7184 8.28642C16.4368 7.92955 16.0999 7.59247 15.7433 7.31073L15.7396 7.30784L15.307 6.9832L14.0314 7.88208C13.9492 7.84004 13.866 7.80277 13.7821 7.77048C13.6976 7.729 13.6117 7.69234 13.522 7.66092L13.2516 6.10995L12.7064 6.03721L12.6972 6.03644C12.4873 6.01894 12.2446 6 12.0163 6C11.788 6 11.5453 6.01894 11.3354 6.03644L11.3262 6.03721L10.781 6.10995L10.5095 7.66727C10.3419 7.7238 10.1755 7.78931 10.0086 7.86977L8.72555 6.96563L8.29296 7.29027L8.28931 7.29316C7.93266 7.5749 7.59579 7.91198 7.31423 8.26884L7.31135 8.27249L6.98714 8.70504L7.88542 9.98139C7.84334 10.0638 7.80604 10.1471 7.77374 10.2312C7.73227 10.3157 7.69564 10.4017 7.66424 10.4914L6.11425 10.762L6.0424 11.3012C5.98578 11.7544 5.98602 12.2243 6.04219 12.6926L6.04277 12.6975L6.11425 13.2336L7.67058 13.5053C7.72711 13.6731 7.79263 13.8397 7.87311 14.0068L6.96251 15.3006L7.29873 15.7118C7.57987 16.0677 7.91597 16.4038 8.27175 16.6849L8.2754 16.6878L8.70799 17.0124L9.98361 16.1135C10.0659 16.1556 10.149 16.1928 10.2329 16.2251C10.3174 16.2666 10.4033 16.3033 10.493 16.3347L10.7634 17.8857L11.3025 17.9576ZM11.4078 17.2149L11.1485 15.7276L10.9036 15.6731C10.7791 15.6455 10.6676 15.604 10.551 15.5457L10.5334 15.5369L10.5149 15.53C10.4001 15.4869 10.282 15.4282 10.1606 15.3523L9.94935 15.2202L8.7222 16.0849C8.42432 15.8477 8.14109 15.5649 7.90325 15.267L8.75383 14.0585L8.63793 13.8523C8.49799 13.6034 8.40231 13.3507 8.31961 13.0693L8.25389 12.8457L6.7852 12.5894C6.73815 12.188 6.73841 11.7884 6.78513 11.4062L8.27151 11.1468L8.32591 10.9018C8.35359 10.7772 8.39502 10.6656 8.45333 10.5489L8.46212 10.5313L8.46903 10.5128C8.51209 10.398 8.57074 10.2797 8.64666 10.1582L8.77847 9.94718L7.91425 8.71923C8.15343 8.4184 8.43913 8.1325 8.73976 7.89315L9.95685 8.75078L10.1632 8.63463C10.412 8.49463 10.6645 8.39889 10.9456 8.31616L11.1692 8.25037L11.4252 6.78156C11.6277 6.76483 11.8315 6.75 12.0163 6.75C12.2011 6.75 12.4049 6.76483 12.6074 6.78156L12.8665 8.26801L13.1114 8.32247C13.2359 8.35015 13.3475 8.39159 13.4641 8.44992L13.4817 8.45873L13.5001 8.46565C13.6149 8.50872 13.733 8.5674 13.8545 8.64335L14.0657 8.77544L15.2928 7.91072C15.5935 8.15007 15.8792 8.43597 16.1183 8.7368L15.2612 9.9547L15.3771 10.1609C15.517 10.4098 15.6127 10.6625 15.6954 10.9439L15.7611 11.1674L17.2291 11.4236C17.2597 11.7937 17.2588 12.1926 17.2123 12.5894L15.726 12.8488L15.6716 13.0938C15.6439 13.2184 15.6024 13.33 15.5441 13.4467L15.5353 13.4643L15.5284 13.4828C15.4854 13.5977 15.4267 13.7159 15.3508 13.8374L15.219 14.0484L16.0832 15.2764C15.8462 15.5745 15.5635 15.8579 15.2659 16.0959L14.0582 15.2448L13.8518 15.361C13.6031 15.501 13.3505 15.5967 13.0694 15.6794L12.8459 15.7452L12.5897 17.2148C12.1888 17.2618 11.7896 17.2616 11.4078 17.2149ZM11.9987 13.7314C11.0471 13.7314 10.2665 12.9506 10.2665 11.9978C10.2665 11.045 11.0471 10.2643 11.9987 10.2643C12.9504 10.2643 13.731 11.045 13.731 11.9978C13.731 12.9506 12.9504 13.7314 11.9987 13.7314ZM9.51648 11.9978C9.51648 13.3644 10.6324 14.4814 11.9987 14.4814C13.365 14.4814 14.481 13.3644 14.481 11.9978C14.481 10.6312 13.365 9.51425 11.9987 9.51425C10.6324 9.51425 9.51648 10.6312 9.51648 11.9978Z" fill="white" stroke="white" stroke-width="0.2"/>
<circle cx="11.9999" cy="12" r="8.28569" stroke="white"/>
</svg>
