<svg width="24" height="24" viewBox="0 0 24 24" fill="none" xmlns="http://www.w3.org/2000/svg">
<path fill-rule="evenodd" clip-rule="evenodd" d="M12.0502 7.95999L15.505 4.50522C15.7784 4.23185 16.2216 4.23185 16.495 4.50522L19.9497 7.95999C20.2231 8.23336 20.2231 8.67658 19.9497 8.94994C19.6764 9.22331 19.2332 9.22331 18.9598 8.94994L16.7 6.69015L16.7 18.0002C16.7 18.3868 16.3866 18.7002 16 18.7002C15.6134 18.7002 15.3 18.3868 15.3 18.0002L15.3 6.69015L13.0402 8.94994C12.7668 9.22331 12.3236 9.22331 12.0502 8.94994C11.7769 8.67658 11.7769 8.23336 12.0502 7.95999Z" fill="#1A9CC9"/>
<path fill-rule="evenodd" clip-rule="evenodd" d="M8.49496 18.4952C8.2216 18.7685 7.77838 18.7685 7.50501 18.4952L4.05024 15.0404C3.77687 14.767 3.77687 14.3238 4.05024 14.0504C4.32361 13.7771 4.76682 13.7771 5.04019 14.0504L7.29999 16.3102L7.29999 5.0002C7.29999 4.6136 7.61339 4.3002 7.99999 4.3002C8.38659 4.3002 8.69999 4.6136 8.69999 5.0002L8.69999 16.3102L10.9598 14.0504C11.2332 13.7771 11.6764 13.7771 11.9497 14.0504C12.2231 14.3238 12.2231 14.767 11.9497 15.0404L8.49496 18.4952Z" fill="#1A9CC9"/>
</svg>
