<svg width="24" height="24" viewBox="0 0 24 24" fill="none" xmlns="http://www.w3.org/2000/svg">
<path d="M16.3921 12.3204H11.7302C11.6116 12.3204 11.5155 12.2076 11.5155 12.0684C11.5155 11.9292 11.6116 11.8164 11.7302 11.8164H16.3921C16.5107 11.8164 16.6068 11.9292 16.6068 12.0684C16.6068 12.2076 16.5107 12.3204 16.3921 12.3204Z" fill="#1A9CC9" stroke="#1A9CC9" stroke-width="0.8"/>
<path d="M16.3921 8.09775H11.7301C11.6116 8.09775 11.5155 7.98495 11.5155 7.84575C11.5155 7.70655 11.6116 7.59375 11.7301 7.59375H16.3921C16.5107 7.59375 16.6068 7.70655 16.6068 7.84575C16.6068 7.98495 16.5107 8.09775 16.3921 8.09775Z" fill="#1A9CC9" stroke="#1A9CC9" stroke-width="0.8"/>
<path d="M16.3921 16.544H11.7301C11.6116 16.544 11.5155 16.4312 11.5155 16.292C11.5155 16.1528 11.6116 16.04 11.7301 16.04H16.3921C16.5107 16.04 16.6068 16.1528 16.6068 16.292C16.6068 16.4312 16.5107 16.544 16.3921 16.544Z" fill="#1A9CC9" stroke="#1A9CC9" stroke-width="0.8"/>
<path d="M14.2309 5H9.76911C9.34503 5 9 4.7161 9 4.36711V3.63291C9.00003 3.28393 9.34503 3 9.76911 3H14.2309C14.655 3 15 3.28393 15 3.63291V4.36711C15 4.7161 14.655 5 14.2309 5ZM9.76911 3.42462C9.62955 3.42462 9.516 3.51807 9.516 3.63291V4.36711C9.516 4.48196 9.62955 4.57538 9.76911 4.57538H14.2309C14.3704 4.57538 14.484 4.48193 14.484 4.36711V3.63291C14.484 3.51804 14.3704 3.42462 14.2309 3.42462H9.76911Z" fill="#1A9CC9" stroke="#1A9CC9" stroke-width="0.8"/>
<path d="M9.32581 9.08246H8.1436C7.74981 9.08246 7.42944 8.77895 7.42944 8.40589V7.28594C7.42944 6.91288 7.74981 6.60938 8.1436 6.60938H9.32581C9.7196 6.60938 10.04 6.91288 10.04 7.28594V8.40593C10.04 8.77895 9.7196 9.08246 9.32581 9.08246ZM8.1436 7.11337C8.04316 7.11337 7.96144 7.19079 7.96144 7.28594V8.40593C7.96144 8.50108 8.04316 8.5785 8.1436 8.5785H9.32581C9.42625 8.5785 9.50797 8.50108 9.50797 8.40593V7.28594C9.50797 7.19079 9.42625 7.11337 9.32581 7.11337H8.1436Z" fill="#1A9CC9" stroke="#1A9CC9" stroke-width="0.8"/>
<path d="M9.32581 13.3052H8.1436C7.74981 13.3052 7.42944 13.0017 7.42944 12.6286V11.5086C7.42944 11.1355 7.74981 10.832 8.1436 10.832H9.32581C9.7196 10.832 10.04 11.1355 10.04 11.5086V12.6286C10.04 13.0017 9.7196 13.3052 9.32581 13.3052ZM8.1436 11.336C8.04316 11.336 7.96144 11.4134 7.96144 11.5086V12.6286C7.96144 12.7238 8.04316 12.8012 8.1436 12.8012H9.32581C9.42625 12.8012 9.50797 12.7238 9.50797 12.6286V11.5086C9.50797 11.4134 9.42625 11.336 9.32581 11.336H8.1436Z" fill="#1A9CC9" stroke="#1A9CC9" stroke-width="0.8"/>
<path d="M9.32581 17.5288H8.1436C7.74981 17.5288 7.42944 17.2253 7.42944 16.8522V15.7323C7.42944 15.3592 7.74981 15.0557 8.1436 15.0557H9.32581C9.7196 15.0557 10.04 15.3592 10.04 15.7323V16.8522C10.04 17.2253 9.7196 17.5288 9.32581 17.5288ZM8.1436 15.5597C8.04316 15.5597 7.96144 15.6371 7.96144 15.7323V16.8523C7.96144 16.9474 8.04316 17.0249 8.1436 17.0249H9.32581C9.42625 17.0249 9.50797 16.9474 9.50797 16.8523V15.7323C9.50797 15.6371 9.42625 15.5597 9.32581 15.5597H8.1436Z" fill="#1A9CC9" stroke="#1A9CC9" stroke-width="0.8"/>
<path d="M17.8157 21H6.18431C5.53126 21 5 20.4883 5 19.8592V5.14077C5 4.51175 5.5313 4 6.18431 4H7.11905C7.27003 4 7.39243 4.11787 7.39243 4.26334C7.39243 4.4088 7.27003 4.52667 7.11905 4.52667H6.18431C5.83274 4.52667 5.54676 4.80215 5.54676 5.14077V19.8592C5.54676 20.1978 5.83278 20.4733 6.18431 20.4733H17.8157C18.1673 20.4733 18.4532 20.1978 18.4532 19.8592V5.14077C18.4532 4.80212 18.1672 4.52667 17.8157 4.52667H16.9081C16.7571 4.52667 16.6347 4.4088 16.6347 4.26334C16.6347 4.11787 16.7571 4 16.9081 4H17.8157C18.4687 4 19 4.51175 19 5.14077V19.8592C19 20.4883 18.4687 21 17.8157 21Z" fill="#1A9CC9" stroke="#1A9CC9" stroke-width="0.8"/>
</svg>
