<svg width="24" height="24" viewBox="0 0 24 24" fill="none" xmlns="http://www.w3.org/2000/svg">
<path d="M12.98 14.9047C12.8199 14.987 12.6487 15.0312 12.5395 15.1387C11.4573 16.2067 10.3818 17.2817 9.31298 18.3635C9.22546 18.4592 9.11823 18.5347 8.99867 18.5848C8.87912 18.635 8.75011 18.6586 8.62054 18.654C7.13715 18.6456 5.65375 18.6512 4.17092 18.649C3.80259 18.649 3.60219 18.5051 3.5451 18.2191C3.4964 17.9795 3.62123 17.8116 3.7802 17.6548C4.86336 16.5745 5.94148 15.4885 7.02687 14.4121C7.09261 14.3545 7.14397 14.2824 7.17682 14.2014C7.20968 14.1204 7.22312 14.0329 7.21607 13.9458C7.20264 13.6945 7.2088 13.442 7.21607 13.1901C7.22447 12.8229 7.42879 12.5968 7.7445 12.5956C8.06021 12.5945 8.26396 12.8195 8.27124 13.1868C8.27516 13.3916 8.27572 13.5971 8.27908 13.8025C8.28738 13.8365 8.2992 13.8695 8.31434 13.901C8.50579 13.901 8.7185 13.9184 8.92393 13.8893C8.97991 13.8814 9.05212 13.7314 9.0538 13.6458C9.06444 12.9645 9.0594 12.2833 9.05996 11.602C9.05996 10.9046 9.12769 10.824 9.83524 10.7148C9.84084 10.6236 9.85204 10.525 9.85204 10.4271C9.85204 9.8578 9.85204 9.28851 9.85204 8.71922C9.85539 8.30947 10.0457 8.11915 10.4527 8.11523C10.9441 8.11075 11.4356 8.11523 11.9428 8.11523V7.08413H8.27068C8.27068 7.33547 8.27572 7.57561 8.27068 7.81519C8.26229 8.14434 8.06021 8.35873 7.76185 8.36601C7.46349 8.37329 7.23175 8.16393 7.22111 7.84318C7.20656 7.40488 7.20656 6.96546 7.22111 6.52772C7.23175 6.21089 7.44502 6.02393 7.76409 6.00322C7.84806 5.99818 7.93202 6.00322 8.01599 6.00322H20.1311C20.1871 6.00322 20.2431 6.00322 20.299 6.00322C20.6825 6.01105 20.9209 6.21817 20.9148 6.53836C20.9086 6.85855 20.6702 7.0595 20.2817 7.0595C17.987 7.0595 15.6919 7.0595 13.3965 7.0595H13.0399V13.9033H20.1681C20.6612 13.9033 20.9097 14.0757 20.917 14.4216C20.9243 14.7782 20.6685 14.9618 20.1636 14.9618C19.8865 14.9618 19.61 14.9618 19.2831 14.9618C19.5345 15.459 19.6375 16.0181 19.5797 16.5722C19.5103 17.2496 19.2439 17.8323 18.7048 18.2639C18.0219 18.808 17.0977 18.7733 16.4495 18.1866C16.3605 18.1055 16.2888 18.0053 16.1573 17.8547C16.089 17.9594 16.0537 18.0405 15.9955 18.0987C15.2118 18.8746 14.0604 18.8348 13.3584 17.9868C12.7119 17.2031 12.6044 16.3075 12.9106 15.3519C12.9448 15.2462 12.9873 15.1426 13.0226 15.0379C13.0265 15.0284 13.0187 15.0183 12.98 14.9047ZM5.37107 17.5916C6.45087 17.5916 7.45622 17.595 8.46156 17.586C8.54833 17.586 8.65189 17.5177 8.7185 17.4517C9.49434 16.6844 10.2663 15.9134 11.0343 15.1387C11.0785 15.0837 11.1179 15.0248 11.1518 14.9629C10.1028 14.9629 9.0969 14.959 8.091 14.9696C7.99639 14.9696 7.885 15.0474 7.81111 15.1196C7.05467 15.866 6.30234 16.617 5.55411 17.3727C5.50541 17.4225 5.46511 17.4808 5.37107 17.5916ZM11.9355 13.901V11.8041C11.3701 11.8041 10.83 11.7991 10.2898 11.8114C10.2515 11.822 10.2166 11.8422 10.1884 11.8702C10.1602 11.8981 10.1396 11.9328 10.1286 11.9709C10.1162 12.5587 10.1168 13.1465 10.1286 13.7342C10.1286 13.7902 10.2131 13.8926 10.2601 13.8937C10.8154 13.9049 11.3718 13.901 11.9355 13.901ZM13.8057 16.2773C13.8225 16.6691 13.9109 17.0346 14.1875 17.3296C14.5132 17.6761 14.9331 17.6789 15.2645 17.3403C15.7766 16.8169 15.7772 15.7415 15.2645 15.2131C14.937 14.8773 14.5093 14.8806 14.1863 15.2254C13.907 15.5232 13.8197 15.8882 13.8057 16.2773ZM18.5475 16.2823C18.5425 15.9145 18.4563 15.5675 18.2117 15.2747C17.8758 14.8711 17.4073 14.8633 17.0585 15.2512C16.5878 15.7751 16.5917 16.7945 17.0664 17.3139C17.4095 17.689 17.8696 17.684 18.2005 17.2955C18.4462 17.0061 18.5369 16.6601 18.5447 16.2823H18.5475ZM11.9461 9.19783H10.9262V10.7249H11.9461V9.19783Z" fill="#1A9CC9"/>
<path d="M3.88651 7.54536C3.88651 7.78942 3.88651 7.95399 3.88651 8.11856C3.91393 9.74917 5.17062 10.993 6.79955 11.0036C7.13542 11.0036 7.47128 11.0087 7.80714 11.0036C8.12005 10.998 8.35404 10.7752 8.36187 10.4903C8.36971 10.2054 8.12957 9.95741 7.8021 9.94957C7.47464 9.94173 7.14941 9.94957 6.82306 9.94677C5.74942 9.93334 4.95287 9.17541 4.93664 8.10401C4.93664 7.93608 4.93664 7.77766 4.93664 7.61477C4.93664 7.54088 4.93384 7.4765 4.93664 7.41325C5.03851 7.54592 5.23835 7.82972 5.35758 7.94391C5.45383 8.04112 5.58433 8.09673 5.72111 8.09882C5.85788 8.10092 5.99003 8.04932 6.0892 7.95511C6.30584 7.74799 6.31927 7.43676 6.0948 7.20446C5.66564 6.76149 5.22958 6.32636 4.78662 5.89907C4.55095 5.67124 4.27107 5.66565 4.0354 5.89179C3.59132 6.31759 3.15638 6.75272 2.73058 7.19718C2.50667 7.43116 2.51171 7.74184 2.72106 7.94839C2.93042 8.15495 3.24053 8.14655 3.47619 7.93496C3.59598 7.82636 3.71074 7.71217 3.88651 7.54536Z" fill="#1A9CC9"/>
<path d="M19.0787 12.3191C19.0731 12.2169 19.0731 12.1145 19.0787 12.0123C19.0888 11.886 19.1453 11.7678 19.2372 11.6805C19.3292 11.5932 19.4501 11.5429 19.5769 11.5393C19.7038 11.5304 19.8294 11.5698 19.9284 11.6496C20.0275 11.7295 20.0927 11.8439 20.1109 11.9698C20.1389 12.2004 20.14 12.4336 20.1142 12.6645C20.0991 12.7961 20.0332 12.9166 19.9305 13.0002C19.8278 13.0839 19.6965 13.1241 19.5645 13.1123C19.4379 13.1055 19.3182 13.0523 19.2283 12.9629C19.1384 12.8735 19.0845 12.7541 19.077 12.6275C19.0675 12.5262 19.077 12.4232 19.077 12.3213L19.0787 12.3191Z" fill="#1A9CC9"/>
<path d="M13.8057 12.3199C13.8057 12.2365 13.8012 12.1519 13.8057 12.0691C13.8258 11.7612 14.0296 11.5502 14.3094 11.5396C14.6072 11.5278 14.8317 11.7288 14.858 12.0506C14.8739 12.2369 14.8739 12.4241 14.858 12.6104C14.8306 12.9194 14.6151 13.1142 14.3296 13.1142C14.0352 13.1142 13.8258 12.897 13.8068 12.5751C13.7995 12.4878 13.8057 12.4038 13.8057 12.3199Z" fill="#1A9CC9"/>
<path d="M16.4394 12.3253C16.4394 12.2418 16.4354 12.1573 16.4394 12.0745C16.4562 11.7588 16.6739 11.5405 16.9672 11.541C17.2605 11.5416 17.4789 11.7616 17.494 12.0778C17.5018 12.2458 17.5024 12.4137 17.494 12.5816C17.4783 12.8962 17.2555 13.1157 16.9639 13.1151C16.6722 13.1145 16.4556 12.8957 16.4394 12.5783C16.4366 12.4932 16.4394 12.407 16.4394 12.3253Z" fill="#1A9CC9"/>
<path d="M14.3347 16.2588C14.3425 15.9728 14.5323 15.7371 14.7445 15.7505C14.9566 15.764 15.1189 16.0019 15.1128 16.2946C15.1066 16.5874 14.9269 16.8147 14.7086 16.7984C14.4903 16.7822 14.3274 16.5421 14.3347 16.2588Z" fill="#1A9CC9"/>
<path d="M18.0134 16.2817C18.0134 16.5722 17.8354 16.8051 17.6216 16.8017C17.4077 16.7983 17.2297 16.5526 17.2297 16.2727C17.2297 15.9928 17.4206 15.7477 17.6289 15.751C17.8371 15.7544 18.0151 15.9945 18.0134 16.2817Z" fill="#1A9CC9"/>
</svg>
